<?xml version="1.0" encoding="UTF-8"?>
<svg xmlns="http://www.w3.org/2000/svg" xmlns:xlink="http://www.w3.org/1999/xlink" id="Layer_1" data-name="Layer 1" version="1.1" viewBox="0 0 479 663">
  <defs>
    <style>
      .cls-1 {
        clip-path: url(#clippath);
      }

      .cls-2, .cls-3, .cls-4, .cls-5, .cls-6, .cls-7, .cls-8, .cls-9, .cls-10, .cls-11, .cls-12, .cls-13, .cls-14, .cls-15, .cls-16, .cls-17, .cls-18, .cls-19, .cls-20, .cls-21 {
        stroke-width: 0px;
      }

      .cls-2, .cls-22, .cls-23, .cls-24 {
        fill: none;
      }

      .cls-3 {
        fill: url(#linear-gradient);
      }

      .cls-4 {
        fill: url(#radial-gradient);
      }

      .cls-5 {
        fill: #3890ea;
      }

      .cls-6 {
        fill: #00bbde;
      }

      .cls-22 {
        stroke: #cce3ff;
        stroke-width: 2px;
      }

      .cls-7 {
        fill: #fdcd48;
      }

      .cls-25 {
        clip-path: url(#clippath-1);
      }

      .cls-26 {
        clip-path: url(#clippath-4);
      }

      .cls-27 {
        clip-path: url(#clippath-3);
      }

      .cls-28 {
        clip-path: url(#clippath-2);
      }

      .cls-29 {
        clip-path: url(#clippath-5);
      }

      .cls-8, .cls-30 {
        fill: #000;
      }

      .cls-9 {
        fill: url(#radial-gradient-2);
      }

      .cls-10 {
        fill: url(#radial-gradient-3);
      }

      .cls-11 {
        fill: #093eb0;
      }

      .cls-30 {
        font-family: Manrope-Regular, Manrope;
        font-size: 16px;
      }

      .cls-23 {
        stroke-width: .3px;
      }

      .cls-23, .cls-24 {
        stroke: #fff;
        stroke-linecap: round;
        stroke-linejoin: round;
      }

      .cls-24 {
        stroke-width: .3px;
      }

      .cls-31 {
        opacity: .1;
      }

      .cls-12 {
        fill: url(#linear-gradient-4);
      }

      .cls-13 {
        fill: url(#linear-gradient-2);
      }

      .cls-14 {
        fill: url(#linear-gradient-3);
      }

      .cls-15 {
        fill: url(#linear-gradient-8);
      }

      .cls-16 {
        fill: url(#linear-gradient-9);
      }

      .cls-17 {
        fill: url(#linear-gradient-7);
      }

      .cls-18 {
        fill: url(#linear-gradient-5);
      }

      .cls-19 {
        fill: url(#linear-gradient-6);
      }

      .cls-32 {
        isolation: isolate;
      }

      .cls-20 {
        fill: #fff;
      }

      .cls-21 {
        fill: #cce3ff;
      }
    </style>
    <clipPath id="clippath">
      <rect class="cls-2" x="10.6" y="120.8" width="23.8" height="32.1"></rect>
    </clipPath>
    <linearGradient id="linear-gradient" x1="11.8" y1="656.1" x2="33.2" y2="656.1" gradientTransform="translate(0 -514)" gradientUnits="userSpaceOnUse">
      <stop offset="0" stop-color="#fff"></stop>
      <stop offset=".5" stop-color="#fff"></stop>
      <stop offset="1" stop-color="#cfd0d0"></stop>
    </linearGradient>
    <linearGradient id="linear-gradient-2" x1="15.8" y1="635.6" x2="29.6" y2="649.3" gradientTransform="translate(0 -514)" gradientUnits="userSpaceOnUse">
      <stop offset="0" stop-color="#fff"></stop>
      <stop offset=".5" stop-color="#fff"></stop>
      <stop offset="1" stop-color="#cfd0d0"></stop>
    </linearGradient>
    <linearGradient id="linear-gradient-3" x1="18.9" y1="665.5" x2="26.1" y2="665.5" gradientTransform="translate(0 -514)" gradientUnits="userSpaceOnUse">
      <stop offset="0" stop-color="#fff"></stop>
      <stop offset="1" stop-color="#cfd0d0"></stop>
    </linearGradient>
    <radialGradient id="radial-gradient" cx="-609.9" cy="14" fx="-609.9" fy="14" r="1" gradientTransform="translate(6264.5 -14.8) scale(10.2 10.3)" gradientUnits="userSpaceOnUse">
      <stop offset="0" stop-color="#003046"></stop>
      <stop offset="1" stop-color="#081115"></stop>
    </radialGradient>
    <clipPath id="clippath-1">
      <rect class="cls-2" x="10.6" y="254" width="23.8" height="32.1"></rect>
    </clipPath>
    <linearGradient id="linear-gradient-4" x1="11.8" y1="789.3" x2="33.2" y2="789.3" gradientTransform="translate(0 -514)" gradientUnits="userSpaceOnUse">
      <stop offset="0" stop-color="#fff"></stop>
      <stop offset=".5" stop-color="#fff"></stop>
      <stop offset="1" stop-color="#cfd0d0"></stop>
    </linearGradient>
    <linearGradient id="linear-gradient-5" x1="15.8" y1="768.8" x2="29.6" y2="782.5" gradientTransform="translate(0 -514)" gradientUnits="userSpaceOnUse">
      <stop offset="0" stop-color="#fff"></stop>
      <stop offset=".5" stop-color="#fff"></stop>
      <stop offset="1" stop-color="#cfd0d0"></stop>
    </linearGradient>
    <linearGradient id="linear-gradient-6" x1="18.9" y1="798.7" x2="26.1" y2="798.7" gradientTransform="translate(0 -514)" gradientUnits="userSpaceOnUse">
      <stop offset="0" stop-color="#fff"></stop>
      <stop offset="1" stop-color="#cfd0d0"></stop>
    </linearGradient>
    <radialGradient id="radial-gradient-2" cx="-609.9" cy="14" fx="-609.9" fy="14" r="1" gradientTransform="translate(6264.5 118.5) scale(10.2 10.3)" gradientUnits="userSpaceOnUse">
      <stop offset="0" stop-color="#003046"></stop>
      <stop offset="1" stop-color="#081115"></stop>
    </radialGradient>
    <clipPath id="clippath-2">
      <rect class="cls-2" x="10.6" y="385" width="23.8" height="32.1"></rect>
    </clipPath>
    <linearGradient id="linear-gradient-7" x1="11.8" y1="920.3" x2="33.2" y2="920.3" gradientTransform="translate(0 -514)" gradientUnits="userSpaceOnUse">
      <stop offset="0" stop-color="#fff"></stop>
      <stop offset=".5" stop-color="#fff"></stop>
      <stop offset="1" stop-color="#cfd0d0"></stop>
    </linearGradient>
    <linearGradient id="linear-gradient-8" x1="15.8" y1="899.8" x2="29.6" y2="913.5" gradientTransform="translate(0 -514)" gradientUnits="userSpaceOnUse">
      <stop offset="0" stop-color="#fff"></stop>
      <stop offset=".5" stop-color="#fff"></stop>
      <stop offset="1" stop-color="#cfd0d0"></stop>
    </linearGradient>
    <linearGradient id="linear-gradient-9" x1="18.9" y1="929.7" x2="26.1" y2="929.7" gradientTransform="translate(0 -514)" gradientUnits="userSpaceOnUse">
      <stop offset="0" stop-color="#fff"></stop>
      <stop offset="1" stop-color="#cfd0d0"></stop>
    </linearGradient>
    <radialGradient id="radial-gradient-3" cx="-609.9" cy="14" fx="-609.9" fy="14" r="1" gradientTransform="translate(6264.5 249.5) scale(10.2 10.3)" gradientUnits="userSpaceOnUse">
      <stop offset="0" stop-color="#003046"></stop>
      <stop offset="1" stop-color="#081115"></stop>
    </radialGradient>
    <clipPath id="clippath-3">
      <ellipse class="cls-2" cx="455.6" cy="39.5" rx="22.4" ry="22.5"></ellipse>
    </clipPath>
    <clipPath id="clippath-4">
      <ellipse class="cls-2" cx="455.6" cy="197.5" rx="22.4" ry="22.5"></ellipse>
    </clipPath>
    <clipPath id="clippath-5">
      <ellipse class="cls-2" cx="455.6" cy="332.5" rx="22.4" ry="22.5"></ellipse>
    </clipPath>
  </defs>
  <g class="cls-31">
    <image class="cls-32" width="281" height="118" transform="translate(178 -15)"></image>
  </g>
  <g class="cls-31">
    <image class="cls-32" width="252" height="118" transform="translate(207 143)"></image>
  </g>
  <g class="cls-31">
    <image class="cls-32" width="141" height="118" transform="translate(318 278)"></image>
  </g>
  <g class="cls-31">
    <image class="cls-32" width="425" height="145" transform="translate(28 51)"></image>
  </g>
  <g class="cls-31">
    <image class="cls-32" width="372" height="119" transform="translate(26 212) scale(1 1)"></image>
  </g>
  <g class="cls-31">
    <image class="cls-32" width="416" height="119" transform="translate(28 345)"></image>
  </g>
  <g class="cls-31">
    <image class="cls-32" width="416" height="285" transform="translate(28 400)"></image>
  </g>
  <path class="cls-7" d="M22.9,159c12.4,0,22.4-10.1,22.4-22.5s-10-22.5-22.4-22.5S.5,124.1.5,136.5s10,22.5,22.4,22.5Z"></path>
  <path class="cls-7" d="M22.9,292c12.4,0,22.4-10.1,22.4-22.5s-10-22.5-22.4-22.5S.5,257.1.5,269.5s10,22.5,22.4,22.5Z"></path>
  <path class="cls-7" d="M22.9,423c12.4,0,22.4-10.1,22.4-22.5s-10-22.5-22.4-22.5S.5,388.1.5,400.5s10,22.5,22.4,22.5Z"></path>
  <path class="cls-21" d="M419,36.4c0-10.7-8.7-19.4-19.4-19.4h-169.2c-10.7,0-19.4,8.7-19.4,19.4v6.2c0,10.7,8.7,19.4,19.4,19.4h186c1.4,0,2.6-1.2,2.6-2.6v-23Z"></path>
  <path class="cls-21" d="M419,194.4c0-10.7-8.7-19.4-19.4-19.4h-140.2c-10.7,0-19.4,8.7-19.4,19.4v6.2c0,10.7,8.7,19.4,19.4,19.4h157c1.4,0,2.6-1.2,2.6-2.6v-23Z"></path>
  <path class="cls-21" d="M419,329.4c0-10.7-8.7-19.4-19.4-19.4h-29.2c-10.7,0-19.4,8.7-19.4,19.4v6.2c0,10.7,8.7,19.4,19.4,19.4h46c1.4,0,2.6-1.2,2.6-2.6v-23Z"></path>
  <path class="cls-20" d="M61,102.4c0-10.7,8.7-19.4,19.4-19.4h313.2c10.7,0,19.4,8.7,19.4,19.4v33.2c0,10.7-8.7,19.4-19.4,19.4H63.6c-1.4,0-2.6-1.2-2.6-2.6,0,0,0-50,0-50Z"></path>
  <path class="cls-20" d="M61,263.4c0-10.7,8.2-19.4,18.3-19.4h245.6c10.1,0,18.3,8.7,18.3,19.4v7.2c0,10.7-8.2,19.4-18.3,19.4H63.5c-1.3,0-2.5-1.2-2.5-2.6,0,0,0-24,0-24Z"></path>
  <path class="cls-20" d="M61,396.4c0-10.7,8.7-19.4,19.4-19.4h304.2c10.7,0,19.4,8.7,19.4,19.4v7.2c0,10.7-8.7,19.4-19.4,19.4H63.6c-1.4,0-2.6-1.2-2.6-2.6,0,0,0-24,0-24Z"></path>
  <path class="cls-20" d="M61,453c0-11.6,9.4-21,21-21h301c11.6,0,21,9.4,21,21v170c0,11.6-9.4,21-21,21H82c-11.6,0-21-9.4-21-21v-170Z"></path>
  <path class="cls-8" d="M232.6,44v-8.6h1.1v2.1l-.2-.3c.1-.3.2-.5.4-.7s.3-.4.5-.5c.2-.2.5-.3.8-.4.3,0,.6-.2.9-.2s.6,0,.8,0v1.1c-.3,0-.7,0-1,0s-.7.2-1,.4-.5.5-.6.8-.2.6-.3,1c0,.3-.1.7-.1,1v4.3h-1.3ZM241.9,44.2c-.8,0-1.6-.2-2.2-.6-.6-.4-1.1-.9-1.4-1.6-.3-.7-.5-1.5-.5-2.4s.2-1.8.5-2.4c.3-.7.8-1.2,1.4-1.6.6-.4,1.3-.6,2.2-.6s1.6.2,2.2.6c.6.4,1.1.9,1.4,1.7.3.7.5,1.6.4,2.6h-1.2v-.4c0-1.1-.3-2-.7-2.5-.5-.6-1.1-.9-2-.9s-1.6.3-2.1.9c-.5.6-.7,1.5-.7,2.6s.2,1.9.7,2.5,1.2.9,2.1.9,1.2,0,1.6-.4c.5-.3.8-.7,1.1-1.2l1.1.4c-.3.8-.8,1.3-1.5,1.8-.8.4-1.6.6-2.4.6ZM238.6,40v-1h6.6v1h-6.6ZM251.2,44.2c-.9,0-1.6-.2-2.2-.6-.6-.4-1.1-.9-1.4-1.6-.3-.7-.5-1.5-.5-2.4s.2-1.7.5-2.4.8-1.2,1.4-1.6c.6-.4,1.3-.6,2.2-.6s1.6.2,2.3.6c.7.4,1.1,1,1.3,1.8l-1.2.4c-.2-.5-.5-.9-1-1.2-.4-.3-.9-.4-1.5-.4s-1.2,0-1.6.4c-.4.3-.7.7-.9,1.2s-.3,1.1-.3,1.8c0,1,.3,1.9.7,2.5.5.6,1.2.9,2.1.9s1.1,0,1.5-.4c.4-.3.7-.7.9-1.2l1.2.4c-.3.8-.8,1.4-1.4,1.8-.5.4-1.3.6-2.1.6ZM259.8,44.2c-.9,0-1.6-.2-2.2-.6-.6-.4-1.1-.9-1.4-1.6-.3-.7-.5-1.5-.5-2.4s.2-1.7.5-2.4c.3-.7.8-1.2,1.4-1.6.6-.4,1.3-.6,2.2-.6s1.6.2,2.2.6c.6.4,1.1.9,1.4,1.6.3.7.5,1.5.5,2.4s-.2,1.7-.5,2.4-.8,1.2-1.4,1.6-1.3.6-2.2.6ZM259.8,43.1c1,0,1.7-.3,2.1-1,.5-.6.7-1.5.7-2.5s-.2-1.9-.7-2.5-1.2-.9-2.1-.9-1.2,0-1.6.4c-.4.3-.7.7-.9,1.2-.2.5-.3,1.1-.3,1.8,0,1,.2,1.9.7,2.5.5.7,1.2,1,2.1,1ZM276,44v-5.7c0-.7-.2-1.2-.6-1.6-.4-.4-.8-.6-1.4-.6s-.6,0-1,.2c-.3,0-.6.4-.8.7-.2.3-.3.8-.3,1.3l-.7-.2c0-.6.1-1.2.4-1.6.3-.5.6-.8,1.1-1.1s1-.4,1.6-.4c.9,0,1.6.3,2.1.8s.8,1.3.8,2.2v5.9h-1.2ZM265.7,44v-8.6h1.1v2.1h.1v6.5h-1.2ZM270.8,44v-5.6c0-.7-.2-1.2-.6-1.6-.4-.4-.8-.6-1.4-.6s-1.1.2-1.4.6c-.4.4-.6.9-.6,1.6l-.7-.4c0-.6.1-1.1.4-1.5s.6-.8,1.1-1c.5-.3,1-.4,1.5-.4s1,0,1.5.4c.4.2.8.6,1,1s.4,1,.4,1.6v5.9h-1.2ZM289.5,44v-5.7c0-.7-.2-1.2-.6-1.6-.4-.4-.8-.6-1.4-.6s-.6,0-1,.2c-.3,0-.6.4-.8.7-.2.3-.3.8-.3,1.3l-.7-.2c0-.6.1-1.2.4-1.6.3-.5.6-.8,1.1-1.1s1-.4,1.6-.4c.9,0,1.6.3,2.1.8s.8,1.3.8,2.2v5.9h-1.2ZM279.2,44v-8.6h1.1v2.1h.1v6.5h-1.2ZM284.4,44v-5.6c0-.7-.2-1.2-.6-1.6-.4-.4-.8-.6-1.4-.6s-1.1.2-1.4.6c-.4.4-.6.9-.6,1.6l-.7-.4c0-.6.1-1.1.4-1.5s.6-.8,1.1-1c.5-.3,1-.4,1.5-.4s1,0,1.5.4c.4.2.8.6,1,1s.4,1,.4,1.6v5.9h-1.2ZM296.4,44.2c-.8,0-1.6-.2-2.2-.6-.6-.4-1.1-.9-1.4-1.6-.3-.7-.5-1.5-.5-2.4s.2-1.8.5-2.4.8-1.2,1.4-1.6c.6-.4,1.3-.6,2.2-.6s1.6.2,2.2.6c.6.4,1.1.9,1.4,1.7.3.7.5,1.6.4,2.6h-1.2v-.4c0-1.1-.3-2-.7-2.5-.5-.6-1.1-.9-2-.9s-1.6.3-2.1.9c-.5.6-.7,1.5-.7,2.6s.2,1.9.7,2.5,1.2.9,2.1.9,1.2,0,1.6-.4c.5-.3.8-.7,1.1-1.2l1.1.4c-.3.8-.8,1.3-1.5,1.8-.8.4-1.6.6-2.4.6ZM293.1,40v-1h6.6v1h-6.6ZM308.1,44v-4.4c0-.5,0-.9-.1-1.3-.1-.4-.2-.8-.4-1.1-.2-.3-.5-.5-.8-.7s-.7-.2-1.2-.2-.8,0-1.1.2c-.3,0-.6.4-.8.6-.2.3-.4.6-.5,1s-.2.8-.2,1.3l-.8-.2c0-.9.2-1.6.5-2.2.3-.6.7-1.1,1.3-1.4.5-.3,1.2-.5,1.9-.5s1,0,1.4.2c.4.2.7.4,1,.6.3.3.5.6.7.9.2.3.3.7.4,1.1.1.4.1.8.1,1.2v4.9h-1.4ZM301.8,44v-8.6h1.1v2.1h.1v6.5h-1.2ZM314.6,44.2c-.8,0-1.5-.2-2.1-.6-.6-.4-1-1-1.3-1.6-.3-.7-.5-1.5-.5-2.3s.1-1.6.4-2.3.7-1.2,1.3-1.6c.6-.4,1.2-.6,2-.6s1.5.2,2,.6c.6.4,1,.9,1.3,1.6.3.7.4,1.5.4,2.3s-.1,1.6-.4,2.3-.7,1.2-1.2,1.6c-.4.4-1.1.6-1.9.6ZM314.8,43.1c.6,0,1.1,0,1.5-.4.4-.3.7-.7.9-1.2.2-.5.3-1.1.3-1.8s-.1-1.3-.3-1.8c-.2-.5-.5-.9-.9-1.2s-.9-.4-1.5-.4-1.1.2-1.5.5-.7.7-.9,1.2c-.2.5-.3,1.1-.3,1.8s.1,1.2.3,1.8c.2.5.5.9.9,1.2s.9.3,1.5.3ZM317.5,44v-6.5h-.1v-5h1.2v11.5h-1.1ZM326.4,44.2c-.6,0-1.2,0-1.6-.4-.4-.2-.8-.5-1-.9s-.3-.8-.3-1.3.1-.9.3-1.2c.2-.3.5-.6.8-.8s.7-.4,1.1-.5.9-.2,1.4-.3,1.1-.2,1.6-.2c.5,0,1,0,1.3-.2l-.4.3c0-.9-.1-1.5-.5-1.9-.3-.4-.9-.6-1.8-.6s-1.1,0-1.5.4c-.4.3-.7.7-.9,1.3l-1.1-.3c.2-.8.6-1.4,1.2-1.8.6-.4,1.4-.6,2.3-.6s1.5,0,2,.4c.6.3.9.7,1.2,1.3.1.3.2.5.2.8v6.3h-1v-2.2l.3.2c-.3.7-.7,1.3-1.4,1.7-.5.3-1.3.5-2.2.5ZM326.6,43.2c.6,0,1,0,1.4-.3s.7-.5,1-.8.4-.7.5-1.2c.1-.3.1-.6.1-.9v-.8l.4.2c-.4,0-.8,0-1.3.2-.5,0-.9,0-1.4.2-.4,0-.9.2-1.2.2-.2,0-.5.2-.7.3s-.4.3-.6.5c-.1.2-.2.5-.2.8s.1.5.2.7.3.4.6.6.7.3,1.2.3ZM336.5,44.2c-.9,0-1.6-.2-2.2-.6-.6-.4-1.1-.9-1.4-1.6-.3-.7-.5-1.5-.5-2.4s.2-1.7.5-2.4.8-1.2,1.4-1.6c.6-.4,1.3-.6,2.2-.6s1.6.2,2.3.6c.7.4,1.1,1,1.3,1.8l-1.2.4c-.2-.5-.5-.9-1-1.2-.4-.3-.9-.4-1.5-.4s-1.2,0-1.6.4c-.4.3-.7.7-.9,1.2s-.3,1.1-.3,1.8c0,1,.3,1.9.7,2.5.5.6,1.2.9,2.1.9s1.1,0,1.5-.4c.4-.3.7-.7.9-1.2l1.2.4c-.3.8-.8,1.4-1.4,1.8s-1.3.6-2.1.6ZM345.1,44.2c-.9,0-1.6-.2-2.2-.6-.6-.4-1.1-.9-1.4-1.6-.3-.7-.5-1.5-.5-2.4s.2-1.7.5-2.4.8-1.2,1.4-1.6c.6-.4,1.3-.6,2.2-.6s1.6.2,2.3.6c.7.4,1.1,1,1.3,1.8l-1.2.4c-.2-.5-.5-.9-1-1.2-.4-.3-.9-.4-1.5-.4s-1.2,0-1.6.4c-.4.3-.7.7-.9,1.2s-.3,1.1-.3,1.8c0,1,.3,1.9.7,2.5.5.6,1.2.9,2.1.9s1.1,0,1.5-.4c.4-.3.7-.7.9-1.2l1.2.4c-.3.8-.8,1.4-1.4,1.8-.5.4-1.3.6-2.1.6ZM353.7,44.2c-.9,0-1.6-.2-2.2-.6-.6-.4-1.1-.9-1.4-1.6-.3-.7-.5-1.5-.5-2.4s.2-1.7.5-2.4.8-1.2,1.4-1.6c.6-.4,1.3-.6,2.2-.6s1.6.2,2.2.6c.6.4,1.1.9,1.4,1.6.3.7.5,1.5.5,2.4s-.2,1.7-.5,2.4-.8,1.2-1.4,1.6c-.6.4-1.3.6-2.2.6ZM353.7,43.1c1,0,1.7-.3,2.1-1,.5-.6.7-1.5.7-2.5s-.2-1.9-.7-2.5-1.2-.9-2.1-.9-1.2,0-1.6.4c-.4.3-.7.7-.9,1.2-.2.5-.3,1.1-.3,1.8,0,1,.2,1.9.7,2.5.5.7,1.2,1,2.1,1ZM362.9,44.2c-.5,0-1,0-1.4-.2-.4-.2-.7-.4-1-.6-.3-.3-.5-.6-.6-.9-.2-.4-.3-.7-.4-1.1-.1-.4-.1-.8-.1-1.2v-4.8h1.2v4.4c0,.5,0,.9.1,1.3.1.4.2.8.4,1.1.2.3.5.5.8.7s.7.2,1.2.2.8,0,1.1-.2c.3,0,.6-.3.8-.6.2-.3.4-.6.5-1s.2-.8.2-1.3l.8.2c0,.9-.2,1.6-.5,2.2-.3.6-.7,1.1-1.3,1.4s-1.1.4-1.8.4ZM365.8,44v-2.1h-.1v-6.5h1.2v8.6h-1.1ZM375.3,44v-4.4c0-.5,0-.9-.1-1.3-.1-.4-.2-.8-.4-1.1-.2-.3-.5-.5-.8-.7s-.7-.2-1.2-.2-.8,0-1.1.2c-.3,0-.6.4-.8.6-.2.3-.4.6-.5,1s-.2.8-.2,1.3l-.8-.2c0-.9.2-1.6.5-2.2.3-.6.7-1.1,1.3-1.4.5-.3,1.2-.5,1.9-.5s1,0,1.4.2c.4.2.7.4,1,.6.3.3.5.6.7.9.2.3.3.7.4,1.1.1.4.1.8.1,1.2v4.9h-1.4ZM369.1,44v-8.6h1.1v2.1h.1v6.5h-1.2ZM383.3,44c-.5,0-1,0-1.4,0s-.9,0-1.3-.3-.6-.5-.8-.8c-.2-.3-.2-.6-.3-1v-9h1.2v8.8c0,.2.1.5.2.6.2.4.5.6.9.6.4,0,.9,0,1.6,0v1h-.1ZM377.6,36.4v-1h5.7v1h-5.7ZM388.2,44.2c-1,0-1.8-.2-2.5-.7-.7-.4-1.1-1-1.2-1.8l1.2-.2c.1.5.4.9.9,1.2s1,.4,1.7.4,1.2,0,1.6-.4c.4-.3.6-.7.6-1.1s-.1-.5-.2-.6c-.1-.2-.4-.3-.7-.5-.4,0-.9-.3-1.6-.5-.8-.2-1.4-.4-1.8-.6-.4-.2-.8-.5-.9-.7-.2-.3-.3-.6-.3-1s.1-.9.4-1.3c.3-.4.7-.7,1.2-.9s1.1-.3,1.7-.3,1.2,0,1.7.3.9.5,1.2.9.5.8.6,1.3l-1.2.2c-.1-.5-.3-.9-.8-1.2-.4-.3-1-.5-1.6-.5s-1.1,0-1.5.4c-.4.2-.6.6-.6,1s.1.4.2.6c.1.2.4.3.8.5.4,0,.9.3,1.6.5.8.2,1.4.4,1.9.6s.8.5,1,.8.3.7.3,1.1c0,.8-.3,1.5-.9,1.9-.9.4-1.7.6-2.8.6Z"></path>
  <path class="cls-8" d="M265.5,202.2c-.9,0-1.6-.2-2.2-.6-.6-.4-1.1-.9-1.4-1.6-.3-.7-.5-1.5-.5-2.4s.2-1.7.5-2.4.8-1.2,1.4-1.6c.6-.4,1.3-.6,2.2-.6s1.6.2,2.3.6c.6.4,1.1,1,1.3,1.8l-1.2.4c-.2-.5-.5-.9-1-1.2-.4-.3-.9-.4-1.5-.4s-1.2.1-1.6.4c-.4.3-.7.7-.9,1.2-.2.5-.3,1.1-.3,1.8,0,1,.2,1.9.7,2.5s1.2.9,2.1.9,1.1-.1,1.5-.4c.4-.3.7-.7.9-1.2l1.2.4c-.3.8-.8,1.4-1.4,1.8-.5.4-1.2.6-2.1.6ZM277.1,202v-4.4c0-.5,0-.9-.1-1.3-.1-.4-.2-.8-.4-1.1-.2-.3-.5-.5-.8-.7s-.7-.2-1.2-.2-.8.1-1.1.2c-.3.1-.6.4-.8.6-.2.3-.4.6-.5,1s-.2.8-.2,1.3l-.8-.2c0-.9.2-1.6.5-2.2s.7-1.1,1.3-1.4,1.2-.5,1.9-.5,1,.1,1.4.2c.4.2.7.4,1,.6.3.3.5.6.7.9.2.3.3.7.4,1.1.1.4.1.8.1,1.2v4.8h-1.4ZM270.8,202v-11.5h1.1v6.5h.1v5h-1.2ZM284,202.2c-.8,0-1.6-.2-2.2-.6-.6-.4-1.1-.9-1.4-1.6s-.5-1.5-.5-2.4.2-1.8.5-2.4.8-1.2,1.4-1.6c.6-.4,1.3-.6,2.2-.6s1.6.2,2.2.6c.6.4,1.1.9,1.4,1.7.3.7.5,1.6.4,2.6h-1.2v-.4c0-1.1-.3-2-.7-2.5-.5-.6-1.1-.9-2-.9s-1.6.3-2.1.9c-.5.6-.7,1.5-.7,2.6s.2,1.9.7,2.5,1.2.9,2.1.9,1.2-.1,1.6-.4c.5-.3.8-.7,1.1-1.2l1.1.4c-.3.8-.8,1.3-1.5,1.8-.8.4-1.6.6-2.4.6ZM280.7,198v-1h6.6v1h-6.6ZM293.3,202.2c-.9,0-1.6-.2-2.2-.6-.6-.4-1.1-.9-1.4-1.6-.3-.7-.5-1.5-.5-2.4s.2-1.7.5-2.4.8-1.2,1.4-1.6c.6-.4,1.3-.6,2.2-.6s1.6.2,2.3.6c.7.4,1.1,1,1.3,1.8l-1.2.4c-.2-.5-.5-.9-1-1.2-.4-.3-.9-.4-1.5-.4s-1.2.1-1.6.4c-.4.3-.7.7-.9,1.2-.2.5-.3,1.1-.3,1.8,0,1,.3,1.9.7,2.5.5.6,1.2.9,2.1.9s1.1-.1,1.5-.4c.4-.3.7-.7.9-1.2l1.2.4c-.3.8-.8,1.4-1.4,1.8-.5.4-1.3.6-2.1.6ZM298.5,202v-11.5h1.2v7l3.9-4.2h1.6l-4,4.3,4.6,4.3h-1.8l-4.2-4.2v4.2h-1.3ZM306.6,191.7v-1.3h1.2v1.3h-1.2ZM306.6,202v-8.6h1.2v8.6h-1.2ZM316.5,202v-4.4c0-.5,0-.9-.1-1.3-.1-.4-.2-.8-.4-1.1-.2-.3-.5-.5-.8-.7s-.7-.2-1.2-.2-.8.1-1.1.2c-.3.1-.6.4-.8.6-.2.3-.4.6-.5,1s-.2.8-.2,1.3l-.8-.2c0-.9.2-1.6.5-2.2.3-.6.7-1.1,1.3-1.4.5-.3,1.2-.5,1.9-.5s1,.1,1.4.2c.4.2.7.4,1,.6.3.3.5.6.7.9.2.3.3.7.4,1.1.1.4.1.8.1,1.2v4.8h-1.4ZM310.2,202v-8.6h1.1v2.1h.1v6.5h-1.2ZM323.1,206.1c-.4,0-.9-.1-1.3-.2-.4-.1-.8-.3-1.2-.6-.4-.3-.7-.6-.9-1.1l1.1-.6c.2.5.6.8,1,1s.9.3,1.3.3c.6,0,1.1-.1,1.5-.4.4-.2.7-.6.8-1s.3-1,.3-1.7v-2.3h.1v-6.2h1v9.2c0,.2,0,.5-.1.7-.1.6-.3,1.2-.6,1.6-.3.4-.7.7-1.2.9-.4.3-1.1.4-1.8.4ZM323.1,202.2c-.8,0-1.5-.2-2.1-.6-.6-.4-1-1-1.3-1.6-.3-.7-.5-1.5-.5-2.3s.1-1.6.4-2.3.7-1.2,1.3-1.6c.6-.4,1.2-.6,2-.6s1.5.2,2,.6c.6.4,1,.9,1.3,1.6.3.7.4,1.5.4,2.3s-.1,1.6-.4,2.3-.7,1.2-1.2,1.6c-.5.4-1.1.6-1.9.6ZM323.2,201.1c.6,0,1.1-.1,1.5-.4.4-.3.7-.7.9-1.2.2-.5.3-1.1.3-1.8s-.1-1.3-.3-1.8c-.2-.5-.5-.9-.9-1.2s-.9-.4-1.5-.4-1.1.2-1.5.5-.7.7-.9,1.2c-.2.5-.3,1.1-.3,1.8s.1,1.2.3,1.8c.2.5.5.9.9,1.2s.9.3,1.5.3ZM334.9,202.2c-.7,0-1.2-.1-1.6-.4-.4-.2-.8-.5-1-.9s-.3-.8-.3-1.3.1-.9.3-1.2c.2-.3.5-.6.8-.8s.7-.4,1.1-.5.9-.2,1.4-.3,1.1-.2,1.6-.2c.5-.1,1-.1,1.3-.2l-.4.3c0-.9-.1-1.5-.5-1.9-.3-.4-1-.6-1.8-.6s-1.1.1-1.5.4c-.4.3-.7.7-.9,1.3l-1.1-.3c.2-.8.6-1.4,1.2-1.8.6-.4,1.4-.6,2.3-.6s1.5.1,2,.4c.6.3.9.7,1.2,1.3.1.3.2.5.2.8v6.3h-1v-2.2h.3c-.3.8-.8,1.4-1.4,1.8-.6.4-1.4.6-2.2.6ZM335,201.2c.5,0,1-.1,1.4-.3s.7-.5,1-.8c.2-.3.4-.7.5-1.2.1-.3.1-.6.1-.9v-.8l.4.2c-.4.1-.8.1-1.3.2-.5.1-.9.1-1.4.2-.4.1-.9.2-1.2.2-.2.1-.5.2-.7.3s-.4.3-.6.5c-.1.2-.2.5-.2.8s.1.5.2.7.3.4.6.6c.4.2.7.3,1.2.3ZM344.9,202.2c-.9,0-1.6-.2-2.2-.6-.6-.4-1.1-.9-1.4-1.6-.3-.7-.5-1.5-.5-2.4s.2-1.7.5-2.4.8-1.2,1.4-1.6c.6-.4,1.3-.6,2.2-.6s1.6.2,2.3.6c.7.4,1.1,1,1.3,1.8l-1.2.4c-.2-.5-.5-.9-1-1.2-.4-.3-.9-.4-1.5-.4s-1.2.1-1.6.4c-.4.3-.7.7-.9,1.2-.2.5-.3,1.1-.3,1.8,0,1,.3,1.9.7,2.5.5.6,1.2.9,2.1.9s1.1-.1,1.5-.4c.4-.3.7-.7.9-1.2l1.2.4c-.3.8-.8,1.4-1.4,1.8-.5.4-1.3.6-2.1.6ZM353.5,202.2c-.9,0-1.6-.2-2.2-.6-.6-.4-1.1-.9-1.4-1.6-.3-.7-.5-1.5-.5-2.4s.2-1.7.5-2.4.8-1.2,1.4-1.6c.6-.4,1.3-.6,2.2-.6s1.6.2,2.3.6c.7.4,1.1,1,1.3,1.8l-1.2.4c-.2-.5-.5-.9-1-1.2-.4-.3-.9-.4-1.5-.4s-1.2.1-1.6.4c-.4.3-.7.7-.9,1.2-.2.5-.3,1.1-.3,1.8,0,1,.3,1.9.7,2.5.5.6,1.2.9,2.1.9s1.1-.1,1.5-.4c.4-.3.7-.7.9-1.2l1.2.4c-.3.8-.8,1.4-1.4,1.8-.5.4-1.3.6-2.1.6ZM362.1,202.2c-.9,0-1.6-.2-2.2-.6-.6-.4-1.1-.9-1.4-1.6-.3-.7-.5-1.5-.5-2.4s.2-1.7.5-2.4.8-1.2,1.4-1.6c.6-.4,1.3-.6,2.2-.6s1.6.2,2.2.6c.6.4,1.1.9,1.4,1.6.3.7.5,1.5.5,2.4s-.2,1.7-.5,2.4-.8,1.2-1.4,1.6-1.3.6-2.2.6ZM362.1,201.1c1,0,1.7-.3,2.1-1,.5-.6.7-1.5.7-2.5s-.2-1.9-.7-2.5-1.2-.9-2.1-.9-1.2.1-1.6.4c-.4.3-.7.7-.9,1.2-.2.5-.3,1.1-.3,1.8,0,1,.2,1.9.7,2.5.5.7,1.2,1,2.1,1ZM371.3,202.2c-.5,0-1-.1-1.4-.2-.4-.2-.7-.4-1-.6-.3-.3-.5-.6-.6-.9-.2-.4-.3-.7-.4-1.1-.1-.4-.1-.8-.1-1.2v-4.8h1.2v4.4c0,.5,0,.9.1,1.3.1.4.2.8.4,1.1.2.3.5.5.8.7s.7.2,1.2.2.8-.1,1.1-.2c.3-.1.6-.3.8-.6.2-.3.4-.6.5-1s.2-.8.2-1.3l.8.2c0,.9-.2,1.6-.5,2.2s-.7,1.1-1.3,1.4-1.1.4-1.8.4ZM374.2,202v-2.1h-.1v-6.5h1.2v8.6h-1.1ZM383.7,202v-4.4c0-.5,0-.9-.1-1.3-.1-.4-.2-.8-.4-1.1-.2-.3-.5-.5-.8-.7s-.7-.2-1.2-.2-.8.1-1.1.2c-.3.1-.6.4-.8.6-.2.3-.4.6-.5,1s-.2.8-.2,1.3l-.8-.2c0-.9.2-1.6.5-2.2s.7-1.1,1.3-1.4,1.2-.5,1.9-.5,1,.1,1.4.2c.4.2.7.4,1,.6.3.3.5.6.7.9.2.3.3.7.4,1.1.1.4.1.8.1,1.2v4.8h-1.4ZM377.5,202v-8.6h1.1v2.1h.1v6.5h-1.2ZM391.7,202c-.5.1-1,.1-1.4.1s-.9-.1-1.3-.3-.6-.5-.8-.8c-.2-.3-.2-.6-.3-1v-9h1.2v8.8c0,.2.1.5.2.6.2.4.5.6.9.6.4.1.9.1,1.6,0v1h-.1ZM386,194.4v-1h5.7v1h-5.7Z"></path>
  <path class="cls-8" d="M370.8,337v-4.8l-3.9-6.7h1.4l3.1,5.4,3.1-5.4h1.4l-3.8,6.7v4.8h-1.3ZM379.3,337.2c-.8,0-1.6-.2-2.2-.6s-1.1-.9-1.4-1.6-.5-1.5-.5-2.4.2-1.8.5-2.4.8-1.2,1.4-1.6,1.3-.6,2.2-.6,1.6.2,2.2.6,1.1.9,1.4,1.7c.3.7.4,1.6.4,2.6h-1.3v-.4c0-1.1-.3-2-.7-2.5-.5-.6-1.1-.9-2-.9s-1.6.3-2.1.9-.7,1.5-.7,2.6.2,1.9.7,2.5,1.2.9,2.1.9,1.2-.1,1.6-.4c.5-.3.8-.7,1.1-1.2l1.1.4c-.3.8-.8,1.3-1.5,1.8-.7.4-1.5.6-2.3.6ZM376,333v-1h6.6v1h-6.6ZM388.2,337.2c-1,0-1.8-.2-2.5-.7-.7-.4-1.1-1-1.2-1.8l1.2-.2c.1.5.4.9.9,1.2.5.3,1,.4,1.7.4s1.2-.1,1.6-.4.6-.7.6-1.1-.1-.5-.2-.6c-.1-.2-.4-.3-.7-.5-.4-.1-.9-.3-1.6-.5-.8-.2-1.4-.4-1.8-.6s-.8-.5-.9-.7c-.2-.3-.3-.6-.3-1s.1-.9.4-1.3.7-.7,1.2-.9c.5-.2,1.1-.3,1.7-.3s1.2.1,1.7.3c.5.2.9.5,1.2.9s.5.8.6,1.3l-1.2.2c-.1-.5-.3-.9-.8-1.2-.4-.3-1-.5-1.6-.5s-1.1.1-1.5.4c-.4.2-.6.6-.6,1s.1.4.2.6.4.3.8.5c.4.1.9.3,1.6.5.8.2,1.4.4,1.9.6s.8.5,1,.8.3.7.3,1.1c0,.8-.3,1.5-.9,1.9-.9.4-1.7.6-2.8.6Z"></path>
  <path class="cls-8" d="M87.8,114l-3.3-11.5h1.2l2.7,9.5,2.7-9.5h1.2l2.7,9.5,2.7-9.5h1.2l-3.3,11.5h-1.2l-2.7-9.4-2.7,9.4h-1.2ZM106.6,114v-4.4c0-.5,0-.9,0-1.3s-.2-.8-.4-1.1c-.2-.3-.5-.5-.8-.7s-.7-.2-1.2-.2-.8,0-1.1.2c-.3,0-.6.4-.8.6-.2.3-.4.6-.5,1s-.2.8-.2,1.3l-.8-.2c0-.9.2-1.6.5-2.2s.7-1.1,1.3-1.4,1.2-.5,1.9-.5,1,0,1.4.2c.4.2.7.4,1,.6.3.3.5.6.7.9s.3.7.4,1.1,0,.8,0,1.2v4.8h-1.4ZM100.3,114v-11.5h1.1v6.5h0v5h-1.2ZM112.3,114.2c-.7,0-1.2,0-1.6-.4-.4-.2-.8-.5-1-.9s-.3-.8-.3-1.3,0-.9.3-1.2c.2-.3.5-.6.8-.8.3-.2.7-.4,1.1-.5s.9-.2,1.4-.3c.5,0,1.1-.2,1.6-.2.5,0,1,0,1.3-.2l-.4.3c0-.9,0-1.5-.5-1.9s-.9-.6-1.8-.6-1.1,0-1.5.4-.7.7-.9,1.3l-1.1-.3c.2-.8.6-1.4,1.2-1.8s1.4-.6,2.3-.6,1.5,0,2,.4c.6.3.9.7,1.2,1.3,0,.3.2.5.2.8v6.3h-1v-2.2h.3c-.3.8-.7,1.4-1.4,1.8s-1.3.6-2.2.6ZM112.4,113.2c.5,0,1,0,1.4-.3.4-.2.7-.5,1-.8s.4-.7.5-1.2c0-.3,0-.6,0-.9v-.8l.4.2c-.4,0-.8,0-1.3.2s-.9,0-1.4.2c-.4,0-.9.2-1.2.2-.2,0-.5.2-.7.3-.2,0-.4.3-.6.5,0,.2-.2.5-.2.8s0,.5.2.7.3.4.6.6c.4.2.8.3,1.2.3ZM123.4,114c-.5,0-1,0-1.4,0s-.9,0-1.3-.3c-.4-.2-.6-.5-.8-.8-.2-.3-.2-.6-.3-1v-9h1.2v8.8c0,.2,0,.5.2.6.2.4.5.6.9.6.4,0,.9,0,1.6,0v1h0ZM117.8,106.4v-1h5.7v1h-5.7ZM128.3,114v-11.5h1.2v7l3.9-4.2h1.6l-4,4.3,4.6,4.3h-1.7l-4.2-4.2v4.2h-1.4ZM136.4,103.7v-1.3h1.2v1.3h-1.2ZM136.4,114v-8.6h1.2v8.6h-1.2ZM146.2,114v-4.4c0-.5,0-.9-.1-1.3s-.2-.8-.4-1.1c-.2-.3-.5-.5-.8-.7s-.7-.2-1.2-.2-.8,0-1.1.2-.6.4-.8.6c-.2.3-.4.6-.5,1s-.2.8-.2,1.3l-.8-.2c0-.9.2-1.6.5-2.2s.7-1.1,1.3-1.4c.5-.3,1.2-.5,1.9-.5s1,0,1.4.2c.4.2.7.4,1,.6.3.3.5.6.7.9s.3.7.4,1.1c.1.4.1.8.1,1.2v4.8h-1.4ZM140,114v-8.6h1.1v2.1h.1v6.5h-1.2ZM152.8,114.2c-.8,0-1.5-.2-2.1-.6s-1-1-1.3-1.6-.5-1.5-.5-2.3.1-1.6.4-2.3c.3-.7.7-1.2,1.3-1.6s1.2-.6,2-.6,1.5.2,2,.6c.6.4,1,.9,1.3,1.6s.4,1.5.4,2.3-.1,1.6-.4,2.3c-.3.7-.7,1.2-1.2,1.6-.4.4-1.1.6-1.9.6ZM152.9,113.1c.6,0,1.1,0,1.5-.4s.7-.7.9-1.2.3-1.1.3-1.8-.1-1.3-.3-1.8-.5-.9-.9-1.2c-.4-.3-.9-.4-1.5-.4s-1.1.2-1.5.5-.7.7-.9,1.2-.3,1.1-.3,1.8.1,1.2.3,1.8c.2.5.5.9.9,1.2.4.2.9.3,1.5.3ZM155.6,114v-6.5h-.1v-5h1.2v11.5h-1.1ZM165.7,114.2c-.9,0-1.6-.2-2.2-.6s-1.1-.9-1.4-1.6c-.3-.7-.5-1.5-.5-2.4s.2-1.7.5-2.4c.3-.7.8-1.2,1.4-1.6.6-.4,1.3-.6,2.2-.6s1.6.2,2.2.6c.6.4,1.1.9,1.4,1.6.3.7.5,1.5.5,2.4s-.2,1.7-.5,2.4c-.3.7-.8,1.2-1.4,1.6s-1.3.6-2.2.6ZM165.7,113.1c1,0,1.7-.3,2.1-1,.5-.6.7-1.5.7-2.5s-.2-1.9-.7-2.5-1.2-.9-2.1-.9-1.2,0-1.6.4c-.4.3-.7.7-.9,1.2s-.3,1.1-.3,1.8c0,1,.2,1.9.7,2.5.5.7,1.2,1,2.1,1ZM172.5,114v-10c0-.2.1-.4.2-.6.1-.2.2-.4.4-.6s.4-.3.6-.4c.2,0,.4,0,.6-.2h1.8v1h-1c-.4,0-.8,0-1,.3-.2.2-.3.6-.3,1v9.4h-1.3ZM171,106.4v-1h5v1h-5ZM182.9,114.2c-.7,0-1.2,0-1.6-.4-.4-.2-.8-.5-1-.9s-.3-.8-.3-1.3.1-.9.3-1.2c.2-.3.4-.6.8-.8.3-.2.7-.4,1.1-.5.4,0,.9-.2,1.4-.3.5,0,1.1-.2,1.6-.2.5,0,1,0,1.3-.2l-.4.3c0-.9-.2-1.5-.5-1.9s-.9-.6-1.8-.6-1.1,0-1.5.4-.7.7-.9,1.3l-1.1-.3c.2-.8.6-1.4,1.2-1.8.6-.4,1.4-.6,2.3-.6s1.5,0,2,.4c.6.3.9.7,1.2,1.3.1.3.2.5.2.8v6.3h-1v-2.2h.3c-.3.8-.8,1.4-1.4,1.8-.6.4-1.3.6-2.2.6ZM183.1,113.2c.5,0,1,0,1.4-.3.4-.2.7-.5,1-.8.2-.3.4-.7.5-1.2.1-.3.1-.6.1-.9v-.8l.4.2c-.4,0-.8,0-1.3.2s-.9,0-1.4.2c-.4,0-.9.2-1.2.2-.2,0-.5.2-.7.3-.2,0-.4.3-.6.5-.1.2-.2.5-.2.8s.1.5.2.7c.1.2.3.4.6.6.3.2.7.3,1.2.3ZM192.9,114.2c-.9,0-1.6-.2-2.2-.6-.6-.4-1.1-.9-1.4-1.6-.3-.7-.5-1.5-.5-2.4s.2-1.7.5-2.4c.3-.7.8-1.2,1.4-1.6.6-.4,1.3-.6,2.2-.6s1.6.2,2.3.6,1.1,1,1.3,1.8l-1.2.4c-.2-.5-.5-.9-1-1.2-.4-.3-.9-.4-1.5-.4s-1.2,0-1.6.4c-.4.3-.7.7-.9,1.2s-.3,1.1-.3,1.8c0,1,.3,1.9.7,2.5.5.6,1.2.9,2.1.9s1.1,0,1.5-.4.7-.7.9-1.2l1.2.4c-.3.8-.8,1.4-1.4,1.8-.5.4-1.2.6-2.1.6ZM201.6,114.2c-.9,0-1.6-.2-2.2-.6-.6-.4-1.1-.9-1.4-1.6-.3-.7-.5-1.5-.5-2.4s.2-1.7.5-2.4c.3-.7.8-1.2,1.4-1.6.6-.4,1.3-.6,2.2-.6s1.6.2,2.3.6,1.1,1,1.3,1.8l-1.2.4c-.2-.5-.5-.9-1-1.2-.4-.3-.9-.4-1.5-.4s-1.2,0-1.6.4c-.4.3-.7.7-.9,1.2s-.3,1.1-.3,1.8c0,1,.3,1.9.7,2.5.5.6,1.2.9,2.1.9s1.1,0,1.5-.4.7-.7.9-1.2l1.2.4c-.3.8-.8,1.4-1.4,1.8-.5.4-1.3.6-2.1.6ZM210.2,114.2c-.9,0-1.6-.2-2.2-.6s-1.1-.9-1.4-1.6c-.3-.7-.5-1.5-.5-2.4s.2-1.7.5-2.4c.3-.7.8-1.2,1.4-1.6.6-.4,1.3-.6,2.2-.6s1.6.2,2.2.6c.6.4,1.1.9,1.4,1.6.3.7.5,1.5.5,2.4s-.2,1.7-.5,2.4c-.3.7-.8,1.2-1.4,1.6s-1.3.6-2.2.6ZM210.2,113.1c1,0,1.7-.3,2.1-1,.5-.6.7-1.5.7-2.5s-.2-1.9-.7-2.5-1.2-.9-2.1-.9-1.2,0-1.6.4c-.4.3-.7.7-.9,1.2s-.3,1.1-.3,1.8c0,1,.2,1.9.7,2.5.5.7,1.2,1,2.1,1ZM219.4,114.2c-.5,0-1,0-1.4-.2-.4-.2-.7-.4-1-.6-.3-.3-.5-.6-.6-.9-.2-.4-.3-.7-.4-1.1-.1-.4-.1-.8-.1-1.2v-4.8h1.2v4.4c0,.5,0,.9.1,1.3s.2.8.4,1.1c.2.3.5.5.8.7s.7.2,1.2.2.8,0,1.1-.2.6-.3.8-.6c.2-.3.4-.6.5-1s.2-.8.2-1.3l.8.2c0,.9-.2,1.6-.5,2.2s-.7,1.1-1.3,1.4c-.5.3-1.1.4-1.8.4ZM222.3,114v-2.1h-.1v-6.5h1.2v8.6h-1.1ZM231.8,114v-4.4c0-.5,0-.9-.1-1.3s-.2-.8-.4-1.1c-.2-.3-.5-.5-.8-.7s-.7-.2-1.2-.2-.8,0-1.1.2-.6.4-.8.6c-.2.3-.4.6-.5,1s-.2.8-.2,1.3l-.8-.2c0-.9.2-1.6.5-2.2s.7-1.1,1.3-1.4c.5-.3,1.2-.5,1.9-.5s1,0,1.4.2c.4.2.7.4,1,.6.3.3.5.6.7.9s.3.7.4,1.1c.1.4.1.8.1,1.2v4.8h-1.4ZM225.6,114v-8.6h1.1v2.1h.1v6.5h-1.2ZM239.8,114c-.5,0-1,0-1.4,0s-.9,0-1.3-.3-.6-.5-.8-.8-.2-.6-.3-1v-9h1.2v8.8c0,.2.1.5.2.6.2.4.5.6.9.6.4,0,.9,0,1.6,0v1h0ZM234.1,106.4v-1h5.7v1h-5.7ZM247.2,114.2c-.7,0-1.2,0-1.6-.4-.4-.2-.8-.5-1-.9s-.3-.8-.3-1.3.1-.9.3-1.2c.2-.3.5-.6.8-.8.3-.2.7-.4,1.1-.5.4,0,.9-.2,1.4-.3.5,0,1.1-.2,1.6-.2.5,0,1,0,1.3-.2l-.4.3c0-.9-.1-1.5-.5-1.9-.3-.4-.9-.6-1.8-.6s-1.1,0-1.5.4-.7.7-.9,1.3l-1.1-.3c.2-.8.6-1.4,1.2-1.8.6-.4,1.4-.6,2.3-.6s1.5,0,2,.4c.6.3.9.7,1.2,1.3.1.3.2.5.2.8v6.3h-1v-2.2h.3c-.3.8-.7,1.4-1.4,1.8-.6.4-1.4.6-2.2.6ZM247.3,113.2c.6,0,1,0,1.4-.3.4-.2.7-.5,1-.8s.4-.7.5-1.2c.1-.3.1-.6.1-.9v-.8l.4.2c-.4,0-.8,0-1.3.2s-.9,0-1.4.2c-.4,0-.9.2-1.2.2-.2,0-.5.2-.7.3-.2,0-.4.3-.6.5-.1.2-.2.5-.2.8s.1.5.2.7c.1.2.3.4.6.6.4.2.7.3,1.2.3ZM253.6,114v-8.6h1.1v2.1l-.2-.3c.1-.3.2-.5.4-.7s.3-.4.5-.5c.2-.2.5-.3.8-.4.3,0,.6-.2.9-.2s.6,0,.8,0v1.1c-.3,0-.7,0-1,0s-.7.2-1,.4c-.3.2-.5.5-.6.8s-.2.6-.3,1c0,.3-.1.7-.1,1v4.3s-1.3,0-1.3,0ZM262.8,114.2c-.8,0-1.6-.2-2.2-.6s-1.1-.9-1.4-1.6-.5-1.5-.5-2.4.2-1.8.5-2.4c.3-.7.8-1.2,1.4-1.6s1.3-.6,2.2-.6,1.6.2,2.2.6,1.1.9,1.4,1.7c.3.7.5,1.6.4,2.6h-1.2v-.4c0-1.1-.3-2-.7-2.5-.5-.6-1.1-.9-2-.9s-1.6.3-2.1.9-.7,1.5-.7,2.6.2,1.9.7,2.5,1.2.9,2.1.9,1.2,0,1.6-.4c.5-.3.8-.7,1.1-1.2l1.1.4c-.3.8-.8,1.3-1.5,1.8-.8.4-1.5.6-2.4.6ZM259.5,110v-1h6.6v1h-6.6ZM273,117.8l1.7-4.5v1.3l-3.8-9.3h1.2l3.1,7.8h-.5l2.9-7.8h1.2l-4.6,12.5h-1.2ZM283.5,114.2c-.9,0-1.6-.2-2.2-.6s-1.1-.9-1.4-1.6-.5-1.5-.5-2.4.2-1.7.5-2.4c.3-.7.8-1.2,1.4-1.6s1.3-.6,2.2-.6,1.6.2,2.2.6,1.1.9,1.4,1.6.5,1.5.5,2.4-.2,1.7-.5,2.4c-.3.7-.8,1.2-1.4,1.6s-1.4.6-2.2.6ZM283.5,113.1c1,0,1.7-.3,2.1-1,.5-.6.7-1.5.7-2.5s-.2-1.9-.7-2.5-1.2-.9-2.1-.9-1.2,0-1.6.4-.7.7-.9,1.2c-.2.5-.3,1.1-.3,1.8,0,1,.2,1.9.7,2.5.4.7,1.2,1,2.1,1ZM292.7,114.2c-.5,0-1,0-1.4-.2-.4-.2-.7-.4-1-.6-.3-.3-.5-.6-.6-.9-.2-.4-.3-.7-.4-1.1s-.1-.8-.1-1.2v-4.8h1.2v4.4c0,.5,0,.9.1,1.3s.2.8.4,1.1c.2.3.5.5.8.7s.7.2,1.2.2.8,0,1.1-.2c.3,0,.6-.3.8-.6.2-.3.4-.6.5-1s.2-.8.2-1.3l.8.2c0,.9-.2,1.6-.5,2.2s-.7,1.1-1.3,1.4c-.5.3-1.1.4-1.8.4ZM295.6,114v-2.1h-.1v-6.5h1.2v8.6h-1.1ZM302.2,114v-11.8h1.2v11.8h-1.2ZM309.4,114.2c-.9,0-1.6-.2-2.2-.6s-1.1-.9-1.4-1.6-.5-1.5-.5-2.4.2-1.7.5-2.4c.3-.7.8-1.2,1.4-1.6s1.3-.6,2.2-.6,1.6.2,2.2.6,1.1.9,1.4,1.6.5,1.5.5,2.4-.2,1.7-.5,2.4c-.3.7-.8,1.2-1.4,1.6s-1.4.6-2.2.6ZM309.4,113.1c1,0,1.7-.3,2.1-1,.5-.6.7-1.5.7-2.5s-.2-1.9-.7-2.5-1.2-.9-2.1-.9-1.2,0-1.6.4-.7.7-.9,1.2c-.2.5-.3,1.1-.3,1.8,0,1,.2,1.9.7,2.5.5.7,1.2,1,2.1,1ZM318.9,114.2c-.9,0-1.6-.2-2.2-.6s-1.1-.9-1.4-1.6-.5-1.5-.5-2.4.2-1.7.5-2.4c.3-.7.8-1.2,1.4-1.6s1.3-.6,2.2-.6,1.6.2,2.2.6,1.1.9,1.4,1.6.5,1.5.5,2.4-.2,1.7-.5,2.4c-.3.7-.8,1.2-1.4,1.6-.7.4-1.4.6-2.2.6ZM318.9,113.1c1,0,1.7-.3,2.1-1,.5-.6.7-1.5.7-2.5s-.2-1.9-.7-2.5-1.2-.9-2.1-.9-1.2,0-1.6.4-.7.7-.9,1.2c-.2.5-.3,1.1-.3,1.8,0,1,.2,1.9.7,2.5.4.7,1.1,1,2.1,1ZM324.7,114v-11.5h1.2v7l3.9-4.2h1.6l-4,4.3,4.6,4.3h-1.7l-4.2-4.2v4.2h-1.4ZM332.8,103.7v-1.3h1.2v1.3h-1.2ZM332.8,114v-8.6h1.2v8.6h-1.2ZM342.6,114v-4.4c0-.5,0-.9-.1-1.3s-.2-.8-.4-1.1c-.2-.3-.5-.5-.8-.7s-.7-.2-1.2-.2-.8,0-1.1.2c-.3,0-.6.4-.8.6-.2.3-.4.6-.5,1s-.2.8-.2,1.3l-.8-.2c0-.9.2-1.6.5-2.2s.7-1.1,1.3-1.4c.5-.3,1.2-.5,1.9-.5s1,0,1.4.2c.4.2.7.4,1,.6.3.3.5.6.7.9s.3.7.4,1.1.1.8.1,1.2v4.8h-1.4ZM336.4,114v-8.6h1.1v2.1h.1v6.5h-1.2ZM349.3,118.1c-.4,0-.9,0-1.3-.2s-.8-.3-1.2-.6c-.4-.3-.7-.6-.9-1.1l1.1-.6c.2.5.6.8,1,1s.9.3,1.3.3c.6,0,1.1,0,1.5-.4.4-.2.7-.6.8-1,.2-.5.3-1,.3-1.7v-2.3h.1v-6.2h1v9.2c0,.2,0,.5-.1.7-.1.6-.3,1.2-.6,1.6-.3.4-.7.7-1.2.9-.5.3-1.1.4-1.8.4ZM349.2,114.2c-.8,0-1.5-.2-2.1-.6s-1-1-1.3-1.6c-.3-.7-.5-1.5-.5-2.3s.1-1.6.4-2.3c.3-.7.7-1.2,1.3-1.6.6-.4,1.2-.6,2-.6s1.5.2,2,.6c.6.4,1,.9,1.3,1.6s.4,1.5.4,2.3-.1,1.6-.4,2.3c-.3.7-.7,1.2-1.2,1.6-.4.4-1.1.6-1.9.6ZM349.4,113.1c.6,0,1.1,0,1.5-.4s.7-.7.9-1.2c.2-.5.3-1.1.3-1.8s-.1-1.3-.3-1.8c-.2-.5-.5-.9-.9-1.2-.4-.3-.9-.4-1.5-.4s-1.1.2-1.5.5-.7.7-.9,1.2c-.2.5-.3,1.1-.3,1.8s.1,1.2.3,1.8c.2.5.5.9.9,1.2.4.2.9.3,1.5.3ZM359.4,114v-10c0-.2.1-.4.2-.6s.2-.4.4-.6c.2-.2.4-.3.6-.4s.4,0,.6-.2h1.8v1h-1c-.4,0-.8,0-1,.3-.2.2-.3.6-.3,1v9.4h-1.3ZM357.9,106.4v-1h5v1h-5ZM367.5,114.2c-.9,0-1.6-.2-2.2-.6s-1.1-.9-1.4-1.6-.5-1.5-.5-2.4.2-1.7.5-2.4c.3-.7.8-1.2,1.4-1.6s1.3-.6,2.2-.6,1.6.2,2.2.6,1.1.9,1.4,1.6.5,1.5.5,2.4-.2,1.7-.5,2.4c-.3.7-.8,1.2-1.4,1.6s-1.3.6-2.2.6ZM367.5,113.1c1,0,1.7-.3,2.1-1,.5-.6.7-1.5.7-2.5s-.2-1.9-.7-2.5-1.2-.9-2.1-.9-1.2,0-1.6.4-.7.7-.9,1.2c-.2.5-.3,1.1-.3,1.8,0,1,.2,1.9.7,2.5.5.7,1.2,1,2.1,1ZM373.4,114v-8.6h1.1v2.1l-.2-.3c.1-.3.2-.5.4-.7.2-.2.3-.4.5-.5.2-.2.5-.3.8-.4s.6-.2.9-.2.6,0,.8,0v1.1c-.3,0-.7,0-1,0s-.7.2-1,.4c-.3.2-.5.5-.6.8s-.2.6-.3,1c0,.3-.1.7-.1,1v4.3s-1.3,0-1.3,0ZM377.7,115.7v-.6c.3,0,.5,0,.6,0s.2-.2.2-.4v-.6h-.7v-1.7h1.4v2c0,.5-.1.9-.4,1.1-.3.3-.7.4-1.1.3ZM387.8,114.2c-.7,0-1.2,0-1.6-.4-.4-.2-.8-.5-1-.9s-.3-.8-.3-1.3.1-.9.3-1.2c.2-.3.5-.6.8-.8.3-.2.7-.4,1.1-.5s.9-.2,1.4-.3c.5,0,1.1-.2,1.6-.2.5,0,1,0,1.3-.2l-.4.3c0-.9-.1-1.5-.5-1.9-.3-.4-.9-.6-1.8-.6s-1.1,0-1.5.4-.7.7-.9,1.3l-1.1-.3c.2-.8.6-1.4,1.2-1.8s1.4-.6,2.3-.6,1.5,0,2,.4c.6.3.9.7,1.2,1.3.1.3.2.5.2.8v6.3h-1v-2.2h.3c-.3.8-.7,1.4-1.4,1.8-.6.4-1.3.6-2.2.6ZM387.9,113.2c.5,0,1,0,1.4-.3s.7-.5,1-.8.4-.7.5-1.2c.1-.3.1-.6.1-.9v-.8l.4.2c-.4,0-.8,0-1.3.2s-.9,0-1.4.2c-.4,0-.9.2-1.2.2-.2,0-.5.2-.7.3-.2,0-.4.3-.6.5-.1.2-.2.5-.2.8s.1.5.2.7.3.4.6.6c.4.2.8.3,1.2.3ZM88.9,134.2c-.9,0-1.6-.2-2.2-.6-.6-.4-1.1-.9-1.4-1.6-.3-.7-.5-1.5-.5-2.4s.2-1.7.5-2.4c.3-.7.8-1.2,1.4-1.6s1.3-.6,2.2-.6,1.6.2,2.3.6c.7.4,1.1,1,1.3,1.8l-1.2.4c-.2-.5-.5-.9-1-1.2-.4-.3-.9-.4-1.5-.4s-1.2,0-1.6.4-.7.7-.9,1.2c-.2.5-.3,1.1-.3,1.8,0,1,.3,1.9.7,2.5.5.6,1.2.9,2.1.9s1.1-.1,1.5-.4c.4-.3.7-.7.9-1.2l1.2.4c-.3.8-.8,1.4-1.4,1.8-.5.4-1.2.6-2.1.6ZM100.5,134v-4.4c0-.5,0-.9,0-1.3,0-.4-.2-.8-.4-1.1-.2-.3-.5-.5-.8-.7s-.7-.2-1.2-.2-.8,0-1.1.2c-.3,0-.6.4-.8.6-.2.3-.4.6-.5,1,0,.4-.2.8-.2,1.3l-.8-.2c0-.9.2-1.6.5-2.2s.7-1.1,1.3-1.4,1.2-.5,1.9-.5,1,0,1.4.2c.4.2.7.4,1,.6.3.3.5.6.7.9s.3.7.4,1.1c0,.4,0,.8,0,1.2v4.8h-1.4ZM94.2,134v-11.5h1.1v6.5h0v5h-1.2ZM107.4,134.2c-.8,0-1.6-.2-2.2-.6-.6-.4-1.1-.9-1.4-1.6-.3-.7-.5-1.5-.5-2.4s.2-1.8.5-2.4c.3-.7.8-1.2,1.4-1.6s1.3-.6,2.2-.6,1.6.2,2.2.6,1.1.9,1.4,1.7c.3.7.4,1.6.4,2.6h-1.2v-.4c0-1.1-.3-2-.7-2.5-.5-.6-1.1-.9-2-.9s-1.6.3-2.1.9-.7,1.5-.7,2.6.2,1.9.7,2.5,1.2.9,2.1.9,1.2-.1,1.6-.4c.5-.3.8-.7,1.1-1.2l1.1.4c-.3.8-.8,1.3-1.5,1.8-.8.4-1.6.6-2.4.6ZM104.1,130v-1h6.6v1h-6.6ZM116.7,134.2c-.9,0-1.6-.2-2.2-.6-.6-.4-1.1-.9-1.4-1.6-.3-.7-.5-1.5-.5-2.4s.2-1.7.5-2.4c.3-.7.8-1.2,1.4-1.6s1.3-.6,2.2-.6,1.6.2,2.3.6c.7.4,1.1,1,1.3,1.8l-1.2.4c-.2-.5-.5-.9-1-1.2-.4-.3-.9-.4-1.5-.4s-1.2,0-1.6.4-.7.7-.9,1.2c-.2.5-.3,1.1-.3,1.8,0,1,.3,1.9.7,2.5.5.6,1.2.9,2.1.9s1.1-.1,1.5-.4c.4-.3.7-.7.9-1.2l1.2.4c-.3.8-.8,1.4-1.4,1.8-.5.4-1.3.6-2.1.6ZM121.9,134v-11.5h1.2v7l3.9-4.2h1.6l-4,4.3,4.6,4.3h-1.7l-4.2-4.2v4.2h-1.4ZM130,123.7v-1.3h1.2v1.3h-1.2ZM130,134v-8.6h1.2v8.6h-1.2ZM139.9,134v-4.4c0-.5,0-.9-.1-1.3-.1-.4-.2-.8-.4-1.1-.2-.3-.5-.5-.8-.7s-.7-.2-1.2-.2-.8,0-1.1.2-.6.4-.8.6c-.2.3-.4.6-.5,1-.1.4-.2.8-.2,1.3l-.8-.2c0-.9.2-1.6.5-2.2s.7-1.1,1.3-1.4c.5-.3,1.2-.5,1.9-.5s1,0,1.4.2c.4.2.7.4,1,.6.3.3.5.6.7.9s.3.7.4,1.1c.1.4.1.8.1,1.2v4.8h-1.4ZM133.6,134v-8.6h1.1v2.1h.1v6.5h-1.2ZM146.5,138.1c-.4,0-.9-.1-1.3-.2-.4-.1-.8-.3-1.2-.6s-.7-.6-.9-1.1l1.1-.6c.2.5.6.8,1,1s.9.3,1.3.3c.6,0,1.1-.1,1.5-.4.4-.2.7-.6.8-1,.2-.5.3-1,.3-1.7v-2.3h.1v-6.2h1v9.2c0,.2,0,.5-.1.7-.1.6-.3,1.2-.6,1.6-.3.4-.7.7-1.2.9-.4.3-1.1.4-1.8.4ZM146.5,134.2c-.8,0-1.5-.2-2.1-.6-.6-.4-1-1-1.3-1.6s-.5-1.5-.5-2.3.1-1.6.4-2.3c.3-.7.7-1.2,1.3-1.6s1.2-.6,2-.6,1.5.2,2,.6c.6.4,1,.9,1.3,1.6s.4,1.5.4,2.3-.1,1.6-.4,2.3c-.3.7-.7,1.2-1.2,1.6s-1.1.6-1.9.6ZM146.6,133.1c.6,0,1.1-.1,1.5-.4.4-.3.7-.7.9-1.2s.3-1.1.3-1.8-.1-1.3-.3-1.8-.5-.9-.9-1.2c-.4-.3-.9-.4-1.5-.4s-1.1.2-1.5.5-.7.7-.9,1.2c-.2.5-.3,1.1-.3,1.8s.1,1.2.3,1.8c.2.5.5.9.9,1.2.4.2.9.3,1.5.3ZM158.3,134.2c-.7,0-1.2-.1-1.6-.4-.4-.2-.8-.5-1-.9s-.3-.8-.3-1.3.1-.9.3-1.2.5-.6.8-.8.7-.4,1.1-.5c.4-.1.9-.2,1.4-.3s1.1-.2,1.6-.2c.5-.1,1-.1,1.3-.2l-.4.3c0-.9-.1-1.5-.5-1.9s-.9-.6-1.8-.6-1.1,0-1.5.4-.7.7-.9,1.3l-1.1-.3c.2-.8.6-1.4,1.2-1.8.6-.4,1.4-.6,2.3-.6s1.5,0,2,.4c.6.3.9.7,1.2,1.3.1.3.2.5.2.8v6.3h-1v-2.2h.3c-.3.8-.7,1.4-1.4,1.8-.6.4-1.4.6-2.2.6ZM158.4,133.2c.5,0,1-.1,1.4-.3s.7-.5,1-.8.4-.7.5-1.2c.1-.3.1-.6.1-.9v-.8l.4.2c-.4.1-.8.1-1.3.2-.5.1-.9.1-1.4.2-.4.1-.9.2-1.2.2-.2.1-.5.2-.7.3s-.4.3-.6.5c-.1.2-.2.5-.2.8s.1.5.2.7c.1.2.3.4.6.6.4.2.7.3,1.2.3ZM168.3,134.2c-.9,0-1.6-.2-2.2-.6-.6-.4-1.1-.9-1.4-1.6-.3-.7-.5-1.5-.5-2.4s.2-1.7.5-2.4c.3-.7.8-1.2,1.4-1.6.6-.4,1.3-.6,2.2-.6s1.6.2,2.3.6,1.1,1,1.3,1.8l-1.2.4c-.2-.5-.5-.9-1-1.2-.4-.3-.9-.4-1.5-.4s-1.2,0-1.6.4c-.4.3-.7.7-.9,1.2-.2.5-.3,1.1-.3,1.8,0,1,.2,1.9.7,2.5s1.2.9,2.1.9,1.1-.1,1.5-.4c.4-.3.7-.7.9-1.2l1.2.4c-.3.8-.8,1.4-1.4,1.8-.5.4-1.3.6-2.1.6ZM176.9,134.2c-.9,0-1.6-.2-2.2-.6-.6-.4-1.1-.9-1.4-1.6-.3-.7-.5-1.5-.5-2.4s.2-1.7.5-2.4c.3-.7.8-1.2,1.4-1.6.6-.4,1.3-.6,2.2-.6s1.6.2,2.3.6,1.1,1,1.3,1.8l-1.2.4c-.2-.5-.5-.9-1-1.2-.4-.3-.9-.4-1.5-.4s-1.2,0-1.6.4c-.4.3-.7.7-.9,1.2-.2.5-.3,1.1-.3,1.8,0,1,.2,1.9.7,2.5s1.2.9,2.1.9,1.1-.1,1.5-.4c.4-.3.7-.7.9-1.2l1.2.4c-.3.8-.8,1.4-1.4,1.8-.5.4-1.3.6-2.1.6ZM185.5,134.2c-.9,0-1.6-.2-2.2-.6-.6-.4-1.1-.9-1.4-1.6-.3-.7-.5-1.5-.5-2.4s.2-1.7.5-2.4c.3-.7.8-1.2,1.4-1.6.6-.4,1.3-.6,2.2-.6s1.6.2,2.2.6c.6.4,1.1.9,1.4,1.6.3.7.5,1.5.5,2.4s-.2,1.7-.5,2.4-.8,1.2-1.4,1.6-1.3.6-2.2.6ZM185.5,133.1c1,0,1.7-.3,2.1-1,.5-.6.7-1.5.7-2.5s-.2-1.9-.7-2.5-1.2-.9-2.1-.9-1.2,0-1.6.4c-.4.3-.7.7-.9,1.2s-.3,1.1-.3,1.8c0,1,.2,1.9.7,2.5.5.7,1.2,1,2.1,1ZM194.7,134.2c-.5,0-1-.1-1.4-.2-.4-.2-.7-.4-1-.6-.3-.3-.5-.6-.6-.9-.2-.4-.3-.7-.4-1.1-.1-.4-.1-.8-.1-1.2v-4.8h1.2v4.4c0,.5,0,.9.1,1.3.1.4.2.8.4,1.1s.5.5.8.7.7.2,1.2.2.8-.1,1.1-.2c.3-.1.6-.3.8-.6s.4-.6.5-1,.2-.8.2-1.3l.8.2c0,.9-.2,1.6-.5,2.2-.3.6-.7,1.1-1.3,1.4s-1.1.4-1.8.4ZM197.6,134v-2.1h-.1v-6.5h1.2v8.6h-1.1ZM207.1,134v-4.4c0-.5,0-.9-.1-1.3-.1-.4-.2-.8-.4-1.1-.2-.3-.5-.5-.8-.7s-.7-.2-1.2-.2-.8,0-1.1.2-.6.4-.8.6c-.2.3-.4.6-.5,1-.1.4-.2.8-.2,1.3l-.8-.2c0-.9.2-1.6.5-2.2s.7-1.1,1.3-1.4c.5-.3,1.2-.5,1.9-.5s1,0,1.4.2c.4.2.7.4,1,.6.3.3.5.6.7.9s.3.7.4,1.1c.1.4.1.8.1,1.2v4.8h-1.4ZM200.9,134v-8.6h1.1v2.1h.1v6.5h-1.2ZM215.1,134c-.5.1-1,.1-1.4.1s-.9-.1-1.3-.3c-.4-.2-.6-.5-.8-.8s-.2-.6-.3-1v-9h1.2v8.8c0,.2.1.5.2.6.2.4.5.6.9.6.4.1.9.1,1.6,0v1h0ZM209.4,126.4v-1h5.7v1h-5.7ZM223.6,134.2c-.9,0-1.6-.2-2.2-.6-.6-.4-1.1-.9-1.4-1.6-.3-.7-.5-1.5-.5-2.4s.2-1.7.5-2.4c.3-.7.8-1.2,1.4-1.6.6-.4,1.3-.6,2.2-.6s1.6.2,2.2.6c.6.4,1.1.9,1.4,1.6.3.7.5,1.5.5,2.4s-.2,1.7-.5,2.4-.8,1.2-1.4,1.6c-.6.4-1.3.6-2.2.6ZM223.6,133.1c1,0,1.7-.3,2.1-1,.5-.6.7-1.5.7-2.5s-.2-1.9-.7-2.5-1.2-.9-2.1-.9-1.2,0-1.6.4c-.4.3-.7.7-.9,1.2s-.3,1.1-.3,1.8c0,1,.2,1.9.7,2.5.5.7,1.2,1,2.1,1ZM229.5,134v-8.6h1.1v2.1l-.2-.3c.1-.3.2-.5.4-.7s.3-.4.5-.5c.2-.2.5-.3.8-.4s.6-.2.9-.2.6,0,.8,0v1.1c-.3,0-.7,0-1,0s-.7.2-1,.4c-.3.2-.5.5-.6.8-.1.3-.2.6-.3,1,0,.3-.1.7-.1,1v4.3h-1.3ZM240.9,134.2c-.7,0-1.2-.1-1.6-.4-.4-.2-.8-.5-1-.9s-.3-.8-.3-1.3.1-.9.3-1.2.5-.6.8-.8.7-.4,1.1-.5c.4-.1.9-.2,1.4-.3s1.1-.2,1.6-.2c.5-.1,1-.1,1.3-.2l-.4.3c0-.9-.1-1.5-.5-1.9-.3-.4-.9-.6-1.8-.6s-1.1,0-1.5.4-.7.7-.9,1.3l-1.1-.3c.2-.8.6-1.4,1.2-1.8.6-.4,1.4-.6,2.3-.6s1.5,0,2,.4c.6.3.9.7,1.2,1.3.1.3.2.5.2.8v6.3h-1v-2.2h.3c-.3.8-.7,1.4-1.4,1.8-.6.4-1.3.6-2.2.6ZM241,133.2c.6,0,1-.1,1.4-.3s.7-.5,1-.8.4-.7.5-1.2c.1-.3.1-.6.1-.9v-.8l.4.2c-.4.1-.8.1-1.3.2-.5.1-.9.1-1.4.2-.4.1-.9.2-1.2.2-.2.1-.5.2-.7.3s-.4.3-.6.5c-.1.2-.2.5-.2.8s.1.5.2.7c.1.2.3.4.6.6.4.2.8.3,1.2.3ZM253.8,134.2c-1,0-1.8-.2-2.5-.7-.7-.4-1.1-1-1.2-1.8l1.2-.2c.1.5.4.9.9,1.2s1,.4,1.7.4,1.2-.1,1.6-.4c.4-.3.6-.7.6-1.1s-.1-.5-.2-.6c-.1-.2-.4-.3-.7-.5s-.9-.3-1.6-.5c-.8-.2-1.4-.4-1.8-.6-.4-.2-.8-.5-.9-.7-.2-.3-.3-.6-.3-1s.1-.9.4-1.3c.3-.4.7-.7,1.2-.9.5-.2,1.1-.3,1.7-.3s1.2,0,1.7.3c.5.2.9.5,1.2.9s.5.8.6,1.3l-1.2.2c-.1-.5-.3-.9-.8-1.2-.4-.3-1-.5-1.6-.5s-1.1,0-1.5.4c-.4.2-.6.6-.6,1s.1.4.2.6c.1.2.4.3.8.5.4.1.9.3,1.6.5.8.2,1.4.4,1.9.6.5.2.8.5,1,.8s.3.7.3,1.1c0,.8-.3,1.5-.9,1.9-.9.4-1.8.6-2.8.6ZM261.4,134.2c-.6,0-1.2-.1-1.6-.4-.4-.2-.8-.5-1-.9s-.3-.8-.3-1.3.1-.9.3-1.2c.2-.3.5-.6.8-.8s.7-.4,1.1-.5.9-.2,1.4-.3,1.1-.2,1.6-.2c.5-.1,1-.1,1.3-.2l-.4.3c0-.9-.1-1.5-.5-1.9-.3-.4-.9-.6-1.8-.6s-1.1,0-1.5.4-.7.7-.9,1.3l-1.1-.3c.2-.8.6-1.4,1.2-1.8s1.4-.6,2.3-.6,1.5,0,2,.4c.6.3.9.7,1.2,1.3.1.3.2.5.2.8v6.3h-1v-2.2h.3c-.3.8-.7,1.4-1.4,1.8-.6.4-1.3.6-2.2.6ZM261.5,133.2c.5,0,1-.1,1.4-.3s.7-.5,1-.8.4-.7.5-1.2c.1-.3.1-.6.1-.9v-.8l.4.2c-.4.1-.8.1-1.3.2-.5.1-.9.1-1.4.2-.4.1-.9.2-1.2.2-.2.1-.5.2-.7.3s-.4.3-.6.5c-.1.2-.2.5-.2.8s.1.5.2.7.3.4.6.6c.4.2.8.3,1.2.3ZM269.9,134l-3.1-8.6h1.2l2.6,7.1,2.5-7.1h1.2l-3.1,8.6h-1.3ZM275.8,123.7v-1.3h1.2v1.3h-1.2ZM275.8,134v-8.6h1.2v8.6h-1.2ZM285.6,134v-4.4c0-.5,0-.9-.1-1.3-.1-.4-.2-.8-.4-1.1-.2-.3-.5-.5-.8-.7s-.7-.2-1.2-.2-.8,0-1.1.2c-.3,0-.6.4-.8.6-.2.3-.4.6-.5,1-.1.4-.2.8-.2,1.3l-.8-.2c0-.9.2-1.6.5-2.2s.7-1.1,1.3-1.4,1.2-.5,1.9-.5,1,0,1.4.2c.4.2.7.4,1,.6.3.3.5.6.7.9s.3.7.4,1.1c.1.4.1.8.1,1.2v4.8h-1.4ZM279.4,134v-8.6h1.1v2.1h.1v6.5h-1.2ZM292.3,138.1c-.4,0-.9-.1-1.3-.2-.4-.1-.8-.3-1.2-.6-.4-.3-.7-.6-.9-1.1l1.1-.6c.2.5.6.8,1,1s.9.3,1.3.3c.6,0,1.1-.1,1.5-.4.4-.2.7-.6.8-1,.2-.5.3-1,.3-1.7v-2.3h.1v-6.2h1v9.2c0,.2,0,.5-.1.7-.1.6-.3,1.2-.6,1.6-.3.4-.7.7-1.2.9-.5.3-1.1.4-1.8.4ZM292.2,134.2c-.8,0-1.5-.2-2.1-.6-.6-.4-1-1-1.3-1.6-.3-.7-.5-1.5-.5-2.3s.1-1.6.4-2.3.7-1.2,1.3-1.6c.6-.4,1.2-.6,2-.6s1.5.2,2,.6c.6.4,1,.9,1.3,1.6s.4,1.5.4,2.3-.1,1.6-.4,2.3-.7,1.2-1.2,1.6c-.4.4-1.1.6-1.9.6ZM292.4,133.1c.6,0,1.1-.1,1.5-.4s.7-.7.9-1.2c.2-.5.3-1.1.3-1.8s-.1-1.3-.3-1.8c-.2-.5-.5-.9-.9-1.2-.4-.3-.9-.4-1.5-.4s-1.1.2-1.5.5-.7.7-.9,1.2c-.2.5-.3,1.1-.3,1.8s.1,1.2.3,1.8c.2.5.5.9.9,1.2s.8.3,1.5.3ZM301.6,134.2c-1,0-1.8-.2-2.5-.7-.7-.4-1.1-1-1.2-1.8l1.2-.2c.1.5.4.9.9,1.2s1,.4,1.7.4,1.2-.1,1.6-.4c.4-.3.6-.7.6-1.1s-.1-.5-.2-.6c-.1-.2-.4-.3-.7-.5-.4-.1-.9-.3-1.6-.5-.8-.2-1.4-.4-1.8-.6-.4-.2-.8-.5-.9-.7-.2-.3-.3-.6-.3-1s.1-.9.4-1.3.7-.7,1.2-.9c.5-.2,1.1-.3,1.7-.3s1.2,0,1.7.3c.5.2.9.5,1.2.9.3.4.5.8.6,1.3l-1.2.2c-.1-.5-.3-.9-.8-1.2-.4-.3-1-.5-1.6-.5s-1.1,0-1.5.4c-.4.2-.6.6-.6,1s.1.4.2.6.4.3.8.5c.4.1.9.3,1.6.5.8.2,1.4.4,1.9.6.5.2.8.5,1,.8s.3.7.3,1.1c0,.8-.3,1.5-.9,1.9-.9.4-1.8.6-2.8.6ZM312.4,134.2c-.7,0-1.2-.1-1.6-.4-.4-.2-.8-.5-1-.9s-.3-.8-.3-1.3.1-.9.3-1.2c.2-.3.5-.6.8-.8s.7-.4,1.1-.5.9-.2,1.4-.3,1.1-.2,1.6-.2c.5-.1,1-.1,1.3-.2l-.4.3c0-.9-.1-1.5-.5-1.9-.3-.4-.9-.6-1.8-.6s-1.1,0-1.5.4-.7.7-.9,1.3l-1.1-.3c.2-.8.6-1.4,1.2-1.8s1.4-.6,2.3-.6,1.5,0,2,.4c.6.3.9.7,1.2,1.3.1.3.2.5.2.8v6.3h-1v-2.2h.3c-.3.8-.7,1.4-1.4,1.8-.6.4-1.3.6-2.2.6ZM312.6,133.2c.5,0,1-.1,1.4-.3s.7-.5,1-.8.4-.7.5-1.2c.1-.3.1-.6.1-.9v-.8l.4.2c-.4.1-.8.1-1.3.2-.5.1-.9.1-1.4.2-.4.1-.9.2-1.2.2-.2.1-.5.2-.7.3s-.4.3-.6.5c-.1.2-.2.5-.2.8s.1.5.2.7.3.4.6.6.7.3,1.2.3ZM322.4,134.2c-.9,0-1.6-.2-2.2-.6-.6-.4-1.1-.9-1.4-1.6-.3-.7-.5-1.5-.5-2.4s.2-1.7.5-2.4c.3-.7.8-1.2,1.4-1.6s1.3-.6,2.2-.6,1.6.2,2.3.6c.6.4,1.1,1,1.3,1.8l-1.2.4c-.2-.5-.5-.9-1-1.2-.4-.3-.9-.4-1.5-.4s-1.2,0-1.6.4-.7.7-.9,1.2c-.2.5-.3,1.1-.3,1.8,0,1,.2,1.9.7,2.5s1.2.9,2.1.9,1.1-.1,1.5-.4c.4-.3.7-.7.9-1.2l1.2.4c-.3.8-.8,1.4-1.4,1.8-.5.4-1.2.6-2.1.6ZM331.1,134.2c-.9,0-1.6-.2-2.2-.6-.6-.4-1.1-.9-1.4-1.6-.3-.7-.5-1.5-.5-2.4s.2-1.7.5-2.4c.3-.7.8-1.2,1.4-1.6s1.3-.6,2.2-.6,1.6.2,2.3.6c.6.4,1.1,1,1.3,1.8l-1.2.4c-.2-.5-.5-.9-1-1.2-.4-.3-.9-.4-1.5-.4s-1.2,0-1.6.4-.7.7-.9,1.2c-.2.5-.3,1.1-.3,1.8,0,1,.2,1.9.7,2.5s1.2.9,2.1.9,1.1-.1,1.5-.4c.4-.3.7-.7.9-1.2l1.2.4c-.3.8-.8,1.4-1.4,1.8-.5.4-1.3.6-2.1.6ZM339.7,134.2c-.9,0-1.6-.2-2.2-.6-.6-.4-1.1-.9-1.4-1.6-.3-.7-.5-1.5-.5-2.4s.2-1.7.5-2.4c.3-.7.8-1.2,1.4-1.6s1.3-.6,2.2-.6,1.6.2,2.2.6,1.1.9,1.4,1.6.5,1.5.5,2.4-.2,1.7-.5,2.4-.8,1.2-1.4,1.6c-.6.4-1.3.6-2.2.6ZM339.7,133.1c1,0,1.7-.3,2.1-1,.5-.6.7-1.5.7-2.5s-.2-1.9-.7-2.5-1.2-.9-2.1-.9-1.2,0-1.6.4-.7.7-.9,1.2c-.2.5-.3,1.1-.3,1.8,0,1,.2,1.9.7,2.5.5.7,1.2,1,2.1,1ZM348.9,134.2c-.5,0-1-.1-1.4-.2-.4-.2-.7-.4-1-.6-.3-.3-.5-.6-.6-.9-.2-.4-.3-.7-.4-1.1-.1-.4-.1-.8-.1-1.2v-4.8h1.2v4.4c0,.5,0,.9.1,1.3.1.4.2.8.4,1.1.2.3.5.5.8.7s.7.2,1.2.2.8-.1,1.1-.2c.3-.1.6-.3.8-.6.2-.3.4-.6.5-1s.2-.8.2-1.3l.8.2c0,.9-.2,1.6-.5,2.2-.3.6-.7,1.1-1.3,1.4s-1.1.4-1.8.4ZM351.8,134v-2.1h-.1v-6.5h1.2v8.6h-1.1ZM361.3,134v-4.4c0-.5,0-.9-.1-1.3-.1-.4-.2-.8-.4-1.1-.2-.3-.5-.5-.8-.7s-.7-.2-1.2-.2-.8,0-1.1.2c-.3,0-.6.4-.8.6-.2.3-.4.6-.5,1-.1.4-.2.8-.2,1.3l-.8-.2c0-.9.2-1.6.5-2.2s.7-1.1,1.3-1.4c.5-.3,1.2-.5,1.9-.5s1,0,1.4.2c.4.2.7.4,1,.6.3.3.5.6.7.9s.3.7.4,1.1c.1.4.1.8.1,1.2v4.8h-1.4ZM355.1,134v-8.6h1.1v2.1h.1v6.5h-1.2ZM369.3,134c-.5.1-1,.1-1.4.1s-.9-.1-1.3-.3-.6-.5-.8-.8c-.2-.3-.2-.6-.3-1v-9h1.2v8.8c0,.2.1.5.2.6.2.4.5.6.9.6.4.1.9.1,1.6,0v1h-.1ZM363.6,126.4v-1h5.7v1h-5.7ZM373.2,130.9c0-.4,0-.8.1-1.1,0-.3.1-.6.3-1,.2-.3.4-.6.6-.8s.5-.4.7-.6c.3-.2.5-.4.7-.6s.3-.5.4-.7.1-.5.1-.8,0-.5-.1-.7-.2-.4-.3-.6c-.2-.3-.5-.4-.8-.5s-.6,0-1,0-.6,0-.9,0-.5.2-.7.4c-.2.2-.3.4-.4.6s-.1.5-.1.8h-1.2c0-.4.1-.8.3-1.2.2-.4.4-.7.7-1,.3-.3.7-.5,1.1-.6s.8-.2,1.3-.2,1,0,1.5.2c.5.2.9.4,1.2.8.3.3.4.6.6.9.1.3.2.7.2,1.1s-.1.9-.2,1.2c-.2.4-.4.7-.7,1-.2.2-.4.4-.6.6-.2.2-.5.3-.7.5s-.4.4-.5.6c-.1.3-.2.5-.2.7v.9h-1.4ZM373.2,134v-1.6h1.2v1.6h-1.2Z"></path>
  <path class="cls-8" d="M624.7,244.8v-11.5h4.1c.3,0,.6,0,.9.1.9.1,1.6.4,2.2,1,.6.5,1,1.2,1.3,2s.4,1.7.4,2.7,0,1.9-.4,2.7c-.3.8-.7,1.5-1.3,2-.6.5-1.3.9-2.2,1-.3,0-.6.1-.9.1h-4.1ZM625.9,243.7h3c.3,0,.5,0,.7-.1.7-.1,1.2-.4,1.6-.8s.7-1,.9-1.6c.2-.6.3-1.4.3-2.1s0-1.5-.3-2.1c-.2-.6-.5-1.2-.9-1.6s-1-.7-1.6-.8c-.2,0-.4-.1-.7-.1h-3v9.2ZM639,245c-.9,0-1.6-.2-2.2-.6s-1.1-.9-1.4-1.6-.5-1.5-.5-2.4.2-1.7.5-2.4c.3-.7.8-1.2,1.4-1.6s1.3-.6,2.2-.6,1.6.2,2.2.6,1.1.9,1.4,1.6.5,1.5.5,2.4-.2,1.7-.5,2.4c-.3.7-.8,1.2-1.4,1.6-.6.4-1.3.6-2.2.6ZM639,243.9c1,0,1.7-.3,2.1-1,.5-.6.7-1.5.7-2.5s-.2-1.9-.7-2.5-1.2-.9-2.1-.9-1.2.1-1.6.4-.7.7-.9,1.2c-.2.5-.3,1.1-.3,1.8,0,1,.2,1.9.7,2.5.5.7,1.2,1,2.1,1ZM649.3,248.6l1.7-4.5v1.3l-3.8-9.3h1.2l3.1,7.8h-.5l2.9-7.8h1.2l-4.6,12.5h-1.2ZM659.8,245c-.9,0-1.6-.2-2.2-.6s-1.1-.9-1.4-1.6-.5-1.5-.5-2.4.2-1.7.5-2.4c.3-.7.8-1.2,1.4-1.6s1.3-.6,2.2-.6,1.6.2,2.2.6,1.1.9,1.4,1.6.5,1.5.5,2.4-.2,1.7-.5,2.4c-.3.7-.8,1.2-1.4,1.6s-1.3.6-2.2.6ZM659.8,243.9c1,0,1.7-.3,2.1-1,.5-.6.7-1.5.7-2.5s-.2-1.9-.7-2.5-1.2-.9-2.1-.9-1.2.1-1.6.4-.7.7-.9,1.2c-.2.5-.3,1.1-.3,1.8,0,1,.2,1.9.7,2.5.5.7,1.2,1,2.1,1ZM669,245c-.5,0-1-.1-1.4-.2-.4-.2-.7-.4-1-.6-.3-.3-.5-.6-.6-.9-.2-.4-.3-.7-.4-1.1s0-.8,0-1.2v-4.8h1.2v4.4c0,.5,0,.9,0,1.3s.2.8.4,1.1c.2.3.5.5.8.7s.7.2,1.2.2.8-.1,1.1-.2.6-.3.8-.6c.2-.3.4-.6.5-1s.2-.8.2-1.3l.8.2c0,.9-.2,1.6-.5,2.2s-.7,1.1-1.3,1.4c-.5.3-1.1.4-1.8.4ZM671.9,244.8v-2.1h-.1v-6.5h1.2v8.6h-1.1ZM684.6,244.8v-4.4c0-.5,0-.9-.1-1.3s-.2-.8-.4-1.1c-.2-.3-.5-.5-.8-.7s-.7-.2-1.2-.2-.8.1-1.1.2-.6.4-.8.6c-.2.3-.4.6-.5,1s-.2.8-.2,1.3l-.8-.2c0-.9.2-1.6.5-2.2s.7-1.1,1.3-1.4c.5-.3,1.2-.5,1.9-.5s1,.1,1.4.2c.4.2.7.4,1,.6.3.3.5.6.7.9s.3.7.4,1.1c.1.4.1.8.1,1.2v4.8h-1.4,0ZM678.4,244.8v-8.6h1.1v2.1h.1v6.5h-1.2ZM691.5,245c-.8,0-1.6-.2-2.2-.6-.6-.4-1.1-.9-1.4-1.6-.3-.7-.5-1.5-.5-2.4s.2-1.8.5-2.4c.3-.7.8-1.2,1.4-1.6.6-.4,1.3-.6,2.2-.6s1.6.2,2.2.6c.6.4,1.1.9,1.4,1.7.3.7.5,1.6.4,2.6h-1.2v-.4c0-1.1-.3-2-.7-2.5-.5-.6-1.1-.9-2-.9s-1.6.3-2.1.9-.7,1.5-.7,2.6.2,1.9.7,2.5,1.2.9,2.1.9,1.2-.1,1.6-.4c.5-.3.8-.7,1.1-1.2l1.1.4c-.3.8-.8,1.3-1.5,1.8-.8.4-1.6.6-2.4.6ZM688.2,240.8v-1h6.6v1h-6.6ZM700.8,245c-.8,0-1.6-.2-2.2-.6-.6-.4-1.1-.9-1.4-1.6-.3-.7-.5-1.5-.5-2.4s.2-1.8.5-2.4c.3-.7.8-1.2,1.4-1.6.6-.4,1.3-.6,2.2-.6s1.6.2,2.2.6c.6.4,1.1.9,1.4,1.7.3.7.5,1.6.4,2.6h-1.2v-.4c0-1.1-.3-2-.7-2.5-.5-.6-1.1-.9-2-.9s-1.6.3-2.1.9-.7,1.5-.7,2.6.2,1.9.7,2.5,1.2.9,2.1.9,1.2-.1,1.6-.4c.5-.3.8-.7,1.1-1.2l1.1.4c-.3.8-.8,1.3-1.5,1.8-.8.4-1.5.6-2.4.6ZM697.5,240.8v-1h6.6v1h-6.6ZM709.9,245c-.8,0-1.5-.2-2.1-.6s-1-1-1.3-1.6-.5-1.5-.5-2.3.1-1.6.4-2.3c.3-.7.7-1.2,1.3-1.6s1.2-.6,2-.6,1.5.2,2,.6c.6.4,1,.9,1.3,1.6s.4,1.5.4,2.3-.1,1.6-.4,2.3c-.3.7-.7,1.2-1.2,1.6-.4.4-1.1.6-1.9.6ZM710,243.9c.6,0,1.1-.1,1.5-.4s.7-.7.9-1.2.3-1.1.3-1.8-.1-1.3-.3-1.8-.5-.9-.9-1.2c-.4-.3-.9-.4-1.5-.4s-1.1.2-1.5.5-.7.7-.9,1.2-.3,1.1-.3,1.8.1,1.2.3,1.8c.2.5.5.9.9,1.2.4.2.9.3,1.5.3ZM712.7,244.8v-6.5h-.1v-5h1.2v11.5h-1.1ZM721.7,245c-.7,0-1.2-.1-1.6-.4-.4-.2-.8-.5-1-.9s-.3-.8-.3-1.3.1-.9.3-1.2c.2-.3.4-.6.8-.8.3-.2.7-.4,1.1-.5.4-.1.9-.2,1.4-.3.5-.1,1.1-.2,1.6-.2.5-.1,1-.1,1.3-.2l-.4.3c0-.9-.1-1.5-.5-1.9-.3-.4-1-.6-1.8-.6s-1.1.1-1.5.4-.7.7-.9,1.3l-1.1-.3c.2-.8.6-1.4,1.2-1.8.6-.4,1.4-.6,2.3-.6s1.5.1,2,.4c.6.3.9.7,1.2,1.3.1.3.2.5.2.8v6.3h-1v-2.2h.3c-.3.8-.8,1.4-1.4,1.8-.6.4-1.3.6-2.2.6ZM721.8,244c.5,0,1-.1,1.4-.3.4-.2.7-.5,1-.8.2-.3.4-.7.5-1.2.1-.3.1-.6.1-.9v-.8l.4.2c-.4.1-.8.1-1.3.2s-.9.1-1.4.2c-.4.1-.9.2-1.2.2-.2.1-.5.2-.7.3-.2.1-.4.3-.6.5-.1.2-.2.5-.2.8s.1.5.2.7c.1.2.3.4.6.6.4.2.8.3,1.2.3ZM734.9,245c-.9,0-1.6-.2-2.2-.6-.6-.4-1.1-.9-1.4-1.6-.3-.7-.5-1.5-.5-2.4s.2-1.7.5-2.4c.3-.7.8-1.2,1.4-1.6.6-.4,1.3-.6,2.2-.6s1.6.2,2.3.6,1.1,1,1.3,1.8l-1.2.4c-.2-.5-.5-.9-1-1.2-.4-.3-.9-.4-1.5-.4s-1.2.1-1.6.4c-.4.3-.7.7-.9,1.2s-.3,1.1-.3,1.8c0,1,.3,1.9.7,2.5.5.6,1.2.9,2.1.9s1.1-.1,1.5-.4.7-.7.9-1.2l1.2.4c-.3.8-.8,1.4-1.4,1.8-.5.4-1.2.6-2.1.6ZM746.4,244.8v-4.4c0-.5,0-.9-.1-1.3s-.2-.8-.4-1.1c-.2-.3-.5-.5-.8-.7s-.7-.2-1.2-.2-.8.1-1.1.2-.6.4-.8.6c-.2.3-.4.6-.5,1s-.2.8-.2,1.3l-.8-.2c0-.9.2-1.6.5-2.2s.7-1.1,1.3-1.4c.5-.3,1.2-.5,1.9-.5s1,.1,1.4.2c.4.2.7.4,1,.6.3.3.5.6.7.9s.3.7.4,1.1c.1.4.1.8.1,1.2v4.8h-1.4,0ZM740.2,244.8v-11.5h1.1v6.5h.1v5h-1.2ZM753.3,245c-.8,0-1.6-.2-2.2-.6-.6-.4-1.1-.9-1.4-1.6-.3-.7-.5-1.5-.5-2.4s.2-1.8.5-2.4c.3-.7.8-1.2,1.4-1.6.6-.4,1.3-.6,2.2-.6s1.6.2,2.2.6c.6.4,1.1.9,1.4,1.7.3.7.5,1.6.4,2.6h-1.2v-.4c0-1.1-.3-2-.7-2.5-.5-.6-1.1-.9-2-.9s-1.6.3-2.1.9-.7,1.5-.7,2.6.2,1.9.7,2.5,1.2.9,2.1.9,1.2-.1,1.6-.4c.5-.3.8-.7,1.1-1.2l1.1.4c-.3.8-.8,1.3-1.5,1.8-.8.4-1.5.6-2.4.6ZM750,240.8v-1h6.6v1h-6.6ZM762.4,245c-.8,0-1.5-.2-2.1-.6s-1-1-1.3-1.6-.5-1.5-.5-2.3.1-1.6.4-2.3c.3-.7.7-1.2,1.3-1.6s1.2-.6,2-.6,1.5.2,2,.6c.6.4,1,.9,1.3,1.6s.4,1.5.4,2.3-.1,1.6-.4,2.3c-.3.7-.7,1.2-1.2,1.6-.4.4-1.1.6-1.9.6ZM762.5,243.9c.6,0,1.1-.1,1.5-.4s.7-.7.9-1.2.3-1.1.3-1.8-.1-1.3-.3-1.8-.5-.9-.9-1.2c-.4-.3-.9-.4-1.5-.4s-1.1.2-1.5.5-.7.7-.9,1.2-.3,1.1-.3,1.8.1,1.2.3,1.8c.2.5.5.9.9,1.2.4.2.9.3,1.5.3ZM765.1,248.6v-6h.1v-6.5h1.1v12.5h-1.2ZM771.8,245c-.5,0-1-.1-1.4-.2-.4-.2-.7-.4-1-.6-.3-.3-.5-.6-.6-.9-.2-.4-.3-.7-.4-1.1-.1-.4-.1-.8-.1-1.2v-4.8h1.2v4.4c0,.5,0,.9.1,1.3s.2.8.4,1.1c.2.3.5.5.8.7s.7.2,1.2.2.8-.1,1.1-.2.6-.3.8-.6c.2-.3.4-.6.5-1s.2-.8.2-1.3l.8.2c0,.9-.2,1.6-.5,2.2s-.7,1.1-1.3,1.4c-.4.3-1.1.4-1.8.4ZM774.7,244.8v-2.1h-.1v-6.5h1.2v8.6h-1.1ZM781.7,245c-.8,0-1.6-.2-2.2-.6-.6-.4-1.1-.9-1.4-1.6-.3-.7-.5-1.5-.5-2.4s.2-1.8.5-2.4.8-1.2,1.4-1.6c.6-.4,1.3-.6,2.2-.6s1.6.2,2.2.6c.6.4,1.1.9,1.4,1.7.3.7.4,1.6.4,2.6h-1.2v-.4c0-1.1-.3-2-.7-2.5-.5-.6-1.1-.9-2-.9s-1.6.3-2.1.9-.7,1.5-.7,2.6.2,1.9.7,2.5,1.2.9,2.1.9,1.2-.1,1.6-.4c.5-.3.8-.7,1.1-1.2l1.1.4c-.3.8-.8,1.3-1.5,1.8-.8.4-1.6.6-2.4.6ZM778.4,240.8v-1h6.6v1h-6.6ZM791.3,245c-.8,0-1.5-.2-2-.6s-1-1-1.2-1.6c-.3-.7-.4-1.5-.4-2.3s.1-1.7.4-2.3c.3-.7.7-1.2,1.3-1.6s1.2-.6,2-.6,1.5.2,2,.6,1,.9,1.3,1.6.5,1.5.5,2.3-.2,1.6-.5,2.3-.7,1.2-1.3,1.6-1.3.6-2.1.6ZM787.4,244.8v-11.5h1.2v5h-.1v6.5h-1.1ZM791.1,243.9c.6,0,1.1-.2,1.5-.5s.7-.7.9-1.2.3-1.1.3-1.8-.1-1.2-.3-1.8c-.2-.5-.5-.9-.9-1.2-.4-.3-.9-.5-1.5-.5s-1.1.1-1.5.4-.7.7-.9,1.2-.3,1.1-.3,1.8.1,1.3.3,1.8.5.9.9,1.2c.4.5.9.6,1.5.6ZM800.5,245c-.9,0-1.6-.2-2.2-.6s-1.1-.9-1.4-1.6-.5-1.5-.5-2.4.2-1.7.5-2.4c.3-.7.8-1.2,1.4-1.6s1.3-.6,2.2-.6,1.6.2,2.2.6,1.1.9,1.4,1.6.5,1.5.5,2.4-.2,1.7-.5,2.4c-.3.7-.8,1.2-1.4,1.6-.7.4-1.4.6-2.2.6ZM800.5,243.9c1,0,1.7-.3,2.1-1,.5-.6.7-1.5.7-2.5s-.2-1.9-.7-2.5-1.2-.9-2.1-.9-1.2.1-1.6.4-.7.7-.9,1.2c-.2.5-.3,1.1-.3,1.8,0,1,.2,1.9.7,2.5.4.7,1.1,1,2.1,1ZM809.9,245c-.9,0-1.6-.2-2.2-.6s-1.1-.9-1.4-1.6-.5-1.5-.5-2.4.2-1.7.5-2.4c.3-.7.8-1.2,1.4-1.6s1.3-.6,2.2-.6,1.6.2,2.2.6,1.1.9,1.4,1.6.5,1.5.5,2.4-.2,1.7-.5,2.4c-.3.7-.8,1.2-1.4,1.6s-1.3.6-2.2.6ZM809.9,243.9c1,0,1.7-.3,2.1-1,.5-.6.7-1.5.7-2.5s-.2-1.9-.7-2.5-1.2-.9-2.1-.9-1.2.1-1.6.4-.7.7-.9,1.2c-.2.5-.3,1.1-.3,1.8,0,1,.2,1.9.7,2.5.5.7,1.2,1,2.1,1ZM815.8,244.8v-11.5h1.2v7l3.9-4.2h1.6l-4,4.3,4.6,4.3h-1.7l-4.2-4.2v4.2h-1.4ZM829.4,245c-.7,0-1.2-.1-1.6-.4-.4-.2-.8-.5-1-.9s-.3-.8-.3-1.3.1-.9.3-1.2c.2-.3.4-.6.8-.8.3-.2.7-.4,1.1-.5s.9-.2,1.4-.3c.5-.1,1.1-.2,1.6-.2.5-.1,1-.1,1.3-.2l-.4.3c0-.9-.1-1.5-.5-1.9-.3-.4-.9-.6-1.8-.6s-1.1.1-1.5.4-.7.7-.9,1.3l-1.1-.3c.2-.8.6-1.4,1.2-1.8s1.4-.6,2.3-.6,1.5.1,2,.4c.6.3.9.7,1.2,1.3.1.3.2.5.2.8v6.3h-1v-2.2h.3c-.3.8-.8,1.4-1.4,1.8s-1.3.6-2.2.6ZM829.5,244c.5,0,1-.1,1.4-.3.4-.2.7-.5,1-.8.2-.3.4-.7.5-1.2.1-.3.1-.6.1-.9v-.8l.4.2c-.4.1-.8.1-1.3.2s-.9.1-1.4.2c-.4.1-.9.2-1.2.2-.2.1-.5.2-.7.3-.2.1-.4.3-.6.5-.1.2-.2.5-.2.8s.1.5.2.7.3.4.6.6c.4.2.8.3,1.2.3ZM839,245c-1,0-1.8-.2-2.5-.7-.6-.4-1.1-1-1.2-1.8l1.2-.2c.1.5.4.9.9,1.2.5.3,1,.4,1.7.4s1.2-.1,1.6-.4.6-.7.6-1.1-.1-.5-.2-.6c-.1-.2-.4-.3-.7-.5-.4-.1-.9-.3-1.6-.5-.8-.2-1.4-.4-1.8-.6s-.8-.5-.9-.7c-.2-.3-.3-.6-.3-1s.1-.9.4-1.3.7-.7,1.2-.9c.5-.2,1.1-.3,1.7-.3s1.2.1,1.7.3c.5.2.9.5,1.2.9.3.4.5.8.6,1.3l-1.2.2c-.1-.5-.3-.9-.8-1.2-.4-.3-1-.5-1.6-.5s-1.1.1-1.5.4c-.4.2-.6.6-.6,1s.1.4.2.6.4.3.8.5c.4.1.9.3,1.6.5.8.2,1.4.4,1.9.6s.8.5,1,.8.3.7.3,1.1c0,.8-.3,1.5-.9,1.9-.9.4-1.7.6-2.8.6ZM849.3,244.8l-2.6-8.6h1.2l2,6.7,2.1-6.7h1.1l2.1,6.7,2.1-6.7h1.2l-2.6,8.6h-1l-2.2-6.9-2.4,6.9h-1ZM863.1,245c-.8,0-1.6-.2-2.2-.6s-1.1-.9-1.4-1.6-.5-1.5-.5-2.4.2-1.8.5-2.4.8-1.2,1.4-1.6,1.3-.6,2.2-.6,1.6.2,2.2.6,1.1.9,1.4,1.7c.3.7.5,1.6.4,2.6h-1.2v-.4c0-1.1-.3-2-.7-2.5-.5-.6-1.1-.9-2-.9s-1.6.3-2.1.9-.7,1.5-.7,2.6.2,1.9.7,2.5,1.2.9,2.1.9,1.2-.1,1.6-.4c.5-.3.8-.7,1.1-1.2l1.1.4c-.3.8-.8,1.3-1.5,1.8-.9.4-1.6.6-2.4.6ZM859.7,240.8v-1h6.6v1h-6.6ZM868.9,244.8v-11.8h1.2v11.8h-1.2ZM872.7,244.8v-11.8h1.2v11.8h-1.2ZM878.5,241.7c0-.4,0-.8.1-1.1,0-.3.1-.6.3-1,.2-.3.4-.6.6-.8.2-.2.5-.4.7-.6.3-.2.5-.4.7-.6s.3-.5.4-.7.1-.5.1-.8,0-.5-.1-.7-.2-.4-.3-.6c-.2-.3-.5-.4-.8-.5s-.6-.1-1-.1-.6,0-.9.1-.5.2-.7.4c-.2.2-.3.4-.4.6s-.1.5-.1.8h-1.2c0-.4.1-.8.3-1.2.2-.4.4-.7.7-1,.3-.3.7-.5,1.1-.6s.8-.2,1.3-.2,1,.1,1.5.2c.5.2.9.4,1.2.8.3.3.4.6.6.9.1.3.2.7.2,1.1s-.1.9-.2,1.2c-.2.4-.4.7-.7,1l-.6.6c-.2.2-.5.3-.7.5s-.4.4-.5.6c-.1.3-.2.5-.2.7v.9h-1.4ZM878.5,244.8v-1.6h1.2v1.6h-1.2Z"></path>
  <path class="cls-8" d="M85.4,405v-11.5h1.2v5.2h6.4v-5.2h1.2v11.5h-1.2v-5.2h-6.4v5.2h-1.2ZM100,405.2c-.8,0-1.6-.2-2.2-.6s-1.1-.9-1.4-1.6-.5-1.5-.5-2.4.2-1.8.5-2.4.8-1.2,1.4-1.6,1.3-.6,2.2-.6,1.6.2,2.2.6,1.1.9,1.4,1.7c.3.7.5,1.6.4,2.6h-1.2v-.4c0-1.1-.3-2-.7-2.5-.5-.6-1.1-.9-2-.9s-1.6.3-2.1.9-.7,1.5-.7,2.6.2,1.9.7,2.5,1.2.9,2.1.9,1.2-.1,1.6-.4c.5-.3.8-.7,1.1-1.2l1.1.4c-.3.8-.8,1.3-1.5,1.8-.8.4-1.6.6-2.4.6ZM96.7,401v-1h6.6v1h-6.6ZM105.7,405v-8.6h1.1v2.1l-.2-.3c0-.3.2-.5.4-.7.2-.2.3-.4.5-.5.2-.2.5-.3.8-.4s.6-.2.9-.2.6,0,.8.1v1.1c-.3-.1-.7-.1-1-.1s-.7.2-1,.4c-.3.2-.5.5-.6.8s-.2.6-.3,1c0,.3,0,.7,0,1v4.3h-1.3ZM114.9,405.2c-.8,0-1.6-.2-2.2-.6s-1.1-.9-1.4-1.6-.5-1.5-.5-2.4.2-1.8.5-2.4.8-1.2,1.4-1.6,1.3-.6,2.2-.6,1.6.2,2.2.6,1.1.9,1.4,1.7.5,1.6.4,2.6h-1.2v-.4c0-1.1-.3-2-.7-2.5-.5-.6-1.1-.9-2-.9s-1.6.3-2.1.9-.7,1.5-.7,2.6.2,1.9.7,2.5,1.2.9,2.1.9,1.2-.1,1.6-.4c.5-.3.8-.7,1.1-1.2l1.1.4c-.3.8-.8,1.3-1.5,1.8-.8.4-1.5.6-2.4.6ZM111.6,401v-1h6.6v1h-6.6ZM120.6,396.8v-.6c.3,0,.5,0,.6-.1s.2-.2.2-.4v-.6h-.7v-1.7h1.4v2c0,.5,0,.9-.4,1.1-.3.3-.6.4-1.1.3ZM126.1,405.2c-1,0-1.8-.2-2.5-.7-.7-.4-1.1-1-1.2-1.8l1.2-.2c0,.5.4.9.9,1.2.5.3,1,.4,1.7.4s1.2-.1,1.6-.4.6-.7.6-1.1-.1-.5-.2-.6c-.1-.2-.4-.3-.7-.5-.4-.1-.9-.3-1.6-.5-.8-.2-1.4-.4-1.8-.6s-.8-.5-.9-.7c-.2-.3-.3-.6-.3-1s0-.9.4-1.3.7-.7,1.2-.9c.5-.2,1.1-.3,1.7-.3s1.2.1,1.7.3c.5.2.9.5,1.2.9s.5.8.6,1.3l-1.2.2c-.1-.5-.3-.9-.8-1.2-.4-.3-1-.5-1.6-.5s-1.1.1-1.5.4c-.4.2-.6.6-.6,1s0,.4.2.6.4.3.8.5c.4.1.9.3,1.6.5.8.2,1.4.4,1.9.6s.8.5,1,.8.3.7.3,1.1c0,.8-.3,1.5-.9,1.9-.9.4-1.7.6-2.8.6ZM137,405.2c-.7,0-1.2-.1-1.6-.4-.4-.2-.8-.5-1-.9s-.3-.8-.3-1.3.1-.9.3-1.2c.2-.3.5-.6.8-.8.3-.2.7-.4,1.1-.5.4-.1.9-.2,1.4-.3.5-.1,1.1-.2,1.6-.2.5-.1,1-.1,1.3-.2l-.4.3c0-.9-.1-1.5-.5-1.9-.3-.4-.9-.6-1.8-.6s-1.1.1-1.5.4-.7.7-.9,1.3l-1.1-.3c.2-.8.6-1.4,1.2-1.8.6-.4,1.4-.6,2.3-.6s1.5.1,2,.4c.6.3.9.7,1.2,1.3.1.3.2.5.2.8v6.3h-1v-2.2h.3c-.3.8-.7,1.4-1.4,1.8-.6.4-1.3.6-2.2.6ZM137.1,404.2c.5,0,1-.1,1.4-.3.4-.2.7-.5,1-.8s.4-.7.5-1.2c.1-.3.1-.6.1-.9v-.8l.4.2c-.4.1-.8.1-1.3.2s-.9.1-1.4.2c-.4.1-.9.2-1.2.2-.2.1-.5.2-.7.3-.2.1-.4.3-.6.5-.1.2-.2.5-.2.8s.1.5.2.7c.1.2.3.4.6.6.4.2.8.3,1.2.3ZM149.6,405v-4.4c0-.5,0-.9-.1-1.3s-.2-.8-.4-1.1c-.2-.3-.5-.5-.8-.7s-.7-.2-1.2-.2-.8.1-1.1.2-.6.4-.8.6c-.2.3-.4.6-.5,1s-.2.8-.2,1.3l-.8-.2c0-.9.2-1.6.5-2.2s.7-1.1,1.3-1.4c.5-.3,1.2-.5,1.9-.5s1,.1,1.4.2c.4.2.7.4,1,.6.3.3.5.6.7.9s.3.7.4,1.1c.1.4.1.8.1,1.2v4.8h-1.4,0ZM143.4,405v-8.6h1.1v2.1h.1v6.5h-1.2ZM158.6,405.2c-.6,0-1.2-.1-1.6-.4-.4-.2-.8-.5-1-.9s-.3-.8-.3-1.3.1-.9.3-1.2c.2-.3.5-.6.8-.8.3-.2.7-.4,1.1-.5.4-.1.9-.2,1.4-.3.5-.1,1.1-.2,1.6-.2.5-.1,1-.1,1.3-.2l-.4.3c0-.9-.1-1.5-.5-1.9-.3-.4-.9-.6-1.8-.6s-1.1.1-1.5.4-.7.7-.9,1.3l-1.1-.3c.2-.8.6-1.4,1.2-1.8.6-.4,1.4-.6,2.3-.6s1.5.1,2,.4c.6.3.9.7,1.2,1.3.1.3.2.5.2.8v6.3h-1v-2.2h.3c-.3.8-.7,1.4-1.4,1.8-.6.4-1.4.6-2.2.6ZM158.7,404.2c.6,0,1-.1,1.4-.3.4-.2.7-.5,1-.8s.4-.7.5-1.2c.1-.3.1-.6.1-.9v-.8l.4.2c-.4.1-.8.1-1.3.2s-.9.1-1.4.2c-.4.1-.9.2-1.2.2-.2.1-.5.2-.7.3-.2.1-.4.3-.6.5-.1.2-.2.5-.2.8s.1.5.2.7c.1.2.3.4.6.6.4.2.8.3,1.2.3ZM168.6,405.2c-.9,0-1.6-.2-2.2-.6-.6-.4-1.1-.9-1.4-1.6-.3-.7-.5-1.5-.5-2.4s.2-1.7.5-2.4c.3-.7.8-1.2,1.4-1.6.6-.4,1.3-.6,2.2-.6s1.6.2,2.3.6c.6.4,1.1,1,1.3,1.8l-1.2.4c-.2-.5-.5-.9-1-1.2-.4-.3-.9-.4-1.5-.4s-1.2.1-1.6.4c-.4.3-.7.7-.9,1.2s-.3,1.1-.3,1.8c0,1,.2,1.9.7,2.5s1.2.9,2.1.9,1.1-.1,1.5-.4.7-.7.9-1.2l1.2.4c-.3.8-.8,1.4-1.4,1.8-.5.4-1.3.6-2.1.6ZM177.2,405.2c-.9,0-1.6-.2-2.2-.6-.6-.4-1.1-.9-1.4-1.6-.3-.7-.5-1.5-.5-2.4s.2-1.7.5-2.4c.3-.7.8-1.2,1.4-1.6.6-.4,1.3-.6,2.2-.6s1.6.2,2.3.6c.6.4,1.1,1,1.3,1.8l-1.2.4c-.2-.5-.5-.9-1-1.2-.4-.3-.9-.4-1.5-.4s-1.2.1-1.6.4c-.4.3-.7.7-.9,1.2s-.3,1.1-.3,1.8c0,1,.2,1.9.7,2.5s1.2.9,2.1.9,1.1-.1,1.5-.4.7-.7.9-1.2l1.2.4c-.3.8-.8,1.4-1.4,1.8-.5.4-1.2.6-2.1.6ZM185.9,405.2c-.9,0-1.6-.2-2.2-.6s-1.1-.9-1.4-1.6c-.3-.7-.5-1.5-.5-2.4s.2-1.7.5-2.4c.3-.7.8-1.2,1.4-1.6.6-.4,1.3-.6,2.2-.6s1.6.2,2.2.6c.6.4,1.1.9,1.4,1.6.3.7.5,1.5.5,2.4s-.2,1.7-.5,2.4c-.3.7-.8,1.2-1.4,1.6-.7.4-1.4.6-2.2.6ZM185.9,404.1c1,0,1.7-.3,2.1-1,.5-.6.7-1.5.7-2.5s-.2-1.9-.7-2.5-1.2-.9-2.1-.9-1.2.1-1.6.4c-.4.3-.7.7-.9,1.2s-.3,1.1-.3,1.8c0,1,.2,1.9.7,2.5.4.7,1.1,1,2.1,1ZM195,405.2c-.5,0-1-.1-1.4-.2-.4-.2-.7-.4-1-.6-.3-.3-.5-.6-.6-.9-.2-.4-.3-.7-.4-1.1-.1-.4-.1-.8-.1-1.2v-4.8h1.2v4.4c0,.5,0,.9.1,1.3s.2.8.4,1.1c.2.3.5.5.8.7s.7.2,1.2.2.8-.1,1.1-.2.6-.3.8-.6c.2-.3.4-.6.5-1s.2-.8.2-1.3l.8.2c0,.9-.2,1.6-.5,2.2s-.7,1.1-1.3,1.4c-.4.3-1.1.4-1.8.4ZM197.9,405v-2.1h-.1v-6.5h1.2v8.6h-1.1ZM207.5,405v-4.4c0-.5,0-.9-.1-1.3s-.2-.8-.4-1.1c-.2-.3-.5-.5-.8-.7s-.7-.2-1.2-.2-.8.1-1.1.2-.6.4-.8.6c-.2.3-.4.6-.5,1s-.2.8-.2,1.3l-.8-.2c0-.9.2-1.6.5-2.2s.7-1.1,1.3-1.4c.5-.3,1.2-.5,1.9-.5s1,.1,1.4.2c.4.2.7.4,1,.6.3.3.5.6.7.9s.3.7.4,1.1c.1.4.1.8.1,1.2v4.8h-1.4,0ZM201.2,405v-8.6h1.1v2.1h.1v6.5h-1.2ZM215.4,405c-.5.1-1,.1-1.4.1s-.9-.1-1.3-.3c-.4-.2-.6-.5-.8-.8s-.2-.6-.3-1v-9h1.2v8.8c0,.2.1.5.2.6.2.4.5.6.9.6.4.1.9.1,1.6,0v1h0ZM209.8,397.4v-1h5.7v1h-5.7ZM223.6,405.2c-1,0-1.8-.2-2.5-.7-.7-.4-1.1-1-1.2-1.8l1.2-.2c.1.5.4.9.9,1.2.5.3,1,.4,1.7.4s1.2-.1,1.6-.4c.4-.3.6-.7.6-1.1s-.1-.5-.2-.6c-.1-.2-.4-.3-.7-.5-.4-.1-.9-.3-1.6-.5-.8-.2-1.4-.4-1.8-.6-.4-.2-.8-.5-.9-.7-.2-.3-.3-.6-.3-1s.1-.9.4-1.3c.3-.4.7-.7,1.2-.9.5-.2,1.1-.3,1.7-.3s1.2.1,1.7.3c.5.2.9.5,1.2.9s.5.8.6,1.3l-1.2.2c-.1-.5-.3-.9-.8-1.2-.4-.3-1-.5-1.6-.5s-1.1.1-1.5.4c-.4.2-.6.6-.6,1s.1.4.2.6c.1.2.4.3.8.5.4.1.9.3,1.6.5.8.2,1.4.4,1.9.6s.8.5,1,.8.3.7.3,1.1c0,.8-.3,1.5-.9,1.9-1,.4-1.8.6-2.8.6ZM232,405.2c-.5,0-1-.1-1.4-.2-.4-.2-.7-.4-1-.6-.3-.3-.5-.6-.6-.9-.2-.4-.3-.7-.4-1.1-.1-.4-.1-.8-.1-1.2v-4.8h1.2v4.4c0,.5,0,.9.1,1.3s.2.8.4,1.1c.2.3.5.5.8.7s.7.2,1.2.2.8-.1,1.1-.2.6-.3.8-.6c.2-.3.4-.6.5-1s.2-.8.2-1.3l.8.2c0,.9-.2,1.6-.5,2.2s-.7,1.1-1.3,1.4c-.4.3-1.1.4-1.8.4ZM234.9,405v-2.1h-.1v-6.5h1.2v8.6h-1.1ZM238.4,394.7v-1.3h1.2v1.3h-1.2ZM238.4,405v-8.6h1.2v8.6h-1.2ZM246.7,405c-.5.1-1,.1-1.4.1s-.9-.1-1.3-.3c-.4-.2-.6-.5-.8-.8s-.2-.6-.3-1v-9h1.2v8.8c0,.2.1.5.2.6.2.4.5.6.9.6.4.1.9.1,1.6,0v1h0ZM241,397.4v-1h5.7v1h-5.7ZM250.9,405.2c-.7,0-1.2-.1-1.6-.4-.4-.2-.8-.5-1-.9s-.3-.8-.3-1.3.1-.9.3-1.2c.2-.3.5-.6.8-.8.3-.2.7-.4,1.1-.5.4-.1.9-.2,1.4-.3.5-.1,1.1-.2,1.6-.2.5-.1,1-.1,1.3-.2l-.4.3c0-.9-.1-1.5-.5-1.9-.3-.4-.9-.6-1.8-.6s-1.1.1-1.5.4-.7.7-.9,1.3l-1.1-.3c.2-.8.6-1.4,1.2-1.8.6-.4,1.4-.6,2.3-.6s1.5.1,2,.4c.6.3.9.7,1.2,1.3.1.3.2.5.2.8v6.3h-1v-2.2h.3c-.3.8-.8,1.4-1.4,1.8-.6.4-1.4.6-2.2.6ZM251,404.2c.5,0,1-.1,1.4-.3.4-.2.7-.5,1-.8.2-.3.4-.7.5-1.2.1-.3.1-.6.1-.9v-.8l.4.2c-.4.1-.8.1-1.3.2s-.9.1-1.4.2c-.4.1-.9.2-1.2.2-.2.1-.5.2-.7.3-.2.1-.4.3-.6.5-.1.2-.2.5-.2.8s.1.5.2.7c.1.2.3.4.6.6.3.2.7.3,1.2.3ZM261.1,405.2c-.8,0-1.5-.2-2-.6s-1-1-1.2-1.6c-.3-.7-.4-1.5-.4-2.3s.1-1.7.4-2.3c.3-.7.7-1.2,1.3-1.6.6-.4,1.2-.6,2-.6s1.5.2,2,.6c.6.4,1,.9,1.3,1.6s.5,1.5.5,2.3-.2,1.6-.5,2.3c-.3.7-.7,1.2-1.3,1.6s-1.2.6-2.1.6ZM257.3,405v-11.5h1.2v5h-.1v6.5h-1.1ZM261,404.1c.6,0,1.1-.2,1.5-.5s.7-.7.9-1.2c.2-.5.3-1.1.3-1.8s-.1-1.2-.3-1.8c-.2-.5-.5-.9-.9-1.2-.4-.3-.9-.5-1.5-.5s-1.1.1-1.5.4-.7.7-.9,1.2c-.2.5-.3,1.1-.3,1.8s.1,1.3.3,1.8c.2.5.5.9.9,1.2.4.5.9.6,1.5.6ZM266.9,405v-11.8h1.2v11.8h-1.2ZM274.1,405.2c-.8,0-1.6-.2-2.2-.6s-1.1-.9-1.4-1.6-.5-1.5-.5-2.4.2-1.8.5-2.4.8-1.2,1.4-1.6,1.3-.6,2.2-.6,1.6.2,2.2.6,1.1.9,1.4,1.7c.3.7.5,1.6.4,2.6h-1.2v-.4c0-1.1-.3-2-.7-2.5-.5-.6-1.1-.9-2-.9s-1.6.3-2.1.9-.7,1.5-.7,2.6.2,1.9.7,2.5,1.2.9,2.1.9,1.2-.1,1.6-.4c.5-.3.8-.7,1.1-1.2l1.1.4c-.3.8-.8,1.3-1.5,1.8-.8.4-1.5.6-2.4.6ZM270.8,401v-1h6.6v1h-6.6ZM283.9,405v-10c0-.2.1-.4.2-.6s.2-.4.4-.6c.2-.2.4-.3.6-.4s.4-.1.6-.2h1.8v1h-1c-.4,0-.8.1-1,.3-.2.2-.3.6-.3,1v9.4h-1.3ZM282.4,397.4v-1h5v1h-5ZM292,405.2c-.9,0-1.6-.2-2.2-.6s-1.1-.9-1.4-1.6-.5-1.5-.5-2.4.2-1.7.5-2.4c.3-.7.8-1.2,1.4-1.6s1.3-.6,2.2-.6,1.6.2,2.2.6,1.1.9,1.4,1.6.5,1.5.5,2.4-.2,1.7-.5,2.4c-.3.7-.8,1.2-1.4,1.6s-1.3.6-2.2.6ZM292,404.1c1,0,1.7-.3,2.1-1,.5-.6.7-1.5.7-2.5s-.2-1.9-.7-2.5-1.2-.9-2.1-.9-1.2.1-1.6.4-.7.7-.9,1.2c-.2.5-.3,1.1-.3,1.8,0,1,.2,1.9.7,2.5.5.7,1.2,1,2.1,1ZM297.9,405v-8.6h1.1v2.1l-.2-.3c.1-.3.2-.5.4-.7.2-.2.3-.4.5-.5.2-.2.5-.3.8-.4s.6-.2.9-.2.6,0,.8.1v1.1c-.3-.1-.7-.1-1-.1s-.7.2-1,.4c-.3.2-.5.5-.6.8s-.2.6-.3,1c0,.3-.1.7-.1,1v4.3h-1.3ZM308.1,408.8l1.7-4.5v1.3l-3.8-9.3h1.2l3.1,7.8h-.5l2.9-7.8h1.2l-4.6,12.5h-1.2ZM318.6,405.2c-.9,0-1.6-.2-2.2-.6s-1.1-.9-1.4-1.6-.5-1.5-.5-2.4.2-1.7.5-2.4c.3-.7.8-1.2,1.4-1.6s1.3-.6,2.2-.6,1.6.2,2.2.6,1.1.9,1.4,1.6.5,1.5.5,2.4-.2,1.7-.5,2.4c-.3.7-.8,1.2-1.4,1.6s-1.4.6-2.2.6ZM318.6,404.1c1,0,1.7-.3,2.1-1,.5-.6.7-1.5.7-2.5s-.2-1.9-.7-2.5-1.2-.9-2.1-.9-1.2.1-1.6.4-.7.7-.9,1.2c-.2.5-.3,1.1-.3,1.8,0,1,.2,1.9.7,2.5.4.7,1.1,1,2.1,1ZM327.7,405.2c-.5,0-1-.1-1.4-.2-.4-.2-.7-.4-1-.6-.3-.3-.5-.6-.6-.9-.2-.4-.3-.7-.4-1.1s-.1-.8-.1-1.2v-4.8h1.2v4.4c0,.5,0,.9.1,1.3s.2.8.4,1.1c.2.3.5.5.8.7s.7.2,1.2.2.8-.1,1.1-.2c.3-.1.6-.3.8-.6.2-.3.4-.6.5-1s.2-.8.2-1.3l.8.2c0,.9-.2,1.6-.5,2.2s-.7,1.1-1.3,1.4c-.4.3-1.1.4-1.8.4ZM330.6,405v-2.1h-.1v-6.5h1.2v8.6h-1.1ZM333.9,405v-8.6h1.1v2.1l-.2-.3c.1-.3.2-.5.4-.7.2-.2.3-.4.5-.5.2-.2.5-.3.8-.4s.6-.2.9-.2.6,0,.8.1v1.1c-.3-.1-.7-.1-1-.1s-.7.2-1,.4c-.3.2-.5.5-.6.8s-.2.6-.3,1c0,.3-.1.7-.1,1v4.3h-1.3ZM349.1,405v-4.4c0-.5,0-.9-.1-1.3s-.2-.8-.4-1.1c-.2-.3-.5-.5-.8-.7s-.7-.2-1.2-.2-.8.1-1.1.2c-.3.1-.6.4-.8.6-.2.3-.4.6-.5,1s-.2.8-.2,1.3l-.8-.2c0-.9.2-1.6.5-2.2s.7-1.1,1.3-1.4c.5-.3,1.2-.5,1.9-.5s1,.1,1.4.2c.4.2.7.4,1,.6.3.3.5.6.7.9s.3.7.4,1.1.1.8.1,1.2v4.8h-1.4ZM342.9,405v-8.6h1.1v2.1h.1v6.5h-1.2ZM356,405.2c-.8,0-1.6-.2-2.2-.6s-1.1-.9-1.4-1.6-.5-1.5-.5-2.4.2-1.8.5-2.4.8-1.2,1.4-1.6,1.3-.6,2.2-.6,1.6.2,2.2.6,1.1.9,1.4,1.7.5,1.6.4,2.6h-1.2v-.4c0-1.1-.3-2-.7-2.5-.5-.6-1.1-.9-2-.9s-1.6.3-2.1.9-.7,1.5-.7,2.6.2,1.9.7,2.5,1.2.9,2.1.9,1.2-.1,1.6-.4c.5-.3.8-.7,1.1-1.2l1.1.4c-.3.8-.8,1.3-1.5,1.8-.8.4-1.6.6-2.4.6ZM352.7,401v-1h6.6v1h-6.6ZM365.3,405.2c-.8,0-1.6-.2-2.2-.6s-1.1-.9-1.4-1.6-.5-1.5-.5-2.4.2-1.8.5-2.4.8-1.2,1.4-1.6,1.3-.6,2.2-.6,1.6.2,2.2.6,1.1.9,1.4,1.7c.3.7.5,1.6.4,2.6h-1.2v-.4c0-1.1-.3-2-.7-2.5-.5-.6-1.1-.9-2-.9s-1.6.3-2.1.9-.7,1.5-.7,2.6.2,1.9.7,2.5,1.2.9,2.1.9,1.2-.1,1.6-.4c.5-.3.8-.7,1.1-1.2l1.1.4c-.3.8-.8,1.3-1.5,1.8-.8.4-1.5.6-2.4.6ZM362,401v-1h6.6v1h-6.6ZM374.4,405.2c-.8,0-1.5-.2-2.1-.6s-1-1-1.3-1.6c-.3-.7-.5-1.5-.5-2.3s.1-1.6.4-2.3c.3-.7.7-1.2,1.3-1.6.6-.4,1.2-.6,2-.6s1.5.2,2,.6c.6.4,1,.9,1.3,1.6s.4,1.5.4,2.3-.1,1.6-.4,2.3c-.3.7-.7,1.2-1.2,1.6-.4.4-1.1.6-1.9.6ZM374.5,404.1c.6,0,1.1-.1,1.5-.4s.7-.7.9-1.2c.2-.5.3-1.1.3-1.8s-.1-1.3-.3-1.8c-.2-.5-.5-.9-.9-1.2-.4-.3-.9-.4-1.5-.4s-1.1.2-1.5.5-.7.7-.9,1.2c-.2.5-.3,1.1-.3,1.8s.1,1.2.3,1.8c.2.5.5.9.9,1.2.4.2.9.3,1.5.3ZM377.2,405v-6.5h-.1v-5h1.2v11.5h-1.1ZM383.8,405.2c-1,0-1.8-.2-2.5-.7-.7-.4-1.1-1-1.2-1.8l1.2-.2c.1.5.4.9.9,1.2.5.3,1,.4,1.7.4s1.2-.1,1.6-.4.6-.7.6-1.1-.1-.5-.2-.6c-.1-.2-.4-.3-.7-.5s-.9-.3-1.6-.5c-.8-.2-1.4-.4-1.8-.6s-.8-.5-.9-.7c-.2-.3-.3-.6-.3-1s.1-.9.4-1.3.7-.7,1.2-.9c.5-.2,1.1-.3,1.7-.3s1.2.1,1.7.3c.5.2.9.5,1.2.9s.5.8.6,1.3l-1.2.2c-.1-.5-.3-.9-.8-1.2-.4-.3-1-.5-1.6-.5s-1.1.1-1.5.4c-.4.2-.6.6-.6,1s.1.4.2.6.4.3.8.5c.4.1.9.3,1.6.5.8.2,1.4.4,1.9.6s.8.5,1,.8.3.7.3,1.1c0,.8-.3,1.5-.9,1.9-.9.4-1.8.6-2.8.6Z"></path>
  <path class="cls-8" d="M104.4,536v-13h5.9c.2,0,.4,0,.5,0,.8,0,1.4.4,1.9.7.5.4.9.9,1.1,1.5s.4,1.2.4,1.9,0,1.4-.4,1.9c-.2.6-.6,1.1-1.1,1.4-.5.4-1.1.6-1.8.7-.2,0-.4,0-.6,0h-3.7v4.5h-2.2s0,.2,0,.2ZM106.6,529.4h3.5c.2,0,.3,0,.4,0,.4,0,.6-.2.8-.5.2-.2.4-.5.4-.8,0-.3,0-.6,0-.8s0-.6,0-.8c0-.3-.2-.6-.4-.8-.2-.2-.5-.4-.8-.5,0,0-.3,0-.4,0h-3.5v4.4ZM120.2,536.3c-1,0-1.8-.2-2.6-.6-.7-.4-1.3-1-1.7-1.8-.4-.8-.6-1.6-.6-2.6s.2-2,.6-2.8,1-1.4,1.7-1.8,1.6-.6,2.5-.6,1.9.2,2.6.7,1.2,1.1,1.6,2c.3.9.5,1.9.4,3h-2.2v-.8c0-1.1-.2-1.8-.6-2.3s-.9-.7-1.7-.7-1.5.3-2,.8c-.4.5-.6,1.3-.6,2.4s.2,1.7.6,2.3c.4.5,1.1.8,1.9.8s1,0,1.4-.4c.4-.2.7-.6.9-1l2.1.6c-.4.9-.9,1.6-1.7,2-.8.5-1.7.8-2.6.8ZM116.9,531.7v-1.6h6.7v1.6h-6.7ZM126.6,536v-9.7h1.9v2.4l-.2-.3c.1-.3.3-.6.5-.9.2-.3.4-.5.7-.7.2-.2.5-.3.8-.4.3,0,.6-.2.9-.2h.9v2c-.3,0-.6,0-1,0s-.7,0-1,.3-.5.4-.7.6c-.2.3-.3.5-.4.9-.1.3-.1.7-.1,1v4.9h-2.3s0,.2,0,.2ZM137.2,536.3c-1.2,0-2.2-.3-2.9-.8-.8-.5-1.2-1.3-1.4-2.3l2.2-.3c.1.5.4.9.8,1.1s.9.4,1.5.4.9,0,1.2-.3.4-.5.4-.9-.1-.4-.2-.5c-.1,0-.3-.3-.7-.4-.4,0-.9-.3-1.6-.5-.8-.2-1.5-.4-1.9-.7-.5-.3-.8-.5-1-.9-.2-.3-.3-.8-.3-1.2,0-.6.2-1.1.5-1.6s.8-.8,1.3-1c.6-.2,1.2-.4,2-.4s1.4,0,2,.4c.6.2,1.1.6,1.4,1s.6.9.7,1.5l-2.2.4c-.1-.4-.2-.7-.6-1-.3-.2-.7-.4-1.3-.4s-.9,0-1.2.2-.5.4-.5.8.1.3.2.5c.1,0,.4.3.8.4.4,0,1,.3,1.7.5.8.2,1.4.4,1.9.7s.8.6,1,.9c.2.4.3.8.3,1.3,0,1-.4,1.7-1.1,2.3-.8.5-1.7.8-3,.8ZM147.5,536.3c-1,0-1.8-.2-2.5-.7-.7-.4-1.3-1-1.7-1.8s-.6-1.7-.6-2.7.2-1.9.6-2.7c.4-.8,1-1.4,1.7-1.8s1.6-.6,2.5-.6,1.8.2,2.6.7,1.3,1,1.7,1.8.6,1.7.6,2.7-.2,1.9-.6,2.7c-.4.8-1,1.4-1.7,1.8-.8.4-1.6.6-2.6.6ZM147.5,534.2c.9,0,1.5-.3,1.9-.9s.6-1.3.6-2.2-.2-1.7-.6-2.2c-.4-.6-1.1-.8-1.9-.8s-1.1,0-1.4.4c-.4.3-.6.6-.8,1.1s-.3,1-.3,1.6c0,.9.2,1.7.6,2.3.4.5,1,.7,1.9.7ZM161,536v-4.7c0-.3,0-.6-.1-1,0-.4-.1-.7-.3-1.1-.1-.3-.4-.6-.7-.9-.3-.2-.7-.3-1.2-.3s-.5,0-.8,0-.5.2-.7.5c-.2.2-.4.5-.5.9s-.2.9-.2,1.5l-1.3-.5c0-.8.2-1.6.5-2.2.3-.7.8-1.2,1.4-1.6.6-.4,1.4-.6,2.3-.6s1.3,0,1.8.4c.5.2.8.5,1.1.9s.5.8.6,1.2l.3,1.2c0,.4.1.7.1.9v5.4h-2.3ZM154.3,536v-9.7h1.9v3h.3v6.7h-2.2ZM168.3,536.3c-.7,0-1.3,0-1.8-.4-.5-.3-.9-.6-1.1-1.1-.2-.4-.4-.9-.4-1.5s.1-.9.2-1.3c.2-.4.4-.7.7-1s.7-.5,1.3-.7c.4,0,.8-.2,1.4-.3.5,0,1.1-.2,1.7-.3.6,0,1.3-.2,1.9-.3l-.8.4c0-.7-.1-1.2-.4-1.5s-.8-.5-1.5-.5-.9,0-1.3.3-.7.6-.9,1.1l-2-.6c.2-.8.7-1.5,1.4-2s1.6-.7,2.7-.7,1.6,0,2.3.4c.7.3,1.1.7,1.5,1.4.2.3.3.7.3,1.1s.1.7.1,1.2v6h-1.9v-2.1l.3.3c-.4.7-1,1.2-1.5,1.5-.6.4-1.3.6-2.2.6ZM168.7,534.5c.5,0,.9,0,1.3-.3.3-.2.6-.4.8-.6.2-.3.4-.5.4-.7.1-.3.2-.6.2-.9v-.9l.7.2c-.7,0-1.2.2-1.7.3s-.9.2-1.2.2c-.3,0-.6,0-.9.2-.3,0-.5.2-.6.3-.2,0-.3.3-.4.4-.1.2-.1.3-.1.5s.1.5.2.6c.1.2.3.3.5.4.2.3.5.3.8.3ZM176.1,536v-13.2h2.2v13.2h-2.2ZM190.1,536.3c-1.3,0-2.4-.3-3.3-.8-.9-.6-1.6-1.4-2.1-2.4s-.7-2.2-.7-3.5.2-2.5.7-3.5,1.2-1.8,2.1-2.4c.9-.6,2-.9,3.3-.9s2.7.4,3.7,1.1c1,.7,1.7,1.7,2.1,3l-2.2.6c-.3-.8-.7-1.5-1.3-2s-1.4-.7-2.4-.7-1.6.2-2.2.6c-.6.4-1,.9-1.3,1.6-.3.7-.4,1.5-.4,2.5s.1,1.8.4,2.5c.3.7.7,1.2,1.3,1.6.6.4,1.3.6,2.2.6s1.8-.2,2.4-.7c.6-.5,1-1.1,1.3-2l2.2.6c-.4,1.3-1.1,2.3-2.1,3-1,.8-2.2,1.2-3.7,1.2ZM204.6,536v-4.7c0-.3,0-.6-.1-1,0-.4-.1-.7-.3-1.1-.1-.3-.4-.6-.7-.9-.3-.2-.7-.3-1.2-.3s-.5,0-.8,0-.5.2-.7.5c-.2.2-.4.5-.5.9s-.2.9-.2,1.5l-1.3-.5c0-.8.2-1.6.5-2.2.3-.7.8-1.2,1.4-1.6.6-.4,1.4-.6,2.3-.6s1.3,0,1.8.4c.5.2.8.5,1.1.9s.5.8.6,1.2l.3,1.2c0,.4.1.7.1.9v5.4h-2.3ZM197.9,536v-13h1.9v6.8h.3v6.1h-2.2ZM213.6,536.3c-1,0-1.8-.2-2.6-.6-.7-.4-1.3-1-1.7-1.8s-.6-1.6-.6-2.6.2-2,.6-2.8c.4-.8,1-1.4,1.7-1.8s1.6-.6,2.5-.6,1.9.2,2.6.7c.7.5,1.2,1.1,1.6,2,.3.9.5,1.9.4,3h-2.2v-.8c0-1.1-.2-1.8-.6-2.3s-.9-.7-1.7-.7-1.5.3-2,.8c-.4.5-.6,1.3-.6,2.4s.2,1.7.6,2.3c.4.5,1.1.8,1.9.8s1,0,1.4-.4c.4-.2.7-.6.9-1l2.1.6c-.4.9-.9,1.6-1.7,2-.8.5-1.7.8-2.6.8ZM210.2,531.7v-1.6h6.7v1.6h-6.7ZM224.2,536.3c-1,0-1.9-.2-2.6-.7-.7-.5-1.3-1.1-1.6-1.8-.4-.8-.6-1.7-.6-2.6s.2-1.9.6-2.6c.4-.8.9-1.4,1.7-1.8.7-.4,1.6-.7,2.5-.7s2,.3,2.8.8c.8.6,1.3,1.3,1.5,2.3l-2.2.6c-.2-.5-.4-.9-.8-1.2-.4-.3-.8-.4-1.3-.4s-1,0-1.4.4c-.4.3-.6.6-.8,1.1s-.3,1-.3,1.6c0,.9.2,1.7.6,2.2.4.6,1,.9,1.8.9s1,0,1.4-.4c.3-.3.6-.6.8-1.1l2.2.5c-.3,1-.8,1.8-1.6,2.3-.7.3-1.6.6-2.7.6ZM230.3,536v-13h2.2v7.9l3.6-4.7h2.7l-3.8,4.9,4.1,4.9h-2.9l-3.7-4.7v4.7h-2.2ZM240.2,524.8v-2h2.2v2h-2.2ZM240.2,536v-9.7h2.2v9.7h-2.2ZM251.8,536v-4.7c0-.3,0-.6-.1-1,0-.4-.1-.7-.3-1.1-.2-.3-.4-.6-.7-.9-.3-.2-.7-.3-1.2-.3s-.5,0-.8,0-.5.2-.7.5c-.2.2-.4.5-.5.9s-.2.9-.2,1.5l-1.3-.5c0-.8.2-1.6.5-2.2.3-.7.8-1.2,1.4-1.6.6-.4,1.4-.6,2.3-.6s1.3,0,1.8.4c.5.2.8.5,1.1.9s.5.8.6,1.2l.3,1.2c0,.4.1.7.1.9v5.4h-2.3ZM245.1,536v-9.7h1.9v3h.3v6.7h-2.2ZM260.4,540.6c-.5,0-1.1,0-1.6-.3s-.9-.4-1.3-.7-.7-.7-1-1.1l2-1c.2.4.4.6.8.8.3.2.7.3,1.1.3s.9,0,1.2-.2c.4-.2.6-.4.8-.7.2-.3.3-.7.3-1.2v-2.8h.3v-7.4h1.9v10.9c0,.2-.1.5-.1.7-.1.6-.4,1.1-.8,1.5s-.9.7-1.5.9c-.7.2-1.3.3-2.1.3ZM260.2,536.3c-.9,0-1.7-.2-2.3-.7-.7-.4-1.2-1.1-1.5-1.8-.4-.8-.5-1.6-.5-2.6s.2-1.9.5-2.6c.4-.8.9-1.4,1.6-1.8.7-.5,1.5-.7,2.4-.7s1.7.2,2.3.7c.6.4,1.1,1.1,1.4,1.8.3.8.5,1.6.5,2.6s-.2,1.8-.5,2.6-.8,1.4-1.4,1.8c-.7.4-1.5.7-2.5.7ZM260.6,534.3c.6,0,1,0,1.4-.4.4-.3.6-.6.8-1.1.2-.5.3-1,.3-1.7s-.1-1.2-.3-1.7c-.2-.5-.4-.9-.8-1.1-.3-.3-.8-.4-1.4-.4s-1.1,0-1.4.4c-.4.3-.7.7-.8,1.2-.2.5-.3,1-.3,1.6s.1,1.1.3,1.6c.2.5.5.9.8,1.1.3.4.8.5,1.4.5ZM270.1,536l4.1-13h3.2l4.1,13h-2.2l-3.7-11.6h.5l-3.7,11.6h-2.3ZM272.4,533.2v-2h6.8v2h-6.8ZM287.3,536.3c-1,0-1.9-.2-2.6-.7s-1.3-1.1-1.6-1.8c-.4-.8-.6-1.7-.6-2.6s.2-1.9.6-2.6c.4-.8.9-1.4,1.7-1.8.7-.4,1.6-.7,2.5-.7s2,.3,2.8.8c.8.6,1.3,1.3,1.5,2.3l-2.2.6c-.2-.5-.4-.9-.8-1.2s-.8-.4-1.3-.4-1,0-1.4.4c-.4.3-.6.6-.8,1.1-.2.5-.3,1-.3,1.6,0,.9.2,1.7.6,2.2s1,.9,1.8.9,1,0,1.4-.4c.3-.3.6-.6.8-1.1l2.2.5c-.3,1-.8,1.8-1.6,2.3-.7.3-1.6.6-2.7.6ZM297.4,536.3c-1,0-1.9-.2-2.6-.7s-1.3-1.1-1.6-1.8c-.4-.8-.6-1.7-.6-2.6s.2-1.9.6-2.6c.4-.8.9-1.4,1.7-1.8.7-.4,1.6-.7,2.5-.7s2,.3,2.8.8c.8.6,1.3,1.3,1.5,2.3l-2.2.6c-.2-.5-.4-.9-.8-1.2s-.8-.4-1.3-.4-1,0-1.4.4c-.4.3-.6.6-.8,1.1-.2.5-.3,1-.3,1.6,0,.9.2,1.7.6,2.2s1,.9,1.8.9,1,0,1.4-.4c.3-.3.6-.6.8-1.1l2.2.5c-.3,1-.8,1.8-1.6,2.3-.7.3-1.6.6-2.7.6ZM307.6,536.3c-1,0-1.8-.2-2.5-.7-.7-.4-1.3-1-1.7-1.8-.4-.8-.6-1.7-.6-2.7s.2-1.9.6-2.7,1-1.4,1.7-1.8c.7-.4,1.6-.6,2.5-.6s1.8.2,2.6.7c.7.4,1.3,1,1.7,1.8.4.8.6,1.7.6,2.7s-.2,1.9-.6,2.7-1,1.4-1.7,1.8c-.8.4-1.6.6-2.6.6ZM307.6,534.2c.9,0,1.5-.3,1.9-.9.4-.6.6-1.3.6-2.2s-.2-1.7-.6-2.2c-.4-.6-1.1-.8-1.9-.8s-1.1,0-1.4.4c-.4.3-.6.6-.8,1.1-.2.5-.3,1-.3,1.6,0,.9.2,1.7.6,2.3.4.5,1,.7,1.9.7ZM318.1,536.3c-.7,0-1.3,0-1.8-.4-.5-.2-.8-.5-1.1-.9-.3-.4-.5-.8-.6-1.2s-.2-.8-.3-1.2c0-.4-.1-.7-.1-.9v-5.4h2.2v4.7c0,.3,0,.6.1,1,0,.4.1.7.3,1.1.2.3.4.6.7.8.3.2.7.3,1.2.3s.5,0,.8,0,.5-.2.7-.5c.2-.2.4-.5.5-.9s.2-.9.2-1.5l1.3.5c0,.8-.2,1.6-.5,2.2-.3.7-.8,1.2-1.4,1.6-.6.6-1.3.8-2.2.8ZM321.2,536v-3h-.2v-6.7h2.2v9.7h-2ZM332.4,536v-4.7c0-.3,0-.6-.1-1,0-.4-.1-.7-.3-1.1-.2-.3-.4-.6-.7-.9-.3-.2-.7-.3-1.2-.3s-.5,0-.8,0-.5.2-.7.5c-.2.2-.4.5-.5.9s-.2.9-.2,1.5l-1.3-.5c0-.8.2-1.6.5-2.2.3-.7.8-1.2,1.4-1.6.6-.4,1.4-.6,2.3-.6s1.3,0,1.8.4c.5.2.8.5,1.1.9s.5.8.6,1.2.2.8.3,1.2c0,.4.1.7.1.9v5.4h-2.3,0ZM325.7,536v-9.7h1.9v3h.3v6.7h-2.2ZM342.6,536c-.6,0-1.3.2-1.9.2s-1.2,0-1.6-.3c-.5-.2-.9-.6-1.1-1s-.3-.8-.4-1.3,0-.9,0-1.5v-8.5h2.2v9.3c0,.3.1.5.2.7.2.4.6.6,1,.6s1,0,1.6,0v1.9h0ZM335.9,528v-1.7h6.8v1.7h-6.8Z"></path>
  <path class="cls-8" d="M107.5,563.2c-.8,0-1.5,0-2.2-.4-.7-.3-1.2-.7-1.7-1.2s-.8-1.2-1-1.9-.4-1.6-.4-2.5.2-2.3.6-3.2,1-1.6,1.8-2.1,1.7-.7,2.8-.7,2.2.3,3,.9c.8.6,1.3,1.3,1.6,2.3l-1.2.3c-.3-.7-.7-1.3-1.2-1.7-.6-.4-1.3-.6-2.1-.6s-1.7.2-2.2.6c-.6.4-1,1-1.4,1.7-.3.7-.5,1.6-.5,2.5s0,1.8.4,2.5.8,1.3,1.4,1.7,1.4.6,2.3.6,1.5-.2,2-.5.9-.8,1.2-1.4c.3-.6.4-1.3.5-2.1h-2.7v-1h3.9v.7c0,1-.2,2-.6,2.8s-.9,1.5-1.7,1.9c-.5.6-1.5.8-2.6.8ZM117.8,563.2c-.8,0-1.6-.2-2.2-.6-.6-.4-1.1-.9-1.4-1.6-.3-.7-.5-1.5-.5-2.4s.2-1.8.5-2.4c.3-.7.8-1.2,1.4-1.6.6-.4,1.3-.6,2.2-.6s1.6.2,2.2.6c.6.4,1.1.9,1.4,1.7.3.7.5,1.6.4,2.6h-1.2v-.4c0-1.1-.3-2-.7-2.5-.5-.6-1.1-.9-2-.9s-1.6.3-2.1.9c-.5.6-.7,1.5-.7,2.6s.2,1.9.7,2.5,1.2.9,2.1.9,1.2,0,1.6-.4c.5-.3.8-.7,1.1-1.2l1.1.4c-.3.8-.8,1.3-1.5,1.8-.8.4-1.6.6-2.4.6ZM114.5,559v-1h6.6v1h-6.6ZM128.2,563c-.5,0-1,0-1.4,0s-.9,0-1.3-.3-.6-.5-.8-.8c-.2-.3-.2-.6-.3-1v-9h1.2v8.8c0,.2,0,.5.2.6.2.4.5.6.9.6.4,0,.9,0,1.6,0v1h0ZM122.6,555.4v-1h5.7v1h-5.7ZM134,563v-10c0-.2.1-.4.2-.6.1-.2.2-.4.4-.6.2-.2.4-.3.6-.4.2,0,.4,0,.6-.2h1.8v1h-1c-.4,0-.8,0-1,.3s-.3.6-.3,1v9.4h-1.3ZM132.5,555.4v-1h5v1h-5ZM142.1,563.2c-.8,0-1.6-.2-2.2-.6-.6-.4-1.1-.9-1.4-1.6-.3-.7-.5-1.5-.5-2.4s.2-1.8.5-2.4c.3-.7.8-1.2,1.4-1.6.6-.4,1.3-.6,2.2-.6s1.6.2,2.2.6c.6.4,1.1.9,1.4,1.7.3.7.5,1.6.4,2.6h-1.2v-.4c0-1.1-.3-2-.7-2.5-.5-.6-1.1-.9-2-.9s-1.6.3-2.1.9c-.5.6-.7,1.5-.7,2.6s.2,1.9.7,2.5,1.2.9,2.1.9,1.2,0,1.6-.4c.5-.3.8-.7,1.1-1.2l1.1.4c-.3.8-.8,1.3-1.5,1.8-.8.4-1.5.6-2.4.6ZM138.8,559v-1h6.6v1h-6.6ZM150.2,563.2c-.6,0-1.2,0-1.6-.4-.4-.2-.8-.5-1-.9s-.3-.8-.3-1.3.1-.9.3-1.2.5-.6.8-.8.7-.4,1.1-.5c.4,0,.9-.2,1.4-.3s1.1-.2,1.6-.2c.5,0,1,0,1.3-.2l-.4.3c0-.9-.1-1.5-.5-1.9-.3-.4-.9-.6-1.8-.6s-1.1,0-1.5.4c-.4.3-.7.7-.9,1.3l-1.1-.3c.2-.8.6-1.4,1.2-1.8.6-.4,1.4-.6,2.3-.6s1.5,0,2,.4c.6.3.9.7,1.2,1.3.1.3.2.5.2.8v6.3h-1v-2.2h.3c-.3.8-.7,1.4-1.4,1.8-.6.4-1.4.6-2.2.6ZM150.3,562.2c.6,0,1,0,1.4-.3s.7-.5,1-.8.4-.7.5-1.2c.1-.3.1-.6.1-.9v-.8l.4.2c-.4,0-.8,0-1.3.2-.5,0-.9,0-1.4.2-.4,0-.9.2-1.2.2-.2,0-.5.2-.7.3s-.4.3-.6.5c-.1.2-.2.5-.2.8s.1.5.2.7c.1.2.3.4.6.6.4.2.7.3,1.2.3ZM161.3,563c-.5,0-1,0-1.4,0s-.9,0-1.3-.3c-.4-.2-.6-.5-.8-.8s-.2-.6-.3-1v-9h1.2v8.8c0,.2.1.5.2.6.2.4.5.6.9.6.4,0,.9,0,1.6,0v1h0ZM155.6,555.4v-1h5.7v1h-5.7ZM166.3,563.2c-.5,0-1,0-1.4-.2-.4-.2-.7-.4-1-.6-.3-.3-.5-.6-.6-.9-.2-.4-.3-.7-.4-1.1s-.1-.8-.1-1.2v-4.8h1.2v4.4c0,.5,0,.9.1,1.3.1.4.2.8.4,1.1s.5.5.8.7.7.2,1.2.2.8,0,1.1-.2c.3,0,.6-.3.8-.6s.4-.6.5-1,.2-.8.2-1.3l.8.2c0,.9-.2,1.6-.5,2.2-.3.6-.7,1.1-1.3,1.4-.5.3-1.1.4-1.8.4ZM169.2,563v-2.1h-.1v-6.5h1.2v8.6h-1.1ZM172.5,563v-8.6h1.1v2.1l-.2-.3c.1-.3.2-.5.4-.7s.3-.4.5-.5c.2-.2.5-.3.8-.4.3,0,.6-.2.9-.2s.6,0,.8,0v1.1c-.3,0-.7,0-1,0s-.7.2-1,.4-.5.5-.6.8-.2.6-.3,1c0,.3-.1.7-.1,1v4.3h-1.3ZM181.7,563.2c-.8,0-1.6-.2-2.2-.6-.6-.4-1.1-.9-1.4-1.6-.3-.7-.5-1.5-.5-2.4s.2-1.8.5-2.4c.3-.7.8-1.2,1.4-1.6.6-.4,1.3-.6,2.2-.6s1.6.2,2.2.6c.6.4,1.1.9,1.4,1.7.3.7.4,1.6.4,2.6h-1.2v-.4c0-1.1-.3-2-.7-2.5-.5-.6-1.1-.9-2-.9s-1.6.3-2.1.9c-.5.6-.7,1.5-.7,2.6s.2,1.9.7,2.5,1.2.9,2.1.9,1.2,0,1.6-.4c.5-.3.8-.7,1.1-1.2l1.1.4c-.3.8-.8,1.3-1.5,1.8-.8.4-1.5.6-2.4.6ZM178.4,559v-1h6.6v1h-6.6ZM190.7,563.2c-1,0-1.8-.2-2.5-.7-.7-.4-1.1-1-1.2-1.8l1.2-.2c.1.5.4.9.9,1.2s1,.4,1.7.4,1.2,0,1.6-.4c.4-.3.6-.7.6-1.1s-.1-.5-.2-.6c-.1-.2-.4-.3-.7-.5-.4,0-.9-.3-1.6-.5-.8-.2-1.4-.4-1.8-.6s-.8-.5-.9-.7c-.2-.3-.3-.6-.3-1s.1-.9.4-1.3c.3-.4.7-.7,1.2-.9s1.1-.3,1.7-.3,1.2,0,1.7.3.9.5,1.2.9.5.8.6,1.3l-1.2.2c-.1-.5-.3-.9-.8-1.2-.4-.3-1-.5-1.6-.5s-1.1,0-1.5.4c-.4.2-.6.6-.6,1s.1.4.2.6c.1.2.4.3.8.5.4,0,.9.3,1.6.5.8.2,1.4.4,1.9.6s.8.5,1,.8.3.7.3,1.1c0,.8-.3,1.5-.9,1.9-.9.4-1.8.6-2.8.6ZM202.7,563.2c-.9,0-1.6-.2-2.2-.6s-1.1-.9-1.4-1.6c-.3-.7-.5-1.5-.5-2.4s.2-1.7.5-2.4.8-1.2,1.4-1.6c.6-.4,1.3-.6,2.2-.6s1.6.2,2.2.6c.6.4,1.1.9,1.4,1.6.3.7.5,1.5.5,2.4s-.2,1.7-.5,2.4-.8,1.2-1.4,1.6-1.4.6-2.2.6ZM202.7,562.1c1,0,1.7-.3,2.1-1,.5-.6.7-1.5.7-2.5s-.2-1.9-.7-2.5-1.2-.9-2.1-.9-1.2,0-1.6.4c-.4.3-.7.7-.9,1.2s-.3,1.1-.3,1.8c0,1,.2,1.9.7,2.5.4.7,1.1,1,2.1,1ZM209.4,563v-10c0-.2.1-.4.2-.6.1-.2.2-.4.4-.6.2-.2.4-.3.6-.4.2,0,.4,0,.6-.2h1.8v1h-1c-.4,0-.8,0-1,.3s-.3.6-.3,1v9.4h-1.3ZM207.9,555.4v-1h5v1h-5ZM219.9,563.2c-.7,0-1.2,0-1.6-.4-.4-.2-.8-.5-1-.9s-.3-.8-.3-1.3.1-.9.3-1.2.5-.6.8-.8.7-.4,1.1-.5c.4,0,.9-.2,1.4-.3s1.1-.2,1.6-.2c.5,0,1,0,1.3-.2l-.4.3c0-.9-.1-1.5-.5-1.9-.3-.4-.9-.6-1.8-.6s-1.1,0-1.5.4c-.4.3-.7.7-.9,1.3l-1.1-.3c.2-.8.6-1.4,1.2-1.8s1.4-.6,2.3-.6,1.5,0,2,.4c.6.3.9.7,1.2,1.3.1.3.2.5.2.8v6.3h-1v-2.2h.3c-.3.8-.7,1.4-1.4,1.8-.6.4-1.4.6-2.2.6ZM220,562.2c.5,0,1,0,1.4-.3s.7-.5,1-.8.4-.7.5-1.2c.1-.3.1-.6.1-.9v-.8l.4.2c-.4,0-.8,0-1.3.2-.5,0-.9,0-1.4.2-.4,0-.9.2-1.2.2-.2,0-.5.2-.7.3s-.4.3-.6.5c-.1.2-.2.5-.2.8s.1.5.2.7c.1.2.3.4.6.6.4.2.7.3,1.2.3ZM233.1,563.2c-.9,0-1.6-.2-2.2-.6-.6-.4-1.1-.9-1.4-1.6-.3-.7-.5-1.5-.5-2.4s.2-1.7.5-2.4.8-1.2,1.4-1.6c.6-.4,1.3-.6,2.2-.6s1.6.2,2.3.6c.7.4,1.1,1,1.3,1.8l-1.2.4c-.2-.5-.5-.9-1-1.2-.4-.3-.9-.4-1.5-.4s-1.2,0-1.6.4c-.4.3-.7.7-.9,1.2s-.3,1.1-.3,1.8c0,1,.3,1.9.7,2.5.5.6,1.2.9,2.1.9s1.1,0,1.5-.4c.4-.3.7-.7.9-1.2l1.2.4c-.3.8-.8,1.4-1.4,1.8-.5.4-1.3.6-2.1.6ZM244.6,563v-4.4c0-.5,0-.9-.1-1.3-.1-.4-.2-.8-.4-1.1s-.5-.5-.8-.7-.7-.2-1.2-.2-.8,0-1.1.2c-.3,0-.6.4-.8.6-.2.3-.4.6-.5,1s-.2.8-.2,1.3l-.8-.2c0-.9.2-1.6.5-2.2.3-.6.7-1.1,1.3-1.4.5-.3,1.2-.5,1.9-.5s1,0,1.4.2c.4.2.7.4,1,.6.3.3.5.6.7.9.2.3.3.7.4,1.1s.1.8.1,1.2v4.8h-1.4,0ZM238.3,563v-11.5h1.1v6.5h.1v5h-1.2ZM251.5,563.2c-.8,0-1.6-.2-2.2-.6-.6-.4-1.1-.9-1.4-1.6-.3-.7-.5-1.5-.5-2.4s.2-1.8.5-2.4c.3-.7.8-1.2,1.4-1.6.6-.4,1.3-.6,2.2-.6s1.6.2,2.2.6c.6.4,1.1.9,1.4,1.7.3.7.5,1.6.4,2.6h-1.2v-.4c0-1.1-.3-2-.7-2.5-.5-.6-1.1-.9-2-.9s-1.6.3-2.1.9c-.5.6-.7,1.5-.7,2.6s.2,1.9.7,2.5,1.2.9,2.1.9,1.2,0,1.6-.4c.5-.3.8-.7,1.1-1.2l1.1.4c-.3.8-.8,1.3-1.5,1.8-.8.4-1.5.6-2.4.6ZM248.2,559v-1h6.6v1h-6.6ZM260.8,563.2c-.9,0-1.6-.2-2.2-.6-.6-.4-1.1-.9-1.4-1.6-.3-.7-.5-1.5-.5-2.4s.2-1.7.5-2.4.8-1.2,1.4-1.6c.6-.4,1.3-.6,2.2-.6s1.6.2,2.3.6c.7.4,1.1,1,1.3,1.8l-1.2.4c-.2-.5-.5-.9-1-1.2-.4-.3-.9-.4-1.5-.4s-1.2,0-1.6.4c-.4.3-.7.7-.9,1.2-.2.5-.3,1.1-.3,1.8,0,1,.2,1.9.7,2.5s1.2.9,2.1.9,1.1,0,1.5-.4c.4-.3.7-.7.9-1.2l1.2.4c-.3.8-.8,1.4-1.4,1.8-.5.4-1.2.6-2.1.6ZM266.1,563v-11.5h1.2v7l3.9-4.2h1.6l-4,4.3,4.6,4.3h-1.7l-4.2-4.2v4.2h-1.4ZM274.2,552.7v-1.3h1.2v1.3h-1.2ZM274.2,563v-8.6h1.2v8.6h-1.2ZM284,563v-4.4c0-.5,0-.9-.1-1.3-.1-.4-.2-.8-.4-1.1-.2-.3-.5-.5-.8-.7s-.7-.2-1.2-.2-.8,0-1.1.2c-.3,0-.6.4-.8.6-.2.3-.4.6-.5,1s-.2.8-.2,1.3l-.8-.2c0-.9.2-1.6.5-2.2.3-.6.7-1.1,1.3-1.4.5-.3,1.2-.5,1.9-.5s1,0,1.4.2c.4.2.7.4,1,.6.3.3.5.6.7.9.2.3.3.7.4,1.1.1.4.1.8.1,1.2v4.8h-1.4ZM277.7,563v-8.6h1.1v2.1h.1v6.5h-1.2ZM290.7,567.1c-.4,0-.9,0-1.3-.2-.4,0-.8-.3-1.2-.6-.4-.3-.7-.6-.9-1.1l1.1-.6c.2.5.6.8,1,1s.9.3,1.3.3c.6,0,1.1,0,1.5-.4.4-.2.7-.6.8-1s.3-1,.3-1.7v-2.3h.1v-6.2h1v9.2c0,.2,0,.5-.1.7-.1.6-.3,1.2-.6,1.6-.3.4-.7.7-1.2.9-.5.3-1.1.4-1.8.4ZM290.6,563.2c-.8,0-1.5-.2-2.1-.6-.6-.4-1-1-1.3-1.6-.3-.7-.5-1.5-.5-2.3s.1-1.6.4-2.3.7-1.2,1.3-1.6c.6-.4,1.2-.6,2-.6s1.5.2,2,.6c.6.4,1,.9,1.3,1.6.3.7.4,1.5.4,2.3s-.1,1.6-.4,2.3-.7,1.2-1.2,1.6c-.4.4-1.1.6-1.9.6ZM290.7,562.1c.6,0,1.1,0,1.5-.4.4-.3.7-.7.9-1.2.2-.5.3-1.1.3-1.8s-.1-1.3-.3-1.8c-.2-.5-.5-.9-.9-1.2s-.9-.4-1.5-.4-1.1.2-1.5.5-.7.7-.9,1.2c-.2.5-.3,1.1-.3,1.8s.1,1.2.3,1.8c.2.5.5.9.9,1.2s.9.3,1.5.3ZM302.4,563.2c-.7,0-1.2,0-1.6-.4-.4-.2-.8-.5-1-.9s-.3-.8-.3-1.3.1-.9.3-1.2c.2-.3.5-.6.8-.8s.7-.4,1.1-.5.9-.2,1.4-.3,1.1-.2,1.6-.2c.5,0,1,0,1.3-.2l-.4.3c0-.9-.1-1.5-.5-1.9-.3-.4-.9-.6-1.8-.6s-1.1,0-1.5.4c-.4.3-.7.7-.9,1.3l-1.1-.3c.2-.8.6-1.4,1.2-1.8.6-.4,1.4-.6,2.3-.6s1.5,0,2,.4c.6.3.9.7,1.2,1.3.1.3.2.5.2.8v6.3h-1v-2.2h.3c-.3.8-.8,1.4-1.4,1.8-.6.4-1.3.6-2.2.6ZM302.5,562.2c.5,0,1,0,1.4-.3s.7-.5,1-.8c.2-.3.4-.7.5-1.2.1-.3.1-.6.1-.9v-.8l.4.2c-.4,0-.8,0-1.3.2-.5,0-.9,0-1.4.2-.4,0-.9.2-1.2.2-.2,0-.5.2-.7.3s-.4.3-.6.5c-.1.2-.2.5-.2.8s.1.5.2.7.3.4.6.6c.4.2.8.3,1.2.3ZM312.4,563.2c-.9,0-1.6-.2-2.2-.6-.6-.4-1.1-.9-1.4-1.6-.3-.7-.5-1.5-.5-2.4s.2-1.7.5-2.4.8-1.2,1.4-1.6c.6-.4,1.3-.6,2.2-.6s1.6.2,2.3.6c.7.4,1.1,1,1.3,1.8l-1.2.4c-.2-.5-.5-.9-1-1.2-.4-.3-.9-.4-1.5-.4s-1.2,0-1.6.4c-.4.3-.7.7-.9,1.2-.2.5-.3,1.1-.3,1.8,0,1,.3,1.9.7,2.5.5.6,1.2.9,2.1.9s1.1,0,1.5-.4c.4-.3.7-.7.9-1.2l1.2.4c-.3.8-.8,1.4-1.4,1.8-.5.4-1.2.6-2.1.6ZM321,563.2c-.9,0-1.6-.2-2.2-.6-.6-.4-1.1-.9-1.4-1.6-.3-.7-.5-1.5-.5-2.4s.2-1.7.5-2.4.8-1.2,1.4-1.6c.6-.4,1.3-.6,2.2-.6s1.6.2,2.3.6c.7.4,1.1,1,1.3,1.8l-1.2.4c-.2-.5-.5-.9-1-1.2-.4-.3-.9-.4-1.5-.4s-1.2,0-1.6.4c-.4.3-.7.7-.9,1.2-.2.5-.3,1.1-.3,1.8,0,1,.3,1.9.7,2.5.5.6,1.2.9,2.1.9s1.1,0,1.5-.4c.4-.3.7-.7.9-1.2l1.2.4c-.3.8-.8,1.4-1.4,1.8-.5.4-1.2.6-2.1.6ZM329.7,563.2c-.9,0-1.6-.2-2.2-.6s-1.1-.9-1.4-1.6c-.3-.7-.5-1.5-.5-2.4s.2-1.7.5-2.4.8-1.2,1.4-1.6c.6-.4,1.3-.6,2.2-.6s1.6.2,2.2.6c.6.4,1.1.9,1.4,1.6.3.7.5,1.5.5,2.4s-.2,1.7-.5,2.4-.8,1.2-1.4,1.6c-.6.4-1.4.6-2.2.6ZM329.7,562.1c1,0,1.7-.3,2.1-1,.5-.6.7-1.5.7-2.5s-.2-1.9-.7-2.5-1.2-.9-2.1-.9-1.2,0-1.6.4c-.4.3-.7.7-.9,1.2-.2.5-.3,1.1-.3,1.8,0,1,.2,1.9.7,2.5.4.7,1.1,1,2.1,1ZM338.8,563.2c-.5,0-1,0-1.4-.2-.4-.2-.7-.4-1-.6-.3-.3-.5-.6-.6-.9-.2-.4-.3-.7-.4-1.1-.1-.4-.1-.8-.1-1.2v-4.8h1.2v4.4c0,.5,0,.9.1,1.3.1.4.2.8.4,1.1.2.3.5.5.8.7s.7.2,1.2.2.8,0,1.1-.2c.3,0,.6-.3.8-.6.2-.3.4-.6.5-1s.2-.8.2-1.3l.8.2c0,.9-.2,1.6-.5,2.2-.3.6-.7,1.1-1.3,1.4-.4.3-1.1.4-1.8.4ZM341.7,563v-2.1h-.1v-6.5h1.2v8.6h-1.1ZM351.3,563v-4.4c0-.5,0-.9-.1-1.3-.1-.4-.2-.8-.4-1.1-.2-.3-.5-.5-.8-.7s-.7-.2-1.2-.2-.8,0-1.1.2c-.3,0-.6.4-.8.6-.2.3-.4.6-.5,1s-.2.8-.2,1.3l-.8-.2c0-.9.2-1.6.5-2.2.3-.6.7-1.1,1.3-1.4.5-.3,1.2-.5,1.9-.5s1,0,1.4.2c.4.2.7.4,1,.6.3.3.5.6.7.9.2.3.3.7.4,1.1.1.4.1.8.1,1.2v4.8h-1.4ZM345,563v-8.6h1.1v2.1h.1v6.5h-1.2ZM359.2,563c-.5,0-1,0-1.4,0s-.9,0-1.3-.3-.6-.5-.8-.8c-.2-.3-.2-.6-.3-1v-9h1.2v8.8c0,.2.1.5.2.6.2.4.5.6.9.6.4,0,.9,0,1.6,0v1h-.1ZM353.6,555.4v-1h5.7v1h-5.7ZM97.8,583.2c-.7,0-1.2,0-1.6-.4-.4-.2-.8-.5-1-.9s-.3-.8-.3-1.3,0-.9.3-1.2c.2-.3.5-.6.8-.8s.7-.4,1.1-.5.9-.2,1.4-.3,1.1-.2,1.6-.2c.5,0,1,0,1.3-.2l-.4.3c0-.9,0-1.5-.5-1.9-.3-.4-.9-.6-1.8-.6s-1.1,0-1.5.4c-.4.3-.7.7-.9,1.3l-1.1-.3c.2-.8.6-1.4,1.2-1.8.6-.4,1.4-.6,2.3-.6s1.5,0,2,.4c.6.3.9.7,1.2,1.3,0,.3.2.5.2.8v6.3h-1v-2.2h.3c-.3.8-.7,1.4-1.4,1.8-.6.4-1.3.6-2.2.6ZM98,582.2c.5,0,1,0,1.4-.3s.7-.5,1-.8.4-.7.5-1.2c0-.3,0-.6,0-.9v-.8l.4.2c-.4,0-.8,0-1.3.2-.5,0-.9,0-1.4.2-.4,0-.9.2-1.2.2-.2,0-.5.2-.7.3s-.4.3-.6.5c0,.2-.2.5-.2.8s0,.5.2.7.3.4.6.6.7.3,1.2.3ZM110.5,583v-4.4c0-.5,0-.9,0-1.3,0-.4-.2-.8-.4-1.1-.2-.3-.5-.5-.8-.7s-.7-.2-1.2-.2-.8,0-1.1.2c-.3,0-.6.4-.8.6-.2.3-.4.6-.5,1s-.2.8-.2,1.3l-.8-.2c0-.9.2-1.6.5-2.2.3-.6.7-1.1,1.3-1.4.5-.3,1.2-.5,1.9-.5s1,0,1.4.2c.4.2.7.4,1,.6.3.3.5.6.7.9.2.3.3.7.4,1.1,0,.4,0,.8,0,1.2v4.8h-1.4ZM104.2,583v-8.6h1.1v2.1h0v6.5h-1.2ZM117,583.2c-.8,0-1.5-.2-2.1-.6-.6-.4-1-1-1.3-1.6-.3-.7-.5-1.5-.5-2.3s.2-1.6.4-2.3c.3-.7.7-1.2,1.3-1.6.6-.4,1.2-.6,2-.6s1.5.2,2,.6c.6.4,1,.9,1.3,1.6.3.7.4,1.5.4,2.3s0,1.6-.4,2.3-.7,1.2-1.2,1.6c-.4.4-1.1.6-1.9.6ZM117.2,582.1c.6,0,1.1,0,1.5-.4s.7-.7.9-1.2c.2-.5.3-1.1.3-1.8s0-1.3-.3-1.8c-.2-.5-.5-.9-.9-1.2s-.9-.4-1.5-.4-1.1.2-1.5.5-.7.7-.9,1.2c-.2.5-.3,1.1-.3,1.8s0,1.2.3,1.8c.2.5.5.9.9,1.2s.9.3,1.5.3ZM119.9,583v-6.5h0v-5h1.2v11.5h-1.1ZM130.3,583.2c-.8,0-1.5-.2-2-.6-.5-.4-1-1-1.2-1.6-.3-.7-.4-1.5-.4-2.3s0-1.7.4-2.3c.3-.7.7-1.2,1.3-1.6.6-.4,1.2-.6,2-.6s1.5.2,2,.6c.6.4,1,.9,1.3,1.6.3.7.5,1.5.5,2.3s-.2,1.6-.5,2.3-.7,1.2-1.3,1.6c-.7.4-1.3.6-2.1.6ZM126.4,583v-11.5h1.2v5h0v6.5h-1.1ZM130.1,582.1c.6,0,1.1-.2,1.5-.5s.7-.7.9-1.2.3-1.1.3-1.8-.1-1.2-.3-1.8-.5-.9-.9-1.2-.9-.5-1.5-.5-1.1,0-1.5.4c-.4.3-.7.7-.9,1.2-.2.5-.3,1.1-.3,1.8s0,1.3.3,1.8c.2.5.5.9.9,1.2.4.5.9.6,1.5.6ZM139.5,583.2c-.8,0-1.6-.2-2.2-.6-.6-.4-1.1-.9-1.4-1.6-.3-.7-.5-1.5-.5-2.4s.2-1.8.5-2.4c.3-.7.8-1.2,1.4-1.6.6-.4,1.3-.6,2.2-.6s1.6.2,2.2.6c.6.4,1.1.9,1.4,1.7.3.7.4,1.6.4,2.6h-1.2v-.4c0-1.1-.3-2-.7-2.5-.5-.6-1.1-.9-2-.9s-1.6.3-2.1.9c-.5.6-.7,1.5-.7,2.6s.2,1.9.7,2.5,1.2.9,2.1.9,1.2,0,1.6-.4c.5-.3.8-.7,1.1-1.2l1.1.4c-.3.8-.8,1.3-1.5,1.8-.8.4-1.6.6-2.4.6ZM136.2,579v-1h6.6v1h-6.6ZM151.2,583v-4.4c0-.5,0-.9-.1-1.3-.1-.4-.2-.8-.4-1.1s-.5-.5-.8-.7-.7-.2-1.2-.2-.8,0-1.1.2c-.3,0-.6.4-.8.6-.2.3-.4.6-.5,1s-.2.8-.2,1.3l-.8-.2c0-.9.2-1.6.5-2.2.3-.6.7-1.1,1.3-1.4.5-.3,1.2-.5,1.9-.5s1,0,1.4.2c.4.2.7.4,1,.6.3.3.5.6.7.9.2.3.3.7.4,1.1s.1.8.1,1.2v4.8h-1.4,0ZM145,583v-8.6h1.1v2.1h.1v6.5h-1.2ZM158.1,583.2c-.8,0-1.6-.2-2.2-.6-.6-.4-1.1-.9-1.4-1.6-.3-.7-.5-1.5-.5-2.4s.2-1.8.5-2.4c.3-.7.8-1.2,1.4-1.6.6-.4,1.3-.6,2.2-.6s1.6.2,2.2.6c.6.4,1.1.9,1.4,1.7.3.7.5,1.6.4,2.6h-1.2v-.4c0-1.1-.3-2-.7-2.5-.5-.6-1.1-.9-2-.9s-1.6.3-2.1.9c-.5.6-.7,1.5-.7,2.6s.2,1.9.7,2.5,1.2.9,2.1.9,1.2,0,1.6-.4c.5-.3.8-.7,1.1-1.2l1.1.4c-.3.8-.8,1.3-1.5,1.8-.9.4-1.6.6-2.4.6ZM154.8,579v-1h6.6v1h-6.6ZM164.6,583v-10c0-.2.1-.4.2-.6.1-.2.2-.4.4-.6.2-.2.4-.3.6-.4.2,0,.4,0,.6-.2h1.8v1h-1c-.4,0-.8,0-1,.3s-.3.6-.3,1v9.4h-1.3ZM163.1,575.4v-1h5v1h-5ZM169.8,572.7v-1.3h1.2v1.3h-1.2ZM169.8,583v-8.6h1.2v8.6h-1.2ZM178.1,583c-.5,0-1,0-1.4,0s-.9,0-1.3-.3c-.4-.2-.6-.5-.8-.8s-.2-.6-.3-1v-9h1.2v8.8c0,.2.1.5.2.6.2.4.5.6.9.6.4,0,.9,0,1.6,0v1h0ZM172.4,575.4v-1h5.7v1h-5.7ZM183,583.2c-1,0-1.8-.2-2.5-.7-.6-.4-1.1-1-1.2-1.8l1.2-.2c.1.5.4.9.9,1.2s1,.4,1.7.4,1.2,0,1.6-.4c.4-.3.6-.7.6-1.1s-.1-.5-.2-.6c-.1-.2-.4-.3-.7-.5-.4,0-.9-.3-1.6-.5-.8-.2-1.4-.4-1.8-.6-.4-.2-.8-.5-.9-.7-.2-.3-.3-.6-.3-1s.1-.9.4-1.3c.3-.4.7-.7,1.2-.9s1.1-.3,1.7-.3,1.2,0,1.7.3.9.5,1.2.9.5.8.6,1.3l-1.2.2c-.1-.5-.3-.9-.8-1.2-.4-.3-1-.5-1.6-.5s-1.1,0-1.5.4c-.4.2-.6.6-.6,1s.1.4.2.6c.1.2.4.3.8.5.4,0,.9.3,1.6.5.8.2,1.4.4,1.9.6.5.2.8.5,1,.8s.3.7.3,1.1c0,.8-.3,1.5-.9,1.9-.9.4-1.7.6-2.8.6ZM195,583.2c-.9,0-1.6-.2-2.2-.6s-1.1-.9-1.4-1.6c-.3-.7-.5-1.5-.5-2.4s.2-1.7.5-2.4.8-1.2,1.4-1.6c.6-.4,1.3-.6,2.2-.6s1.6.2,2.2.6c.6.4,1.1.9,1.4,1.6.3.7.5,1.5.5,2.4s-.2,1.7-.5,2.4-.8,1.2-1.4,1.6-1.3.6-2.2.6ZM195,582.1c1,0,1.7-.3,2.1-1,.5-.6.7-1.5.7-2.5s-.2-1.9-.7-2.5-1.2-.9-2.1-.9-1.2,0-1.6.4c-.4.3-.7.7-.9,1.2s-.3,1.1-.3,1.8c0,1,.2,1.9.7,2.5.5.7,1.2,1,2.1,1ZM201.7,583v-10c0-.2.1-.4.2-.6.1-.2.2-.4.4-.6.2-.2.4-.3.6-.4.2,0,.4,0,.6-.2h1.8v1h-1c-.4,0-.8,0-1,.3s-.3.6-.3,1v9.4h-1.3ZM200.2,575.4v-1h5v1h-5ZM212.2,583.2c-.7,0-1.2,0-1.6-.4-.4-.2-.8-.5-1-.9s-.3-.8-.3-1.3.1-.9.3-1.2.5-.6.8-.8.7-.4,1.1-.5c.4,0,.9-.2,1.4-.3s1.1-.2,1.6-.2c.5,0,1,0,1.3-.2l-.4.3c0-.9-.1-1.5-.5-1.9-.3-.4-.9-.6-1.8-.6s-1.1,0-1.5.4c-.4.3-.7.7-.9,1.3l-1.1-.3c.2-.8.6-1.4,1.2-1.8.6-.4,1.4-.6,2.3-.6s1.5,0,2,.4c.6.3.9.7,1.2,1.3.1.3.2.5.2.8v6.3h-1v-2.2h.3c-.3.8-.8,1.4-1.4,1.8-.6.4-1.3.6-2.2.6ZM212.4,582.2c.5,0,1,0,1.4-.3s.7-.5,1-.8c.2-.3.4-.7.5-1.2.1-.3.1-.6.1-.9v-.8l.4.2c-.4,0-.8,0-1.3.2-.5,0-.9,0-1.4.2-.4,0-.9.2-1.2.2-.2,0-.5.2-.7.3s-.4.3-.6.5c-.1.2-.2.5-.2.8s.1.5.2.7c.1.2.3.4.6.6s.7.3,1.2.3ZM225.2,583.2c-.8,0-1.5-.2-2.1-.6-.6-.4-1-1-1.3-1.6-.3-.7-.5-1.5-.5-2.3s.1-1.6.4-2.3c.3-.7.7-1.2,1.3-1.6.6-.4,1.2-.6,2-.6s1.5.2,2,.6c.6.4,1,.9,1.3,1.6.3.7.4,1.5.4,2.3s-.1,1.6-.4,2.3c-.3.7-.7,1.2-1.2,1.6-.4.4-1.1.6-1.9.6ZM225.3,582.1c.6,0,1.1,0,1.5-.4s.7-.7.9-1.2.3-1.1.3-1.8-.1-1.3-.3-1.8-.5-.9-.9-1.2-.9-.4-1.5-.4-1.1.2-1.5.5-.7.7-.9,1.2-.3,1.1-.3,1.8.1,1.2.3,1.8c.2.5.5.9.9,1.2.4.2.9.3,1.5.3ZM228,583v-6.5h-.1v-5h1.2v11.5h-1.1ZM235,583.2c-.8,0-1.6-.2-2.2-.6-.6-.4-1.1-.9-1.4-1.6-.3-.7-.5-1.5-.5-2.4s.2-1.8.5-2.4c.3-.7.8-1.2,1.4-1.6.6-.4,1.3-.6,2.2-.6s1.6.2,2.2.6c.6.4,1.1.9,1.4,1.7.3.7.4,1.6.4,2.6h-1.2v-.4c0-1.1-.3-2-.7-2.5-.5-.6-1.1-.9-2-.9s-1.6.3-2.1.9c-.5.6-.7,1.5-.7,2.6s.2,1.9.7,2.5,1.2.9,2.1.9,1.2,0,1.6-.4c.5-.3.8-.7,1.1-1.2l1.1.4c-.3.8-.8,1.3-1.5,1.8-.8.4-1.6.6-2.4.6ZM231.7,579v-1h6.6v1h-6.6ZM244.6,583.2c-.8,0-1.5-.2-2-.6-.5-.4-1-1-1.2-1.6-.3-.7-.4-1.5-.4-2.3s.1-1.7.4-2.3c.3-.7.7-1.2,1.3-1.6.6-.4,1.2-.6,2-.6s1.5.2,2,.6c.6.4,1,.9,1.3,1.6.3.7.5,1.5.5,2.3s-.2,1.6-.5,2.3-.7,1.2-1.3,1.6-1.3.6-2.1.6ZM240.7,583v-11.5h1.2v5h-.1v6.5h-1.1ZM244.5,582.1c.6,0,1.1-.2,1.5-.5s.7-.7.9-1.2.3-1.1.3-1.8-.1-1.2-.3-1.8c-.2-.5-.5-.9-.9-1.2s-.9-.5-1.5-.5-1.1,0-1.5.4c-.4.3-.7.7-.9,1.2s-.3,1.1-.3,1.8.1,1.3.3,1.8.5.9.9,1.2c.3.5.8.6,1.5.6ZM250.3,572.7v-1.3h1.2v1.3h-1.2ZM250.3,583v-8.6h1.2v8.6h-1.2ZM258.6,583c-.5,0-1,0-1.4,0s-.9,0-1.3-.3c-.4-.2-.6-.5-.8-.8s-.2-.6-.3-1v-9h1.2v8.8c0,.2.1.5.2.6.2.4.5.6.9.6.4,0,.9,0,1.6,0v1h-.1ZM252.9,575.4v-1h5.7v1h-5.7ZM267.1,583.2c-.9,0-1.6-.2-2.2-.6-.6-.4-1.1-.9-1.4-1.6-.3-.7-.5-1.5-.5-2.4s.2-1.7.5-2.4.8-1.2,1.4-1.6c.6-.4,1.3-.6,2.2-.6s1.6.2,2.3.6c.7.4,1.1,1,1.3,1.8l-1.2.4c-.2-.5-.5-.9-1-1.2-.4-.3-.9-.4-1.5-.4s-1.2,0-1.6.4c-.4.3-.7.7-.9,1.2-.2.5-.3,1.1-.3,1.8,0,1,.2,1.9.7,2.5s1.2.9,2.1.9,1.1,0,1.5-.4c.4-.3.7-.7.9-1.2l1.2.4c-.3.8-.8,1.4-1.4,1.8-.5.4-1.2.6-2.1.6ZM274.8,583.2c-.7,0-1.2,0-1.6-.4-.4-.2-.8-.5-1-.9s-.3-.8-.3-1.3.1-.9.3-1.2c.2-.3.5-.6.8-.8s.7-.4,1.1-.5.9-.2,1.4-.3,1.1-.2,1.6-.2c.5,0,1,0,1.3-.2l-.4.3c0-.9-.1-1.5-.5-1.9-.3-.4-.9-.6-1.8-.6s-1.1,0-1.5.4c-.4.3-.7.7-.9,1.3l-1.1-.3c.2-.8.6-1.4,1.2-1.8.6-.4,1.4-.6,2.3-.6s1.5,0,2,.4c.6.3.9.7,1.2,1.3.1.3.2.5.2.8v6.3h-1v-2.2h.3c-.3.8-.7,1.4-1.4,1.8-.6.4-1.4.6-2.2.6ZM274.9,582.2c.5,0,1,0,1.4-.3s.7-.5,1-.8.4-.7.5-1.2c.1-.3.1-.6.1-.9v-.8l.4.2c-.4,0-.8,0-1.3.2-.5,0-.9,0-1.4.2-.4,0-.9.2-1.2.2-.2,0-.5.2-.7.3s-.4.3-.6.5c-.1.2-.2.5-.2.8s.1.5.2.7.3.4.6.6c.4.2.8.3,1.2.3ZM281.2,583v-8.6h1.1v2.1l-.2-.3c.1-.3.2-.5.4-.7.2-.2.3-.4.5-.5.2-.2.5-.3.8-.4.3,0,.6-.2.9-.2s.6,0,.8,0v1.1c-.3,0-.7,0-1,0s-.7.2-1,.4-.5.5-.6.8-.2.6-.3,1c0,.3-.1.7-.1,1v4.3h-1.3ZM290.2,583.2c-.8,0-1.5-.2-2.1-.6-.6-.4-1-1-1.3-1.6-.3-.7-.5-1.5-.5-2.3s.2-1.6.4-2.3c.3-.7.7-1.2,1.3-1.6.6-.4,1.2-.6,2-.6s1.5.2,2,.6c.6.4,1,.9,1.3,1.6.3.7.4,1.5.4,2.3s-.1,1.6-.4,2.3-.7,1.2-1.2,1.6c-.5.4-1.1.6-1.9.6ZM290.3,582.1c.6,0,1.1,0,1.5-.4s.7-.7.9-1.2c.2-.5.3-1.1.3-1.8s-.1-1.3-.3-1.8c-.2-.5-.5-.9-.9-1.2s-.9-.4-1.5-.4-1.1.2-1.5.5-.7.7-.9,1.2c-.2.5-.3,1.1-.3,1.8s.1,1.2.3,1.8c.2.5.5.9.9,1.2.4.2.9.3,1.5.3ZM293,583v-6.5h-.1v-5h1.2v11.5h-1.1ZM302,583.2c-.7,0-1.2,0-1.6-.4-.4-.2-.8-.5-1-.9s-.3-.8-.3-1.3.1-.9.3-1.2c.2-.3.5-.6.8-.8s.7-.4,1.1-.5.9-.2,1.4-.3,1.1-.2,1.6-.2c.5,0,1,0,1.3-.2l-.4.3c0-.9-.1-1.5-.5-1.9-.3-.4-.9-.6-1.8-.6s-1.1,0-1.5.4c-.4.3-.7.7-.9,1.3l-1.1-.3c.2-.8.6-1.4,1.2-1.8.6-.4,1.4-.6,2.3-.6s1.5,0,2,.4c.6.3.9.7,1.2,1.3.1.3.2.5.2.8v6.3h-1v-2.2h.3c-.3.8-.7,1.4-1.4,1.8s-1.4.6-2.2.6ZM302.1,582.2c.5,0,1,0,1.4-.3s.7-.5,1-.8.4-.7.5-1.2c.1-.3.1-.6.1-.9v-.8l.4.2c-.4,0-.8,0-1.3.2-.5,0-.9,0-1.4.2-.4,0-.9.2-1.2.2-.2,0-.5.2-.7.3s-.4.3-.6.5c-.1.2-.2.5-.2.8s.1.5.2.7.3.4.6.6c.4.2.7.3,1.2.3ZM314.6,583v-4.4c0-.5,0-.9-.1-1.3-.1-.4-.2-.8-.4-1.1-.2-.3-.5-.5-.8-.7s-.7-.2-1.2-.2-.8,0-1.1.2c-.3,0-.6.4-.8.6-.2.3-.4.6-.5,1s-.2.8-.2,1.3l-.8-.2c0-.9.2-1.6.5-2.2.3-.6.7-1.1,1.3-1.4.5-.3,1.2-.5,1.9-.5s1,0,1.4.2c.4.2.7.4,1,.6.3.3.5.6.7.9.2.3.3.7.4,1.1.1.4.1.8.1,1.2v4.8h-1.4ZM308.4,583v-8.6h1.1v2.1h.1v6.5h-1.2ZM321.2,583.2c-.8,0-1.5-.2-2.1-.6-.6-.4-1-1-1.3-1.6-.3-.7-.5-1.5-.5-2.3s.1-1.6.4-2.3.7-1.2,1.3-1.6c.6-.4,1.2-.6,2-.6s1.5.2,2,.6c.6.4,1,.9,1.3,1.6.3.7.4,1.5.4,2.3s-.1,1.6-.4,2.3-.7,1.2-1.2,1.6c-.5.4-1.1.6-1.9.6ZM321.3,582.1c.6,0,1.1,0,1.5-.4s.7-.7.9-1.2c.2-.5.3-1.1.3-1.8s-.1-1.3-.3-1.8c-.2-.5-.5-.9-.9-1.2s-.9-.4-1.5-.4-1.1.2-1.5.5-.7.7-.9,1.2c-.2.5-.3,1.1-.3,1.8s.1,1.2.3,1.8c.2.5.5.9.9,1.2s.9.3,1.5.3ZM324,583v-6.5h-.1v-5h1.2v11.5h-1.1ZM340.8,583v-5.7c0-.7-.2-1.2-.6-1.6-.4-.4-.8-.6-1.4-.6s-.6,0-1,.2c-.3,0-.6.4-.8.7-.2.3-.3.8-.3,1.3l-.7-.2c0-.6.1-1.2.4-1.6.3-.5.6-.8,1.1-1.1s1-.4,1.6-.4c.9,0,1.6.3,2.1.8s.8,1.3.8,2.2v5.9h-1.2ZM330.5,583v-8.6h1.1v2.1h.1v6.5h-1.2ZM335.7,583v-5.6c0-.7-.2-1.2-.6-1.6-.4-.4-.8-.6-1.4-.6s-1.1.2-1.4.6c-.4.4-.6.9-.6,1.6l-.7-.4c0-.6.1-1.1.4-1.5s.6-.8,1.1-1c.5-.3,1-.4,1.5-.4s1,0,1.5.4c.4.2.8.6,1,1s.4,1,.4,1.6v5.9h-1.2ZM347.6,583.2c-.9,0-1.6-.2-2.2-.6s-1.1-.9-1.4-1.6c-.3-.7-.5-1.5-.5-2.4s.2-1.7.5-2.4.8-1.2,1.4-1.6c.6-.4,1.3-.6,2.2-.6s1.6.2,2.2.6c.6.4,1.1.9,1.4,1.6.3.7.5,1.5.5,2.4s-.2,1.7-.5,2.4-.8,1.2-1.4,1.6-1.3.6-2.2.6ZM347.6,582.1c1,0,1.7-.3,2.1-1,.5-.6.7-1.5.7-2.5s-.2-1.9-.7-2.5-1.2-.9-2.1-.9-1.2,0-1.6.4c-.4.3-.7.7-.9,1.2-.2.5-.3,1.1-.3,1.8,0,1,.2,1.9.7,2.5.5.7,1.2,1,2.1,1ZM353.5,583v-8.6h1.1v2.1l-.2-.3c.1-.3.2-.5.4-.7.2-.2.3-.4.5-.5.2-.2.5-.3.8-.4.3,0,.6-.2.9-.2s.6,0,.8,0v1.1c-.3,0-.7,0-1,0s-.7.2-1,.4-.5.5-.6.8-.2.6-.3,1c0,.3-.1.7-.1,1v4.3h-1.3ZM362.7,583.2c-.8,0-1.6-.2-2.2-.6-.6-.4-1.1-.9-1.4-1.6-.3-.7-.5-1.5-.5-2.4s.2-1.8.5-2.4c.3-.7.8-1.2,1.4-1.6.6-.4,1.3-.6,2.2-.6s1.6.2,2.2.6c.6.4,1.1.9,1.4,1.7.3.7.4,1.6.4,2.6h-1.2v-.4c0-1.1-.3-2-.7-2.5-.5-.6-1.1-.9-2-.9s-1.6.3-2.1.9c-.5.6-.7,1.5-.7,2.6s.2,1.9.7,2.5,1.2.9,2.1.9,1.2,0,1.6-.4c.5-.3.8-.7,1.1-1.2l1.1.4c-.3.8-.8,1.3-1.5,1.8-.8.4-1.5.6-2.4.6ZM359.4,579v-1h6.6v1h-6.6Z"></path>
  <path class="cls-11" d="M191.1,628l3.6-11.5h2.8l3.6,11.5h-2l-3.3-10.3h.4l-3.3,10.3h-1.8ZM193.1,625.5v-1.8h6v1.8h-6ZM206.8,628.2c-.8,0-1.5-.2-2.1-.6-.6-.4-1-.9-1.3-1.6-.3-.7-.4-1.5-.4-2.3s.1-1.6.4-2.3c.3-.7.7-1.2,1.3-1.6.6-.4,1.3-.6,2.1-.6s1.5.2,2.1.6c.6.4,1.1.9,1.4,1.6.3.7.5,1.5.5,2.3s-.2,1.6-.5,2.3-.8,1.2-1.4,1.6c-.6.4-1.3.6-2.1.6ZM202.6,631.8v-12.5h1.7v6.1h.2v6.4h-1.9ZM206.5,626.5c.5,0,.9,0,1.2-.4.3-.3.6-.6.7-1,.2-.4.2-.9.2-1.4s-.1-1-.2-1.4c-.2-.4-.4-.8-.7-1-.3-.3-.8-.4-1.3-.4s-.9,0-1.2.4c-.3.2-.5.6-.7,1-.1.4-.2.9-.2,1.5s.1,1.1.2,1.5c.1.4.4.8.7,1,.4.1.8.2,1.3.2ZM216.6,628.2c-.8,0-1.5-.2-2.1-.6-.6-.4-1-.9-1.3-1.6-.3-.7-.4-1.5-.4-2.3s.1-1.6.4-2.3c.3-.7.7-1.2,1.3-1.6.6-.4,1.3-.6,2.1-.6s1.5.2,2.1.6c.6.4,1.1.9,1.4,1.6.3.7.5,1.5.5,2.3s-.2,1.6-.5,2.3-.8,1.2-1.4,1.6c-.6.4-1.3.6-2.1.6ZM212.5,631.8v-12.5h1.7v6.1h.2v6.4h-1.9ZM216.4,626.5c.5,0,.9,0,1.2-.4.3-.3.6-.6.7-1,.2-.4.2-.9.2-1.4s-.1-1-.2-1.4c-.2-.4-.4-.8-.7-1-.3-.3-.8-.4-1.3-.4s-.9,0-1.2.4c-.3.2-.5.6-.7,1-.1.4-.2.9-.2,1.5s.1,1.1.2,1.5c.1.4.4.8.7,1,.3.1.7.2,1.3.2ZM222.5,628v-11.8h1.9v11.8h-1.9ZM228,631.8l1.7-4.6v1.3l-3.8-9.3h2l2.7,6.8h-.5l2.6-6.8h1.9l-4.8,12.5h-1.8ZM239,628v-11.5h2l5.3,8.1v-8.1h2v11.5h-2l-5.3-8.1v8.1h-2ZM254.3,628.2c-.9,0-1.6-.2-2.3-.6-.6-.4-1.1-.9-1.5-1.6-.4-.7-.5-1.5-.5-2.4s.2-1.7.5-2.4c.4-.7.9-1.2,1.5-1.6.6-.4,1.4-.6,2.2-.6s1.6.2,2.3.6c.6.4,1.1.9,1.5,1.6.4.7.5,1.5.5,2.4s-.2,1.7-.5,2.4c-.4.7-.9,1.2-1.5,1.6s-1.3.6-2.2.6ZM254.3,626.4c.8,0,1.3-.3,1.7-.8s.6-1.2.6-2-.2-1.5-.6-2-.9-.8-1.7-.8-.9,0-1.3.4c-.3.2-.6.6-.7,1-.2.4-.2.9-.2,1.4,0,.8.2,1.5.6,2,.3.6.9.8,1.6.8ZM261.9,628l-2.6-8.7h1.9l1.7,5.5,1.7-5.5h1.6l1.7,5.5,1.7-5.5h1.9l-2.6,8.6h-1.5l-2-5.9-2,5.9h-1.5Z"></path>
  <g class="cls-1">
    <g>
      <path class="cls-5" d="M34.4,128.1c0-.7-.6-1.2-1.2-1.2s-1.2.6-1.2,1.2v1c0,.7.6,1.2,1.2,1.2s1.2-.6,1.2-1.2v-1Z"></path>
      <path class="cls-5" d="M13,128.1c0-.7-.6-1.2-1.2-1.2s-1.2.6-1.2,1.2v1c0,.7.6,1.2,1.2,1.2s1.2-.6,1.2-1.2v-1Z"></path>
      <path class="cls-3" d="M27.2,134.8h-9.4c-3.3,0-6,2.7-6,6v2.5c0,3.3,2.7,6,6,6h9.4c3.3,0,6-2.7,6-6v-2.5c0-3.3-2.7-6-6-6Z"></path>
      <path class="cls-5" d="M27.1,136.6h-9.2c-1.9,0-3.5,1.6-3.5,3.5v3.8c0,1.9,1.6,3.5,3.5,3.5h9.2c1.9,0,3.5-1.6,3.5-3.5v-3.8c0-1.9-1.6-3.5-3.5-3.5Z"></path>
      <path class="cls-13" d="M25.8,120.9h-6.6c-4.1,0-7.4,3.3-7.4,7.4s3.3,7.4,7.4,7.4h6.6c4.1,0,7.4-3.3,7.4-7.4s-3.3-7.4-7.4-7.4Z"></path>
      <path class="cls-14" d="M25.1,150.4h-5.3c-.5,0-1,.4-1,1v.2c0,.5.4,1,1,1h5.3c.5,0,1-.4,1-1v-.2c0-.6-.4-1-1-1Z"></path>
      <path class="cls-4" d="M25.1,123.7h-5.3c-2.4,0-4.4,2-4.4,4.4s1.6,4.1,3.8,4.4c0,0-.1.5-.3.7-.2.2.4.1.4.1.1,0,.4,0,1.1-.8h4.8c2.4,0,4.4-2,4.4-4.5s-2-4.3-4.5-4.3h0Z"></path>
      <path class="cls-6" d="M19.7,129.4c.6,0,1-.4,1-1s-.4-1-1-1-1,.4-1,1,.4,1,1,1Z"></path>
      <path class="cls-6" d="M25.3,129.4c.6,0,1-.4,1-1s-.4-1-1-1-1,.4-1,1,.5,1,1,1Z"></path>
      <rect class="cls-2" x="18.4" y="138" width="8" height="7.7"></rect>
    </g>
  </g>
  <g class="cls-25">
    <g>
      <path class="cls-5" d="M34.4,261.3c0-.7-.6-1.2-1.2-1.2s-1.2.6-1.2,1.2v1c0,.7.6,1.2,1.2,1.2s1.2-.6,1.2-1.2v-1Z"></path>
      <path class="cls-5" d="M13,261.3c0-.7-.6-1.2-1.2-1.2s-1.2.6-1.2,1.2v1c0,.7.6,1.2,1.2,1.2s1.2-.6,1.2-1.2v-1Z"></path>
      <path class="cls-12" d="M27.2,268h-9.4c-3.3,0-6,2.7-6,6v2.5c0,3.3,2.7,6,6,6h9.4c3.3,0,6-2.7,6-6v-2.5c0-3.3-2.7-6-6-6Z"></path>
      <path class="cls-5" d="M27.1,269.9h-9.2c-1.9,0-3.5,1.6-3.5,3.5v3.8c0,1.9,1.6,3.5,3.5,3.5h9.2c1.9,0,3.5-1.6,3.5-3.5v-3.8c0-2-1.6-3.5-3.5-3.5Z"></path>
      <path class="cls-18" d="M25.8,254.1h-6.6c-4.1,0-7.4,3.3-7.4,7.4s3.3,7.4,7.4,7.4h6.6c4.1,0,7.4-3.3,7.4-7.4s-3.3-7.4-7.4-7.4Z"></path>
      <path class="cls-19" d="M25.1,283.6h-5.3c-.5,0-1,.4-1,1v.2c0,.5.4,1,1,1h5.3c.5,0,1-.4,1-1v-.2c0-.5-.4-1-1-1Z"></path>
      <path class="cls-9" d="M25.1,257h-5.3c-2.4,0-4.4,2-4.4,4.4s1.6,4.1,3.8,4.4c0,0-.1.5-.3.7-.2.2.4.1.4.1.1,0,.4,0,1.1-.8h4.8c2.4,0,4.4-2,4.4-4.5s-2-4.3-4.5-4.3h0Z"></path>
      <path class="cls-6" d="M19.7,262.6c.6,0,1-.4,1-1s-.4-1-1-1-1,.4-1,1,.4,1,1,1Z"></path>
      <path class="cls-6" d="M25.3,262.6c.6,0,1-.4,1-1s-.4-1-1-1-1,.4-1,1,.5,1,1,1Z"></path>
      <rect class="cls-2" x="18.4" y="271.3" width="8" height="7.7"></rect>
    </g>
  </g>
  <g class="cls-28">
    <g>
      <path class="cls-5" d="M34.4,392.3c0-.7-.6-1.2-1.2-1.2s-1.2.6-1.2,1.2v1c0,.7.6,1.2,1.2,1.2s1.2-.6,1.2-1.2v-1Z"></path>
      <path class="cls-5" d="M13,392.3c0-.7-.6-1.2-1.2-1.2s-1.2.6-1.2,1.2v1c0,.7.6,1.2,1.2,1.2s1.2-.6,1.2-1.2v-1Z"></path>
      <path class="cls-17" d="M27.2,399h-9.4c-3.3,0-6,2.7-6,6v2.5c0,3.3,2.7,6,6,6h9.4c3.3,0,6-2.7,6-6v-2.5c0-3.3-2.7-6-6-6Z"></path>
      <path class="cls-5" d="M27.1,400.9h-9.2c-1.9,0-3.5,1.6-3.5,3.5v3.8c0,1.9,1.6,3.5,3.5,3.5h9.2c1.9,0,3.5-1.6,3.5-3.5v-3.8c0-2-1.6-3.5-3.5-3.5Z"></path>
      <path class="cls-15" d="M25.8,385.1h-6.6c-4.1,0-7.4,3.3-7.4,7.4s3.3,7.4,7.4,7.4h6.6c4.1,0,7.4-3.3,7.4-7.4s-3.3-7.4-7.4-7.4Z"></path>
      <path class="cls-16" d="M25.1,414.6h-5.3c-.5,0-1,.4-1,1v.2c0,.5.4,1,1,1h5.3c.5,0,1-.4,1-1v-.2c0-.5-.4-1-1-1Z"></path>
      <path class="cls-10" d="M25.1,388h-5.3c-2.4,0-4.4,2-4.4,4.4s1.6,4.1,3.8,4.4c0,0-.1.5-.3.7-.2.2.4.1.4.1.1,0,.4,0,1.1-.8h4.8c2.4,0,4.4-2,4.4-4.5s-2-4.3-4.5-4.3h0Z"></path>
      <path class="cls-6" d="M19.7,393.6c.6,0,1-.4,1-1s-.4-1-1-1-1,.4-1,1,.4,1,1,1Z"></path>
      <path class="cls-6" d="M25.3,393.6c.6,0,1-.4,1-1s-.4-1-1-1-1,.4-1,1,.5,1,1,1Z"></path>
      <rect class="cls-2" x="18.4" y="402.3" width="8" height="7.7"></rect>
    </g>
  </g>
  <line class="cls-22" x1="61" y1="602" x2="404" y2="602"></line>
  <g class="cls-27">
    <image class="cls-32" width="152" height="152" transform="translate(433.1 17) scale(.3)"></image>
  </g>
  <g class="cls-26">
    <image class="cls-32" width="152" height="147" transform="translate(433.1 175.7) scale(.3)"></image>
  </g>
  <g class="cls-29">
    <image class="cls-32" width="152" height="148" transform="translate(433.1 310.6) scale(.3)"></image>
  </g>
  <g>
    <circle class="cls-20" cx="22.5" cy="405.3" r=".4"></circle>
    <line class="cls-24" x1="18.8" y1="405.9" x2="19.4" y2="405.9"></line>
    <line class="cls-24" x1="25.1" y1="405.9" x2="25.7" y2="405.9"></line>
    <line class="cls-24" x1="19.8" y1="403.6" x2="20.2" y2="404.1"></line>
    <line class="cls-24" x1="19.8" y1="408.4" x2="20.2" y2="407.9"></line>
    <line class="cls-24" x1="24.7" y1="403.6" x2="24.2" y2="404.1"></line>
    <line class="cls-24" x1="22.1" y1="402.6" x2="22.1" y2="403.2"></line>
    <line class="cls-24" x1="22.1" y1="408.8" x2="22.1" y2="409.4"></line>
    <g>
      <path class="cls-24" d="M23.9,407.1c.2-.3.3-.6.3-1,0-1-.8-1.8-1.8-1.8s-1.8.8-1.8,1.8.8,1.8,1.8,1.8.8-.1,1.1-.3"></path>
      <path class="cls-24" d="M25.3,408.6l-1.5-1.5c-.1.2-.3.3-.4.5l1.5,1.5.4-.5Z"></path>
    </g>
    <rect class="cls-23" x="25.1" y="408.8" width=".6" height=".5" transform="translate(-281.8 137.7) rotate(-45)"></rect>
  </g>
  <g>
    <circle class="cls-20" cx="22.6" cy="274.4" r=".4"></circle>
    <line class="cls-24" x1="18.9" y1="275" x2="19.5" y2="275"></line>
    <line class="cls-24" x1="25.2" y1="275" x2="25.8" y2="275"></line>
    <line class="cls-24" x1="19.9" y1="272.7" x2="20.3" y2="273.2"></line>
    <line class="cls-24" x1="19.9" y1="277.5" x2="20.3" y2="277"></line>
    <line class="cls-24" x1="24.8" y1="272.7" x2="24.3" y2="273.2"></line>
    <line class="cls-24" x1="22.2" y1="271.7" x2="22.2" y2="272.3"></line>
    <line class="cls-24" x1="22.2" y1="277.9" x2="22.2" y2="278.5"></line>
    <g>
      <path class="cls-24" d="M24,276.2c.2-.3.3-.6.3-1,0-1-.8-1.8-1.8-1.8s-1.8.8-1.8,1.8.8,1.8,1.8,1.8.8-.1,1.1-.3"></path>
      <path class="cls-24" d="M25.4,277.7l-1.5-1.5c-.1.2-.3.3-.4.5l1.5,1.5.4-.5Z"></path>
    </g>
    <rect class="cls-23" x="25.2" y="277.9" width=".6" height=".5" transform="translate(-189.2 99.5) rotate(-45)"></rect>
  </g>
  <g>
    <circle class="cls-20" cx="22.8" cy="141.3" r=".4"></circle>
    <line class="cls-24" x1="19" y1="141.8" x2="19.7" y2="141.8"></line>
    <line class="cls-24" x1="25.3" y1="141.8" x2="26" y2="141.8"></line>
    <line class="cls-24" x1="20" y1="139.6" x2="20.5" y2="140"></line>
    <line class="cls-24" x1="20" y1="144.3" x2="20.5" y2="143.9"></line>
    <line class="cls-24" x1="24.9" y1="139.6" x2="24.5" y2="140"></line>
    <line class="cls-24" x1="22.4" y1="138.5" x2="22.4" y2="139.2"></line>
    <line class="cls-24" x1="22.4" y1="144.7" x2="22.4" y2="145.4"></line>
    <g>
      <path class="cls-24" d="M24.1,143.1c.2-.3.3-.6.3-1,0-1-.8-1.8-1.8-1.8s-1.8.8-1.8,1.8.8,1.8,1.8,1.8.8-.1,1.1-.3"></path>
      <path class="cls-24" d="M25.6,144.5l-1.5-1.5c-.1.2-.3.3-.4.5l1.5,1.5.4-.5Z"></path>
    </g>
    <rect class="cls-23" x="25.3" y="144.8" width=".6" height=".5" transform="translate(-95.1 60.6) rotate(-45)"></rect>
  </g>
  <text class="cls-30" transform="translate(89.8 275.5)">
    <tspan x="0" y="0">Do you need a checkbook, too?</tspan>
  </text>
  <g id="vfxbkS.tif">
    <image id="Layer_1-2" data-name="Layer 1" width="338" height="73" transform="translate(64.9 434.8)"></image>
  </g>
</svg>
