<svg enable-background="new 0 0 960 460" viewBox="0 0 960 460" xmlns="http://www.w3.org/2000/svg" xmlns:xlink="http://www.w3.org/1999/xlink"><linearGradient id="a" gradientUnits="userSpaceOnUse" x1="480" x2="480" y1="0" y2="460"><stop offset="0" stop-color="#2990ff"/><stop offset=".18" stop-color="#2484ed"/><stop offset=".54" stop-color="#1864bf"/><stop offset="1" stop-color="#06357a"/></linearGradient><clipPath id="b"><path d="m727.5 328.4-.5 1-7.8-6.7.5-1z"/></clipPath><clipPath id="c"><path d="m717.3 327 7.8 6.7c-.2.5-.4 1-.5 1.5l-7.8-6.7c.2-.5.3-1 .5-1.5z"/></clipPath><clipPath id="d"><path d="m715.8 331.5 7.8 6.7v.1l-7.8-6.7z"/></clipPath><clipPath id="e"><path d="m757.1 300.5-.6.2-7.8-6.7.6-.2z"/></clipPath><clipPath id="f"><path d="m761.4 298.9-1 .3-7.7-6.7 1-.3z"/></clipPath><clipPath id="g"><path d="m722 350.5v.6l-7.8-6.7c0-.2 0-.4 0-.6z"/></clipPath><clipPath id="h"><path d="m714.3 345.1 7.8 6.7-1.9-1.6-5.9-5c.1 0 .1-.1 0-.1z"/></clipPath><clipPath id="i"><path d="m766.2 291 7.8 6.7c-.6-.1-1.2-.1-1.7-.1l-7.8-6.7c.5 0 1.1.1 1.7.1z"/></clipPath><clipPath id="j"><path d="m759.9 302.5 7.8 6.7c-2.5-.1-5 .2-7.4 1l-7.8-6.7c2.4-.8 4.9-1.1 7.4-1z"/></clipPath><clipPath id="k"><path d="m769.2 306 7.8 6.7c-2.6-2.2-5.9-3.4-9.3-3.5l-7.8-6.7c3.4.1 6.7 1.3 9.3 3.5z"/></clipPath><clipPath id="l"><path d="m722.1 351.8c.5 6.6 3.2 12.2 7.5 15.9l-7.8-6.7c-4.3-3.7-6.9-9.2-7.5-15.8l2.9 2.4c.3.2.7.6 1 .9l.5.4 2 1.7.5.4c.3.2.8.5.9.8z"/></clipPath><clipPath id="m"><path d="m792 312.4c.2.6.4 1.2.5 1.9l-7.8-6.7c-.2-.6-.3-1.3-.5-1.9 2.3 2.1 6.1 4.2 7.8 6.7z"/></clipPath><clipPath id="n"><path d="m792 312.4c.2.6.4 1.2.5 1.9l-7.8-6.7c-.2-.6-.3-1.3-.5-1.9 2.3 2.1 6.1 4.2 7.8 6.7z"/></clipPath><clipPath id="o"><path d="m778 295.8 7.8 6.7c3 2.6 5.1 6.1 6.2 9.9.2.6.4 1.2.5 1.9l-7.8-6.7c-.2-.6-.3-1.3-.5-1.9-1.1-3.8-3.2-7.2-6.2-9.9z"/></clipPath><clipPath id="p"><path d="m782.4 330 7.8 6.7c-.3.7-.5 1.4-.8 2l-7.8-6.7c.2-.6.5-1.3.8-2z"/></clipPath><clipPath id="q"><path d="m782.4 330 7.8 6.7c-.3.7-.5 1.4-.8 2l-7.8-6.7c.2-.6.5-1.3.8-2z"/></clipPath><clipPath id="r"><path d="m790.2 336.7c-.3.7-.6 1.4-.9 2.1l-7.8-6.7c.3-.7.6-1.4.9-2.1 3.2-8.3 3.8-16 2.3-22.4l7.8 6.7c1.5 6.4.8 14.2-2.3 22.4z"/></clipPath><clipPath id="s"><path d="m790.2 336.7c-.3.7-.6 1.4-.9 2.1l-7.8-6.7c.3-.7.6-1.4.9-2.1 3.2-8.3 3.8-16 2.3-22.4l7.8 6.7c1.5 6.4.8 14.2-2.3 22.4z"/></clipPath><clipPath id="t"><path d="m787.2 342.7c.1-.1.1-.3.2-.4s.8-1.9.9-2 .4-.8.8-1.6l.2.1c-.2.5-.5 1-.7 1.5 0 .1-.1.2-.1.2-.4.8-.7 1.5-1.1 2.2-4.8 9.1-11.8 16.8-20.3 22.4-.7.4-1.3.9-2 1.3.2-.1.8-.5 1.5-1s3.8-2.7 3.8-2.7c1-.7 2.2-1.8 3.1-2.5 2-1.7 3.8-3.6 5.6-5.5 1.7-1.9 3.2-3.9 4.6-6 1.2-1.8 2.4-3.9 3.5-6z"/></clipPath><clipPath id="u"><path d="m780.8 333.6 7.8 6.7c0 .1-.1.2-.1.2l-7.8-6.7c.1 0 .1-.1.1-.2z"/></clipPath><clipPath id="v"><path d="m780.8 333.6 7.8 6.7c0 .1-.1.2-.1.2l-7.8-6.7c.1 0 .1-.1.1-.2z"/></clipPath><clipPath id="w"><path d="m787.2 342.7c-1.1 2.1-2.3 4.2-3.7 6.1-1.4 2.1-2.9 4.1-4.6 6-1.8 1.9-3.6 3.8-5.6 5.5-.9.8-2.1 1.8-3.1 2.5 0 0-3.1 2.2-3.8 2.7s-1.2.8-1.5 1l-7.8-6.7c.7-.4 1.3-.8 2-1.3 8.6-5.6 15.6-13.3 20.3-22.4.4-.7.8-1.5 1.1-2.2 0-.1.1-.2.1-.2.2-.5.5-1 .7-1.5l7.6 6.5c-.3.8-.6 1.3-.8 1.6s-.9 2-.9 2 .1.3 0 .4z"/></clipPath><clipPath id="x"><path d="m767 365.2c-.7.4-1.3.9-2 1.3l-7.8-6.7c.7-.4 1.3-.8 2-1.3z"/></clipPath><clipPath id="y"><path d="m765.2 366.4-.2.1-7.8-6.7c.7-.4 1.3-.8 2-1.3l7.8 6.7c-.4.3-1 .7-1.8 1.2z"/></clipPath><clipPath id="z"><path d="m717.7 304.1c2.1-2 2.2-6 .2-11.5l1.9-1.8c2.1 5.6 2 9.5-.1 11.5z"/></clipPath><clipPath id="A"><path d="m672.8 256.6-.2.2 1.9-1.8.2-.2z"/></clipPath><clipPath id="B"><path d="m672.6 256.8 1.9-1.8c-.5.6-.9 1.2-1.2 1.9s-.4 1.5-.5 2.3c0 .9 0 1.7.1 2.6.2 1.5.6 3 1.2 4.5 1 2.7 2.2 5.3 3.7 7.7.9 1.5 2.3 3.5 3.3 5 .6.9 1.5 2 2.2 2.9l-1.8 1.7c-9.6-11.9-13-22.9-8.9-26.8z"/></clipPath><clipPath id="C"><path d="m671.5 258.3c.3-.6.6-1 1-1.5l1.9-1.8c-.4.4-.8.9-1 1.5l-1.2 1.1c-.2.2-.4.4-.7.7z"/></clipPath><clipPath id="D"><path d="m671.5 258.3c.6-.6 1.2-1.2 1.9-1.8 0 .1-.1.2-.1.3l-1.9 1.8c0-.1.1-.2.1-.3z"/></clipPath><clipPath id="E"><use/></clipPath><clipPath id="F"><path d="m695.8 297.7c-5.3-4.1-10.2-8.8-14.4-14.1l1.9-1.8c4.2 5.3 9 10 14.4 14.1 2.5 2 5.3 3.7 8.1 5.2 4.2 2.1 7.9 3.1 10.7 2.7l.5-.1c1-.2 1.9-.7 2.6-1.3-.8.7-1.7 1.1-2.7 1.4-.6.1-1.2.2-1.9.2-.5 0-.9 0-1.3-.1-1-.1-2-.3-3-.6-1.7-.5-3.4-1.2-5-2.1 1.6.8 3.3 1.5 5 2.1 1 .3 2 .5 3 .6.4.1.9.1 1.3.1.6 0 1.2-.1 1.9-.2.9-.3 1.8-.8 2.7-1.4l-1.9 1.8c-.7.7-1.7 1.1-2.6 1.3l-.5.1c-2.8.5-6.6-.5-10.7-2.7-2.8-1.5-5.5-3.2-8.1-5.2z"/></clipPath><clipPath id="G"><path d="m715.1 305.5-.5.1 1.7-1.6.2-.2.5-.1c1-.2 1.9-.7 2.6-1.3l-1.9 1.8c-.7.6-1.6 1.1-2.6 1.3z"/></clipPath><clipPath id="H"><path d="m670.9 260.6c.1-.7.2-1.4.5-2l1.9-1.8c-.3.6-.4 1.3-.5 2l-1.9 1.8 1.9-1.8z"/></clipPath><clipPath id="I"><path d="m670.9 261.2c0-.2 0-.4 0-.6l1.9-1.8v.6z"/></clipPath><clipPath id="J"><path d="m670.9 261.2.7-.7.7-.6.5-.5v.1l-.6.5-.2.2-.1.1-.1.1-.1.1-.1.1-.1.1-.1.1-.1.1-.1.1c-.2.1-.3.2-.3.2z"/></clipPath><clipPath id="K"><path d="m671 263.5c-.1-.7-.2-1.5-.1-2.2l1.9-1.8c0 .8 0 1.5.1 2.2z"/></clipPath><clipPath id="L"><path d="m671 263.5 1.9-1.8c-.6.6-1.3 1.2-1.9 1.8z"/></clipPath><clipPath id="M"><path d="m671.2 264.4c-.1-.3-.1-.6-.1-.9l1.9-1.8c0 .3.1.6.2.9z"/></clipPath><clipPath id="N"><path d="m671.2 264.4 1.8-1.8v.1l-.1.1-1 1-.8.7z"/></clipPath><clipPath id="O"><path d="m671.8 266.9c-.2-.8-.4-1.6-.6-2.3l.5-.4 1.4-1.4c.2.7.4 1.5.6 2.3z"/></clipPath><clipPath id="P"><path d="m671.8 266.9.3-.4.4-.3 1.2-1.1z"/></clipPath><clipPath id="Q"><path d="m672.2 268.1c-.2-.4-.3-.8-.4-1.2l1.9-1.8c.1.4.3.8.4 1.2z"/></clipPath><clipPath id="R"><path d="m672.2 268.1 1.9-1.8.1.2-1.9 1.8c-.1 0-.1-.1-.1-.2z"/></clipPath><clipPath id="S"><path d="m704.5 303.3 1.9-1.8c4 2 7.4 2.8 10.1 2.3l-1.9 1.8c-2.6.4-6.1-.4-10.1-2.3z"/></clipPath><clipPath id="T"><path d="m704.5 303.3-.1-.1c.1-.1.2-.1.2-.2l.5-.5 1.2-1.1.1.1z"/></clipPath><clipPath id="U"><path d="m673.2 270.6c-.3-.8-.7-1.6-.9-2.3l1.9-1.8c.3.7.6 1.5.9 2.3-.6.6-1.3 1.2-1.9 1.8z"/></clipPath><clipPath id="V"><path d="m673.2 270.6c.6-.6 1.3-1.2 1.9-1.8z"/></clipPath><clipPath id="W"><path d="m704.1 303.1-.3-.1 1.9-1.8.3.1.2.1-1.7 1.6c-.1.1-.1.1-.2.2z"/></clipPath><clipPath id="X"><path d="m703.9 302.9h-.2l1.9-1.8h.2z"/></clipPath><clipPath id="Y"><path d="m703.6 302.8 1.9-1.8h.1l-1.9 1.8z"/></clipPath><clipPath id="Z"><path d="m674 272.2c-.3-.5-.5-1-.7-1.5l1.9-1.8c.2.5.5 1 .7 1.5l-.3.3-.3.3z"/></clipPath><clipPath id="aa"><path d="m674 272.2.1-.1 1.1-1 .7-.6.2.4-1.1 1-.1.1-.1.1-.1.1-.2.2-.1.1-.1.1z"/></clipPath><clipPath id="ab"><path d="m676.4 276.6c-.4-.6-.7-1.2-1.1-1.8l1.9-1.8c.3.6.7 1.2 1.1 1.8z"/></clipPath><clipPath id="ac"><path d="m676.4 276.6 1.9-1.8.4.6-1.9 1.8z"/></clipPath><clipPath id="ad"><path d="m678 279 1.9-1.8c.3.4.6.8.9 1.2l-.6.5.6-.5c.2.3.4.5.6.8l-1.9 1.8c-.5-.6-1-1.3-1.5-2z"/></clipPath><clipPath id="ae"><path d="m675.3 274.7c.6-.6 1.3-1.2 1.9-1.8v.1l-.8.8-.2.2-.1.1-.2.2-.2.2z"/></clipPath><clipPath id="af"><path d="m683.3 281.9-1.9 1.8-.2-.3 1.9-1.8c.1.1.2.2.2.3z"/></clipPath><clipPath id="ag"><path d="m683.3 281.9c-9.5-12-12.9-23.1-8.8-26.9-.5.6-.9 1.2-1.2 1.9s-.4 1.5-.5 2.3c0 .9 0 1.7.1 2.6.2 1.5.6 3 1.2 4.5 1 2.7 2.2 5.3 3.7 7.7.9 1.5 2.3 3.5 3.3 5 .6.9 1.5 2.1 2.2 2.9z"/></clipPath><clipPath id="ah"><path d="m675.3 274.7c-.4-.7-.8-1.4-1.2-2.1l1.9-1.8c.3.7.7 1.4 1.2 2.1-.6.6-1.3 1.2-1.9 1.8z"/></clipPath><clipPath id="ai"><path d="m695.9 297.8 1.9-1.8c2.4 1.9 5 3.5 7.8 5l-1.9 1.8c-2.8-1.5-5.4-3.2-7.8-5z"/></clipPath><clipPath id="aj"><use/></clipPath><clipPath id="ak"><use/></clipPath><clipPath id="al"><path d="m678 279c-.4-.6-.8-1.2-1.2-1.8l1.9-1.8c.4.6.8 1.2 1.2 1.8z"/></clipPath><clipPath id="am"><path d="m679.5 281 1.9-1.8c.5.7 1 1.4 1.5 2l-1.9 1.8c-.5-.6-1-1.3-1.5-2z"/></clipPath><clipPath id="an"><path d="m681.2 283.4-.2-.3 1.9-1.8.2.3z"/></clipPath><path d="m0 0h960v460h-960z" fill="url(#a)"/><path d="m600.8 335.3-7.6 6.3c-.6.5-.7 1.4-.2 2 .2.2.4.3.6.4l9.2 3.4c.7.3 1.5-.1 1.8-.8.1-.2.1-.5.1-.7l-1.7-9.7c-.1-.8-.9-1.3-1.6-1.1-.2 0-.4.1-.6.2z" fill="#ffc700"/><path d="m368 101.2-7.6 6.3c-.6.5-.7 1.4-.2 2 .2.2.4.3.6.4l9.2 3.4c.7.3 1.5-.1 1.8-.8.1-.2.1-.5.1-.7l-1.7-9.7c-.1-.8-.9-1.3-1.6-1.1-.2 0-.4.1-.6.2z" fill="#ffc700"/><path d="m617.2 151.7h-127.7v-42.9c35.9-1.1 65.9-24 102.6-22.3 1.3.1 2.7.2 4 .3l-.8-2.8-14.5-47.6-.8-2.8c-1.3-.5-2.5-.9-3.8-1.3-31-9.5-57.1 2.4-86.7-.9v-9.9c0-2.2-21.1-2.2-21.1 0v130h-127.6v49.7h-82.9v45.5h20.5v180.9h-20.5v32.4h442.3v-32.2h-20.5v-180.9h20.5v-45.5h-82.9zm-303 277v-100.8c0-14.3 11.6-25.9 25.9-25.9h1.4c14.3 0 25.9 11.6 25.9 25.9v100.8zm92.2 0v-100.8c0-14.3 11.6-25.9 25.9-25.9h1.4c14.3 0 25.9 11.6 25.9 25.9v100.8zm92.1 0v-100.8c0-14.3 11.6-25.9 25.9-25.9h1.4c14.3 0 25.9 11.6 25.9 25.9v100.8zm145.3 0h-53.1v-100.8c0-14.3 11.6-25.9 25.9-25.9h1.4c14.3 0 25.9 11.6 25.9 25.9z" fill="#fff" opacity=".1"/><g opacity=".15"><path d="m517.3 239v1.4c-.4 7.5-3.6 14-8.2 17.6-2.2 1.7-4.8 2.6-7.5 2.8h-.3c-5.2 0-9.9-3.4-12.8-8.5-.4-.7-.8-1.5-1.1-2.2-1.3-.2-2.5-.1-3.8.2-3.2.7-6.5 2.8-9.7 6.3v43.5h-55.4c1.2 5.4-1.3 11-6.9 11.6-.6.1-1.1.1-1.7 0 1.6 6 2.2 12.2 1.8 18.3-1.1 14.7-7.6 28.1-13.2 41.5-3.5 8.4-7.1 16.9-10.6 25.3-.7 1.6-1.4 3.3-2.1 5l3.9 1 11.8 3.1-5.1 19.4 7.3 1.9-8.7 32.8h-102.3l15.5-58.2 7.2 1.9 1.4-5.2 3.8-14.2 2.7.7 14 3.7c1.1-1.5 2.1-3.1 3-4.7 3.9-7 6.1-14.9 5.1-22.8-2.3-18.1-9.7-36.8-15.2-54.2-3.1-9.7-4.3-16.7 1.2-25.9 3.9-6.5 8.1-12.8 12.5-19 3.4-4.9 6.9-9.7 10.5-14.4v-67.5h43.5c4.9 4.5 7 9 6.4 13.5-6.4 2.8-10.8 8-10.8 13.9v.3c.1 2 .6 4 1.6 5.8 3.2 5.9 11 10 20.1 10 11.9 0 21.5-7 21.7-15.8 0-.1 0-.2 0-.3 0-5.9-4.3-11.1-10.8-13.9-.6-4.5 1.6-9 6.4-13.5h41.3v41.3c4.5 4.9 9 7 13.5 6.4 2.8-6.4 8-10.8 13.9-10.8h.3c.7 0 1.3.1 2 .2 7.9 1.7 13.8 10.7 13.8 21.7z"/><path d="m591.9 72.4 15.7 4.2c-4.2 10.1-8.4 20.2-12.7 30.3-3.9 9.4-8.3 18.8-10.9 28.7-1.9-.4-3.8-.6-5.7-.6-11.8 0-21.5 7-21.7 15.8v.3c0 5.9 4.3 11.1 10.8 13.9.6 4.5-1.6 9-6.4 13.5h-41.3v41.3c4.5 4.9 9 7 13.5 6.4 2.8-6.4 8-10.8 13.9-10.8h.3c8.7.2 15.8 9.9 15.8 21.7s-7 21.5-15.8 21.7h-.4c-5.9 0-11.1-4.3-13.9-10.8-4.5-.6-9 1.6-13.5 6.4v43.6h119.6v-67.5c8-10.9 16-21.9 22.9-33.4 5.5-9.2 4.3-16.2 1.2-26-5.5-17.3-12.9-36-15.2-54.1-1.3-9.8 2.4-19.5 8-27.6l16.7 4.4 5.2-19.3-81-21.5z"/><path d="m707.3 0-22 76.5-7.3-2-11.8-3.1-69.2-18.4-7.2-1.9 1.5-5.2 13.6-45.9z"/></g><path d="m404.2 284.2c1.2 1.6 2.2 3.2 3 5 2.9 6.2.6 13.7-6 14.5-7.2.8-12.7-6.8-15-13.7-1.2-3.5-1.1-7.8 1-10.6 3.5-4.7 10-2.4 13.6 1 1.2 1 2.4 2.3 3.4 3.8z" fill="#7f5e54"/><path d="m463.5 248.5c4.5-4.9 9-7 13.5-6.4 2.8 6.4 8 10.8 13.9 10.8h.3c8.7-.2 15.8-9.9 15.8-21.7s-7-21.5-15.8-21.7h-.3c-5.9 0-11.1 4.3-13.9 10.8-4.5.6-9-1.6-13.5-6.4v-41.3h-41.3c-4.9 4.5-7 9-6.4 13.5 6.4 2.8 10.8 8 10.8 13.9v.3c-.2 8.7-9.9 15.8-21.7 15.8s-21.5-7-21.7-15.8c0-.1 0-.2 0-.3 0-5.9 4.3-11.1 10.8-13.9.6-4.5-1.6-9-6.4-13.5h-43.5v119.4h119.6v-43.5z" fill="#eee"/><path d="m391.3 274.5c-2.5-10.7-4.3-21.5-6.6-32.4-1.8-8.3-5.4-26.2-17.1-25-4.7.5-9.4 5.3-10.9 9.6-3.4 9.9 1 20 2.7 29.8 1.6 10.3.8 20.9-2.2 30.9l-13.3-12.3v-35.4c-8 10.9-16 21.9-22.9 33.5-5.5 9.2-4.3 16.2-1.2 25.9 5.5 17.3 12.9 36 15.2 54.2 1.7 13.4-5.8 26.8-15.1 35.9l54.9 12.6v-6.3c4.5-10.7 8.9-21.3 13.4-32 5.6-13.4 12-26.9 13.2-41.5 1-13.1-3.7-24.8-7.3-37.2-1.1-3.4-2-6.8-2.8-10.3z" fill="#997163"/><path d="m360.3 226.6c2.6-5.7 9.8-9.1 14.4-3.2 2.4 3.1 5.9 9.3 1.8 12.5-2.9 2.2-7.4 2.9-10.9 2.8-6.4-.1-7.4-6.4-5.6-11.4.1-.1.2-.4.3-.7z" fill="#bc8b7d"/><path d="m338.2 357.4h20.1v84.1h-20.1z" fill="#eee" transform="matrix(.2589 -.9659 .9659 .2589 -127.7949 632.3828)"/><path d="m393.3 418.9-11 41.1h-102.2l17.7-66.5 7.2 1.9 11.9 3.1 29.1 7.8 40 10.6z" fill="#06357a"/><path d="m585.3 170.6c-4.9-4.5-7-9-6.4-13.5 6.4-2.8 10.8-8 10.8-13.9 0-.1 0-.2 0-.3-.2-8.7-9.9-15.8-21.7-15.8s-21.5 7-21.7 15.8v.3c0 5.9 4.3 11.1 10.8 13.9.6 4.5-1.6 9-6.4 13.5h-41.4v41.3c4.5 4.8 9 7 13.5 6.4 2.8-6.4 8-10.8 13.9-10.8h.3c8.7.2 15.8 9.9 15.8 21.7s-7 21.5-15.8 21.7h-.3c-5.9 0-11.1-4.3-13.9-10.8-4.5-.6-9 1.6-13.5 6.4v43.5h119.6v-119.4z" fill="#00b3e3"/><path d="m581.3 188.1c2.5 10.7 4.3 21.5 6.6 32.3 1.8 8.3 5.4 26.2 17.1 25 4.7-.5 9.4-5.3 10.9-9.6 3.4-9.9-1-20-2.7-29.8-1.6-10.3-.8-20.9 2.2-30.9l13.3 12.1v35.5c8-10.9 16-21.9 22.9-33.4 5.5-9.2 4.3-16.2 1.2-25.9-5.5-17.3-12.9-36-15.2-54.1-1.7-13.4 5.8-26.8 15.1-35.9l-54.9-12.6v6.2l-13.4 32c-5.6 13.4-12 26.9-13.2 41.5-1 13.1 3.7 24.8 7.3 37.2 1.1 3.5 2 6.9 2.8 10.4z" fill="#ffc295"/><path d="m612.2 236c-2.6 5.7-9.8 9.1-14.4 3.2-2.4-3.1-5.9-9.3-1.8-12.5 2.8-2.2 7.4-2.9 10.9-2.8 6.3.1 7.4 6.4 5.6 11.4 0 .1-.1.4-.3.7z" fill="#ffd9bf"/><path d="m614.2 23h20v83.8h-20z" fill="#06357a" transform="matrix(.2571 -.9664 .9664 .2571 400.9504 651.4155)"/><path d="m692.9 0-18.1 68.1-7.3-1.9-80.9-21.5-7.3-2 11.4-42.7z" fill="#eee"/><path d="m231.4 92.7v13.5c0 1.6 1.3 2.8 2.8 2.8h5.1c.7 0 1.3.5 1.4 1.1 1 3.7 2.6 7.1 4.6 10.3l-4.3 4.3c-1.1 1.1-1.1 2.9 0 4l9.6 9.6c1.1 1.1 2.9 1.1 4 0l4.4-4.4c3.6 2.1 7.5 3.7 11.6 4.6v6c0 1.6 1.3 2.8 2.8 2.8h13.6c1.6 0 2.8-1.3 2.8-2.8v-6.2c4.1-1 7.9-2.7 11.5-4.9l4.3 4.3c1.1 1.1 2.9 1.1 4 0l9.6-9.6c1.1-1.1 1.1-2.9 0-4l-3.6-3.6c-.5-.5-.6-1.2-.2-1.8 1.7-3 2.9-6.1 3.8-9.4.2-.7.8-1.1 1.4-1.1h4.9c1.6 0 2.8-1.3 2.8-2.8v-13.6c0-1.5-1.2-2.8-2.8-2.8h-5.1c-.7 0-1.3-.5-1.4-1.1-.9-3.3-2.3-6.4-4-9.3-.4-.6-.3-1.3.2-1.8l3.4-3.4c1.1-1.1 1.1-2.9 0-4l-9.6-9.6c-1.1-1.1-2.9-1.1-4 0l-4.4 4.4c-3.3-1.9-6.8-3.4-10.4-4.3-.6-.2-1.1-.8-1.1-1.4v-4.9c0-1.6-1.3-2.8-2.8-2.8h-13.6c-1.6 0-2.8 1.3-2.8 2.8v5.1c0 .7-.5 1.3-1.1 1.4-3.3.9-6.4 2.3-9.4 4-.6.4-1.3.3-1.8-.2l-3.4-3.4c-1.1-1.1-2.9-1.1-4 0l-9.6 9.6c-1.1 1.1-1.1 2.9 0 4l3.6 3.6c.5.5.6 1.2.2 1.8-1.7 3-2.9 6.2-3.8 9.4-.2.7-.8 1.1-1.4 1.1h-4.9c-1.6-.1-2.9 1.2-2.9 2.7zm29-5.6c1.7-3.1 4.2-5.7 7.3-7.4 21.3-11.4 42.8 10 31.5 31.4-1.7 3.1-4.2 5.7-7.4 7.4-21.3 11.2-42.7-10.1-31.4-31.4z" fill="#00b3e3"/><path d="m175 141.5v7.2c0 .8.7 1.5 1.5 1.5h2.7c.4 0 .7.2.8.6.6 1.9 1.4 3.8 2.5 5.5l-2.3 2.3c-.6.6-.6 1.5 0 2.1l5.1 5.1c.6.6 1.5.6 2.1 0l2.4-2.4c1.9 1.1 4 2 6.2 2.5v3.2c0 .8.7 1.5 1.5 1.5h7.2c.8 0 1.5-.7 1.5-1.5v-3.3c2.2-.5 4.2-1.4 6.1-2.6l2.3 2.3c.6.6 1.5.6 2.1 0l5.1-5.1c.6-.6.6-1.5 0-2.1l-1.9-1.9c-.3-.3-.3-.7-.1-1 .9-1.6 1.6-3.3 2-5 .1-.4.4-.6.8-.6h2.6c.8 0 1.5-.7 1.5-1.5v-7.3c0-.8-.7-1.5-1.5-1.5h-2.7c-.4 0-.7-.2-.8-.6-.5-1.8-1.2-3.4-2.1-5-.2-.3-.2-.7.1-1l1.8-1.8c.6-.6.6-1.5 0-2.1l-5.1-5.1c-.6-.6-1.5-.6-2.1 0l-2.4 2.4c-1.7-1-3.6-1.8-5.6-2.3-.4-.1-.6-.4-.6-.8v-2.6c0-.8-.7-1.5-1.5-1.5h-7.2c-.8 0-1.5.7-1.5 1.5v2.7c0 .4-.2.7-.6.8-1.8.5-3.4 1.2-5 2.1-.3.2-.7.2-1-.1l-1.8-1.8c-.6-.6-1.5-.6-2.1 0l-5.1 5.1c-.6.6-.6 1.5 0 2.1l1.9 1.9c.3.2.3.6.1.9-.9 1.6-1.5 3.3-2 5-.1.4-.4.6-.8.6h-2.6c-.8 0-1.5.6-1.5 1.5zm15.4-3c.9-1.7 2.2-3 3.9-3.9 11.4-6.1 22.8 5.3 16.8 16.7-.9 1.7-2.3 3-3.9 3.9-11.3 6-22.7-5.4-16.8-16.7z" fill="#ffc700"/><path d="m727.5 328.4-.5 1z" fill="#ced6d9"/><path d="m756.5 300.7.6-.2z" fill="#94999b"/><g clip-path="url(#b)"><path d="m719.7 321.7 7.8 6.7-.5 1-7.8-6.7z" fill="#a9b0b2"/></g><g clip-path="url(#c)"><path d="m717.3 327 7.8 6.7c-.2.5-.4 1-.5 1.5l-7.8-6.7c.2-.5.3-1 .5-1.5" fill="#a9b0b2"/></g><path d="m717.3 327c-.2.5-.4 1-.5 1.5.2-.5.3-1 .5-1.5z" fill="#94999b"/><g clip-path="url(#d)"><path d="m715.8 331.5 7.8 6.7v.1l-7.8-6.7z" fill="#adb4b6"/></g><g clip-path="url(#e)"><path d="m749.3 293.8 7.8 6.7-.6.2-7.8-6.7z" fill="#979d9f"/></g><g clip-path="url(#f)"><path d="m753.7 292.2 7.8 6.7-1 .3-7.8-6.7z" fill="#393ca6"/></g><path d="m772.2 297.6c.6 0 1.2.1 1.7.1-.6-.1-1.1-.1-1.7-.1z" fill="#9969f3"/><g clip-path="url(#g)"><path d="m714.3 343.9 7.8 6.7v.6l-7.8-6.7c0-.3 0-.5 0-.6" fill="#c8a756"/></g><path d="m714.3 343.9v.6c0-.3 0-.5 0-.6z" fill="#f3cc68"/><g clip-path="url(#h)"><path d="m714.3 345.1 7.8 6.7c.2 2.3.6 4.5 1.4 6.7l-7.8-6.7c-.7-2.2-1.2-4.4-1.4-6.7" fill="#c8a756"/></g><path d="m753.7 292.2 7.7 6.7-1.2 11.2-7.7-6.7z" fill="#c5c7a0"/><g clip-path="url(#i)"><path d="m766.2 291 7.8 6.7c-.6-.1-1.2-.1-1.7-.1l-7.8-6.7c.5 0 1.1 0 1.7.1" fill="#734fb8"/></g><g clip-path="url(#j)"><path d="m759.9 302.5 7.8 6.7c-2.5-.1-5 .2-7.4 1l-7.8-6.7c2.4-.8 4.9-1.1 7.4-1" fill="#f4901e"/></g><path d="m752.7 292.5 1-.3c3.5-1.1 7.1-1.5 10.8-1.4l-4.5 11.6c-2.5-.1-5 .2-7.4 1l1.2-11.2z" fill="#fec12f"/><path d="m764.4 290.9 7.8 6.7-4.5 11.6-7.8-6.7z" fill="#3fb94a"/><g clip-path="url(#k)"><path d="m769.2 306 7.8 6.7c-2.6-2.2-5.9-3.4-9.3-3.5l-7.8-6.7c3.4.1 6.7 1.3 9.3 3.5" fill="#96a2bd"/></g><path d="m739 326.6c.3-.5.7-1 1-1.5l.2-.4c.2-.3.4-.5.6-.8l.9-1.1c.2-.2.4-.5.6-.7.3-.4.6-.7 1-1.1l.6-.6c.4-.4.8-.8 1.2-1.2l.4-.4c.5-.5 1.1-1 1.7-1.5s.9-.7 1.3-1.1l.3-.3 1.1-.8.3-.2c.5-.3 1-.7 1.5-1l.2-.1c.4-.3.9-.5 1.3-.8l.3-.2c.5-.3 1-.5 1.5-.8l.3-.1c.4-.2.9-.4 1.3-.6l.2-.1c.5-.2 1-.4 1.5-.6l.3-.1c.5-.2 1-.4 1.5-.5l-7.8-6.7c-.5.1-1 .3-1.5.5l-.3.1c-.5.2-1 .4-1.5.6l-.2.1c-.5.2-.9.4-1.3.6l-.3.1c-.5.2-1 .5-1.5.8l-.3.2c-.4.2-.9.5-1.3.8l-.2.1-.1.1c-.5.3-.9.6-1.3.9-.1.1-.2.2-.4.3-.4.3-.8.5-1.1.8l-.3.3-1.3 1-.1.1c-.6.5-1.1 1-1.7 1.5l-.4.4c-.4.4-.8.8-1.2 1.2l-.2.2-.4.4c-.3.4-.6.7-.9 1.1s-.4.4-.6.7-.6.8-.9 1.1l-.3.4-.2.4-.2.3c-.3.5-.7 1-1 1.5-.3.5-.6 1-1 1.5l-.2.4c-.1.1-.1.2-.2.3-.2.4-.5.9-.7 1.3-.7 1.3-1.3 2.6-1.8 4-.2.6-.5 1.3-.7 1.9-.2.5-.3 1.1-.5 1.6 0 .1-.1.2-.1.4-.1.5-.3 1.1-.4 1.6v.1c-.1.5-.2 1-.2 1.5v.4c-.1.5-.1 1-.2 1.5v.2 1.3.3.2.6s0 .6 0 .9 0 .5.1.7.1.6.1.8.1.5.1.7.1.5.2.8l.2.7c.1.3.1.5.2.8 0 .1 0 .2.1.2.1.3.2.5.3.8v.1c.2.4.3.8.5 1.1 0 .1.1.2.1.3.2.3.3.6.5.9 0 .1.1.1.1.2v.1c.2.3.4.6.6.9l.2.2c.2.3.5.6.8.9l.1.1.4.4c.2.1.3.3.5.4l7.8 6.7c-.3-.3-.6-.6-.9-.9l-.1-.1c-.3-.3-.5-.6-.8-.9l-.2-.2c-.2-.3-.5-.6-.7-1l-.1-.2c-.2-.3-.3-.6-.5-.9l-.2-.3c-.2-.4-.4-.8-.5-1.1v-.1c-.1-.3-.2-.7-.4-1s-.2-.5-.2-.8-.1-.5-.2-.7-.1-.5-.2-.8-.1-.5-.1-.7-.1-.6-.1-.9 0-.5-.1-.7 0-.6 0-.9 0-.5 0-.8c0-.1 0-.2 0-.3 0-.4 0-.9 0-1.3 0-.1 0-.1 0-.2 0-.5.1-1 .2-1.5 0-.1 0-.2 0-.3.1-.5.2-1 .2-1.5v-.1c.1-.5.2-1.1.4-1.6 0-.1.1-.2.1-.4.1-.5.3-1.1.5-1.6s.4-1.2.7-1.9c.5-1.4 1.1-2.7 1.8-4 .3-.5.6-1.1.9-1.6l.2-.4c.5-.4.8-.9 1.1-1.4z" fill="#bfd8f1"/><g clip-path="url(#l)"><path d="m714.3 345.1 7.8 6.7c.2 2.3.6 4.5 1.4 6.7l-7.8-6.7c-.7-2.2-1.2-4.4-1.4-6.7" fill="#c8a756"/><path d="m715.7 351.8 7.8 6.7c.6 1.8 1.4 3.4 2.4 5l-7.8-6.7c-1-1.6-1.8-3.3-2.4-5" fill="#c5a555"/><path d="m718.1 356.8 7.8 6.7c.9 1.3 1.9 2.6 3 3.7l-7.8-6.7c-1.1-1.2-2.1-2.4-3-3.7" fill="#c2a354"/><path d="m721.2 360.4 7.8 6.7.7.6-7.8-6.7z" fill="#bfa153"/></g><path d="m720.1 321c6.3-12.1 16.9-22.1 28.6-27l.6-.2 1.1-.4.8-.3 1.6-.5 1-.3-1.2 11.2c-9.1 2.6-18.2 10.3-23.3 20-.7 1.3-1.3 2.6-1.8 4-5.6 14.4 0 26.5 12.4 27.1 4.9.2 10.2-1.4 15.1-4.4l2.3 9.7c-7.1 4.3-14.7 6.6-21.9 6.3-.8 0-1.5-.1-2.3-.2l-.6-.1c-.6-.1-1.1-.2-1.7-.3l-.9-.2c-.3-.1-.6-.2-.8-.2-8.7-2.7-13.9-10.1-14.7-19.9 0-.2 0-.5 0-.6s0-.4 0-.6c-.1-3.6.3-7.3 1.1-10.8.1-.5.2-1 .4-1.4.1-.3.1-.5.2-.6s.2-.5.2-.8.2-.8.4-1.2l.2-.4c.2-.5.4-1 .5-1.5.4-1.1.8-2 1.2-2.9 0-.1.1-.2.2-.4.2-.4.3-.7.5-1l.5-1z" fill="#e4efff"/><path d="m784.7 307.6 7.8 6.7-10.8 6.5-7.7-6.7z" fill="#2dbc42"/><g clip-path="url(#m)"><path d="m784.2 305.8 7.8 6.7c.8 2.7 1.3 5.5 1.3 8.4l-7.8-6.7c0-2.9-.5-5.7-1.3-8.4" fill="#613dcd"/></g><g clip-path="url(#n)"><path d="m784.2 305.8 7.8 6.7c.8 2.7 1.3 5.5 1.3 8.4l-7.8-6.7c0-2.9-.5-5.7-1.3-8.4" fill="#c9c4bb"/></g><path d="m778 295.8 7.8 6.7c3 2.6 5.1 6.1 6.2 9.9.2.6.4 1.2.5 1.9l-7.8-6.7c-.2-.6-.3-1.3-.5-1.9-1.1-3.8-3.2-7.2-6.2-9.9z" fill="#96a2bd"/><g clip-path="url(#o)"><path d="m778 295.8 7.8 6.7.6.6-7.8-6.7z" fill="#1f70be"/><g fill="#96a2bd"><path d="m778.6 296.4 7.8 6.7c1.1 1 2.1 2.2 2.9 3.5l-7.8-6.7c-.8-1.3-1.8-2.5-2.9-3.5"/><path d="m781.5 299.9 7.8 6.7c1 1.6 1.8 3.3 2.4 5.1l-7.7-6.7c-.6-1.8-1.4-3.5-2.5-5.1"/><path d="m784 305 7.8 6.7c.1.3.2.5.2.8.2.6.4 1.2.5 1.9l-7.8-6.7c-.2-.6-.3-1.3-.5-1.9 0-.3-.1-.5-.2-.8"/></g></g><path d="m782.4 330 7.7 6.7-10-.5-7.7-6.7z" fill="#bb8f37"/><g clip-path="url(#p)"><path d="m782.4 330 7.8 6.7c-.3.7-.5 1.4-.8 2l-7.8-6.7c.2-.7.5-1.4.8-2" fill="#3bcaab"/></g><g clip-path="url(#q)"><path d="m782.4 330 7.8 6.7c-.3.7-.5 1.4-.8 2l-7.8-6.7c.2-.7.5-1.3.8-2" fill="#5d6572"/></g><g clip-path="url(#r)"><path d="m784.2 305.8 7.8 6.7c.8 2.7 1.3 5.5 1.3 8.4l-7.8-6.7c0-2.9-.5-5.7-1.3-8.4" fill="#c9c9c9"/><path d="m785.5 314.1 7.8 6.7c0 4.5-.7 8.9-2.2 13.2l-7.8-6.7c1.5-4.2 2.2-8.7 2.2-13.2" fill="#ccc"/><path d="m783.3 327.3 7.8 6.7c-.3.9-.6 1.8-1 2.7-.3.7-.6 1.4-.9 2.1l-7.8-6.7c.3-.7.6-1.4.9-2.1.4-.9.7-1.8 1-2.7" fill="#c9c9c9"/></g><path d="m790.2 336.7c-.3.7-.6 1.4-.9 2.1l-7.8-6.7c.3-.7.6-1.4.9-2.1 3.2-8.3 3.8-16 2.3-22.4l7.8 6.7c1.5 6.4.8 14.2-2.3 22.4z" fill="#00b3e3"/><g clip-path="url(#s)" fill="#00b3e3"><path d="m784.2 305.8 7.8 6.7c.8 2.7 1.3 5.5 1.3 8.4l-7.8-6.7c0-2.9-.5-5.7-1.3-8.4"/><path d="m785.5 314.1 7.8 6.7c0 4.5-.7 8.9-2.2 13.2l-7.8-6.7c1.5-4.2 2.2-8.7 2.2-13.2"/><path d="m783.3 327.3 7.8 6.7c-.3.9-.6 1.8-1 2.7-.3.7-.6 1.4-.9 2.1l-7.8-6.7c.3-.7.6-1.4.9-2.1.4-.9.7-1.8 1-2.7"/></g><path d="m774 314.1 10.8-6.5c-.2-.6-.3-1.3-.5-1.9 2.1 6.7 1.7 15.2-1.8 24.3-.3.7-.6 1.4-.9 2.1v-.1c.3-.7.6-1.3.8-2l-10-.5c2.2-5.7 2.6-11 1.6-15.4z" fill="#5dc9e2"/><path d="m764.4 290.9c.6 0 1.2.1 1.7.1 9.2 1 15.4 6.1 18.1 14.7.2.6.4 1.2.5 1.9l-10.7 6.4c-1.6-6.7-6.5-11.2-14-11.6z" fill="#b0bfde"/><path d="m765 366.5c.7-.4 1.3-.8 2-1.3-.7.5-1.3.9-2 1.3z" fill="#535c68"/><g clip-path="url(#t)"><path d="m781.5 332.1 7.8 6.7c-.2.5-.5 1-.7 1.5 0 .1-.1.2-.1.2-.4.8-.7 1.5-1.1 2.2s-.7 1.3-1 1.9l-7.8-6.7c.4-.6.7-1.3 1-1.9s.8-1.5 1.1-2.2c0-.1.1-.2.1-.2.3-.4.5-.9.7-1.5" fill="#3bcaab"/><path d="m778.5 338.1 7.8 6.7c-1.2 2.2-2.6 4.3-4.1 6.3l-7.8-6.7c1.5-2.1 2.9-4.2 4.1-6.3" fill="#3ac8a7"/><path d="m774.4 344.3 7.8 6.7c-1.3 1.7-2.7 3.4-4.2 5l-7.8-6.7c1.5-1.6 2.9-3.2 4.2-5" fill="#39c5a5"/><path d="m770.2 349.4 7.8 6.7c-1.5 1.6-3.2 3.2-4.9 4.6l-7.8-6.7c1.7-1.5 3.4-3 4.9-4.6" fill="#38c2a3"/><path d="m765.3 354 7.8 6.7c-1.9 1.6-3.9 3.1-6.1 4.5l-.6.4-7.8-6.7.6-.4c2.2-1.4 4.2-2.9 6.1-4.5" fill="#38bfa1"/><path d="m758.6 358.9 7.8 6.7-1.4.9-7.8-6.7z" fill="#36bc9f"/></g><path d="m754.9 350.1 7.8 6.7 2.3 9.7-7.8-6.7z" fill="#92a4b7"/><path d="m735.3 366.1c-.8 0-1.5-.1-2.3-.2l-.6-.1c-.6-.1-1.1-.2-1.7-.3l-.9-.2c-.3-.1-.6-.2-.8-.2l-.4-.1c-2.5-.8-4.8-2.1-6.8-3.8l1.3 1.1-.5-.3-.3-.2c-.2-.2-.5-.4-.7-.6l-.1-.1 7.8 6.7.1.1c.2.2.5.4.7.6l.3.2.5.4.4.2.5.3.4.2.5.3.4.2.5.3.4.2.5.2.5.2c.2.1.3.1.5.2l.5.2.4.1h.2.2l.8.2.9.2c.5.1 1.1.2 1.7.3l.6.1c.8.1 1.5.2 2.3.2 7.1.3 14.8-2 21.9-6.3l-7.8-6.7c-7.1 4.4-14.7 6.7-21.9 6.4z" fill="#b1c8df"/><g clip-path="url(#u)"><path d="m780.8 333.6 7.8 6.7c0 .1-.1.2-.1.2l-7.8-6.7c.1 0 .1-.1.1-.2" fill="#c8a756"/></g><g clip-path="url(#v)"><path d="m780.8 333.6 7.8 6.7c0 .1-.1.2-.1.2l-7.8-6.7c.1 0 .1-.1.1-.2" fill="#bbc5c9"/></g><g clip-path="url(#w)"><path d="m781.5 332.1 7.8 6.7c-.2.5-.5 1-.7 1.5 0 .1-.1.2-.1.2-.4.8-.7 1.5-1.1 2.2s-.7 1.3-1 1.9l-7.8-6.7c.4-.6.7-1.3 1-1.9s.8-1.5 1.1-2.2c0-.1.1-.2.1-.2.3-.4.5-.9.7-1.5" fill="#3bcaab"/><path d="m778.5 338.1 7.8 6.7c-1.2 2.2-2.6 4.3-4.1 6.3l-7.8-6.7c1.5-2.1 2.9-4.2 4.1-6.3" fill="#3ac8a7"/><path d="m774.4 344.3 7.8 6.7c-1.3 1.7-2.7 3.4-4.2 5l-7.8-6.7c1.5-1.6 2.9-3.2 4.2-5" fill="#39c5a5"/><path d="m770.2 349.4 7.8 6.7c-1.5 1.6-3.2 3.2-4.9 4.6l-7.8-6.7c1.7-1.5 3.4-3 4.9-4.6" fill="#38c2a3"/><path d="m765.3 354 7.8 6.7c-1.9 1.6-3.9 3.1-6.1 4.5l-.6.4-7.8-6.7.6-.4c2.2-1.4 4.2-2.9 6.1-4.5" fill="#38bfa1"/><path d="m758.6 358.9 7.8 6.7-1.4.9-7.8-6.7z" fill="#36bc9f"/></g><g clip-path="url(#x)"><path d="m759.2 358.5 7.8 6.7-.6.4-7.8-6.7z" fill="#57606b"/><path d="m758.6 358.9 7.8 6.7c-.5.3-.9.6-1.4.9l-7.8-6.7z" fill="#545d69"/></g><path d="m765.2 366.4-.2.1-7.8-6.7c.7-.4 1.3-.8 2-1.3l7.8 6.7c-.4.3-1 .7-1.8 1.2z" fill="#38bfa1"/><g clip-path="url(#y)" fill="#38bfa1"><path d="m759.2 358.5 7.8 6.7-.6.4-7.8-6.7z"/><path d="m758.6 358.9 7.8 6.7c-.5.3-.9.6-1.4.9l-7.8-6.7z"/></g><path d="m754.9 350.1c6.6-4 12-9.8 15.6-16.6.7-1.3 1.3-2.6 1.8-3.9l10 .5c-.3.7-.5 1.4-.8 2v.1c-.2.5-.5 1-.7 1.5 0 .1-.1.2-.1.2-.4.8-.7 1.5-1.1 2.2-4.7 9.1-11.8 16.8-20.3 22.4-.7.4-1.3.9-2 1.3z" fill="#48f7d0"/><path d="m717.7 304.1c2.1-2 2.2-6 .2-11.5l1.9-1.8c2.1 5.6 2 9.5-.1 11.5z" fill="#b1c8df"/><g clip-path="url(#z)" fill="#b1c8df"><path d="m719.6 302.4-1.9 1.8c1.2-1.3 1.8-3 1.6-4.7l1.9-1.8c.2 1.7-.4 3.4-1.6 4.7"/><path d="m721.3 297.6-1.9 1.8c0-.9-.1-1.8-.3-2.7l1.9-1.8c.1.9.3 1.8.3 2.7"/><path d="m721 294.9-1.9 1.8c-.2-.9-.4-1.8-.7-2.7l1.9-1.8c.3.9.5 1.8.7 2.7"/><path d="m720.3 292.3-1.9 1.8c-.2-.5-.3-.9-.5-1.4l1.9-1.8c.2.4.3.9.5 1.4"/></g><path d="m710.6 275.6-1.9 1.8-13.6 3.1 1.9-1.8z" fill="#39737e"/><path d="m710.6 275.6.2.3c3.8 4.5 6.8 9.6 8.9 15l-22.7-12.2z" fill="#00b3e3"/><path d="m697 278.7-1.9 1.8-20-25 1.9-1.8z" fill="#4f9eae"/><path d="m719.8 290.9-1.9 1.7-22.8-12.1 1.9-1.8z" fill="#a3a4a5"/><path d="m688.1 256.3c7.2 3.7 15.6 10.7 22.5 19.3l-13.6 3.1-20-25c2.8-.6 6.7.4 11.1 2.6z" fill="#5dc9e2"/><path d="m672.8 256.6-.3.2 1.9-1.8.3-.2z" fill="#b1c8df"/><g clip-path="url(#A)"><path d="m674.7 254.8-1.9 1.8-.3.2 1.9-1.8z" fill="#b1c8df"/></g><path d="m672.6 256.8 1.9-1.8c-.5.6-.9 1.2-1.2 1.9s-.4 1.5-.5 2.3c0 .9 0 1.7.1 2.6.2 1.5.6 3 1.2 4.5 1 2.7 2.2 5.3 3.7 7.7.9 1.5 2.3 3.5 3.3 5 .6.9 1.5 2 2.2 2.9l-1.8 1.7c-9.6-11.9-13-22.9-8.9-26.8z" fill="#b1c8df"/><g clip-path="url(#B)" fill="#b1c8df"><path d="m683.3 281.9-1.9 1.8c-.5-.6-1-1.2-1.4-1.8l1.9-1.8c.5.6 1 1.2 1.4 1.8"/><path d="m681.9 280.1-1.9 1.8c-1-1.3-1.9-2.5-2.7-3.8l1.9-1.8c.9 1.2 1.8 2.5 2.7 3.8"/><path d="m679.2 276.3-1.9 1.8c-.7-1-1.3-2.1-1.9-3.1l1.9-1.8c.6 1 1.3 2 1.9 3.1"/><path d="m677.3 273.2-1.9 1.8c-.5-.9-1-1.9-1.5-2.8l1.9-1.8c.5 1 1 1.9 1.5 2.8"/><path d="m675.9 270.4-1.9 1.8c-.4-.9-.8-1.8-1.2-2.6l1.9-1.8c.3.9.8 1.7 1.2 2.6"/><path d="m674.7 267.8-1.9 1.8c-.4-.9-.7-1.7-.9-2.5l1.9-1.8c.2.8.5 1.7.9 2.5"/><path d="m673.7 265.3-1.9 1.8c-.3-.8-.5-1.7-.7-2.6l1.9-1.8c.2.9.5 1.8.7 2.6"/><path d="m673.1 262.7-1.9 1.8c-.2-.9-.3-1.8-.3-2.8l1.9-1.8c0 1 .1 1.9.3 2.8"/><path d="m672.8 260-1.9 1.8c-.2-1.8.5-3.7 1.7-5l1.9-1.8c-1.3 1.3-1.9 3.2-1.7 5"/></g><path d="m671.5 258.3c.3-.6.6-1 1-1.5l1.9-1.8c-.4.4-.8.9-1 1.5l-1.2 1.1c-.2.2-.4.4-.7.7z" fill="#b1c8df"/><g clip-path="url(#C)"><path d="m672.8 260-1.9 1.8c-.2-1.8.5-3.6 1.7-5l1.9-1.8c-1.3 1.3-1.9 3.2-1.7 5" fill="#b1c8df"/></g><path d="m671.5 258.3c.6-.6 1.2-1.2 1.9-1.8 0 .1-.1.2-.1.3l-1.9 1.8c0-.1.1-.2.1-.3z" fill="#b1c8df"/><g clip-path="url(#D)"><path d="m672.8 260-1.9 1.8c-.2-1.8.5-3.6 1.7-5l1.9-1.8c-1.3 1.3-1.9 3.2-1.7 5" fill="#b1c8df"/></g><path d="m671.4 258.6 1.9-1.8z" fill="#b1c8df"/><g clip-path="url(#E)"><path d="m672.8 260-1.9 1.8c-.2-1.8.5-3.6 1.7-5l1.9-1.8c-1.3 1.3-1.9 3.2-1.7 5" fill="#b1c8df"/></g><path d="m717.9 292.6c2.7 7.3 1.7 11.8-2.8 12.9l-.5.1.5-.1c4.5-1.1 5.5-5.5 2.8-12.9z" fill="#b1c8df"/><path d="m695.8 297.7c-5.3-4.1-10.2-8.8-14.4-14.1l1.9-1.8c4.2 5.3 9 10 14.4 14.1 2.5 2 5.3 3.7 8.1 5.2 4.2 2.1 7.9 3.1 10.7 2.7l.5-.1c1-.2 1.9-.7 2.6-1.3-.8.7-1.7 1.1-2.7 1.4-.6.1-1.2.2-1.9.2-.5 0-.9 0-1.3-.1-1-.1-2-.3-3-.6-1.7-.5-3.4-1.2-5-2.1 1.6.8 3.3 1.5 5 2.1 1 .3 2 .5 3 .6.4.1.9.1 1.3.1.6 0 1.2-.1 1.9-.2.9-.3 1.8-.8 2.7-1.4l-1.9 1.8c-.7.7-1.7 1.1-2.6 1.3l-.5.1c-2.8.5-6.6-.5-10.7-2.7-2.8-1.5-5.5-3.2-8.1-5.2z" fill="#b1c8df"/><g clip-path="url(#F)" fill="#b1c8df"><path d="m719.6 302.4-1.9 1.8c-.7.7-1.7 1.1-2.6 1.3l-.5.1-.6.1 1.9-1.8.6-.1.5-.1c1-.2 1.9-.7 2.6-1.3"/><path d="m716 303.9-1.9 1.8c-.8.1-1.7 0-2.5-.1l1.9-1.8c.8.1 1.7.1 2.5.1"/><path d="m713.5 303.8-1.9 1.8c-.8-.1-1.6-.3-2.3-.5l1.9-1.8c.7.2 1.5.4 2.3.5"/><path d="m711.2 303.3-1.9 1.8c-.8-.2-1.6-.5-2.3-.8l1.9-1.8c.7.3 1.5.6 2.3.8"/><path d="m708.8 302.5-1.9 1.8c-.8-.3-1.6-.7-2.4-1.1l1.9-1.8c.8.4 1.6.8 2.4 1.1"/><path d="m706.4 301.4-1.9 1.8-.6-.3c-.7-.3-1.3-.7-2-1.1l1.9-1.8c.7.4 1.4.8 2 1.1z"/><path d="m703.8 300-1.9 1.8c-1-.6-2-1.2-3-1.9l1.9-1.8c1 .7 2 1.3 3 1.9"/><path d="m700.8 298.2-1.9 1.8c-1-.7-2.1-1.4-3.1-2.2l-.5-.4 1.9-1.8.5.4c1 .7 2.1 1.5 3.1 2.2"/><path d="m697.2 295.5-1.9 1.8c-5.1-4-9.8-8.6-13.8-13.7l1.9-1.8c4 5.1 8.6 9.7 13.8 13.7"/></g><path d="m715.1 305.5-.5.1 1.7-1.6.2-.2.5-.1c1-.2 1.9-.7 2.6-1.3l-1.9 1.8c-.7.6-1.6 1.1-2.6 1.3z" fill="#b1c8df"/><g clip-path="url(#G)"><path d="m719.6 302.4-1.9 1.8c-.7.7-1.7 1.1-2.6 1.3l-.5.1 1.9-1.8.5-.1c1-.2 1.9-.7 2.6-1.3" fill="#b1c8df"/></g><path d="m670.9 260.6c.1-.7.2-1.4.5-2l1.9-1.8c-.3.6-.4 1.3-.5 2l-1.9 1.8 1.9-1.8z" fill="#b1c8df"/><g clip-path="url(#H)"><path d="m672.8 260-1.9 1.8c-.2-1.8.5-3.6 1.7-5l1.9-1.8c-1.3 1.3-1.9 3.2-1.7 5" fill="#b1c8df"/></g><path d="m670.9 261.2c0-.2 0-.4 0-.6l1.9-1.8v.6z" fill="#b1c8df"/><g clip-path="url(#I)"><path d="m672.8 260-1.9 1.8c-.2-1.8.5-3.6 1.7-5l1.9-1.8c-1.3 1.3-1.9 3.2-1.7 5" fill="#b1c8df"/></g><path d="m670.9 261.2.7-.7.7-.6.5-.5v.1l-.6.5-.2.2-.1.1-.1.1-.1.1-.1.1-.1.1-.1.1-.1.1-.1.1c-.2.1-.3.2-.3.2z" fill="#b1c8df"/><g clip-path="url(#J)"><path d="m672.8 260-1.9 1.8c-.2-1.8.5-3.6 1.7-5l1.9-1.8c-1.3 1.3-1.9 3.2-1.7 5" fill="#b1c8df"/></g><path d="m671 263.5c-.1-.7-.2-1.5-.1-2.2l1.9-1.8c0 .8 0 1.5.1 2.2z" fill="#b1c8df"/><g clip-path="url(#K)" fill="#b1c8df"><path d="m673.1 262.7-1.9 1.8c-.2-.9-.3-1.8-.3-2.8l1.9-1.8c0 1 .1 1.9.3 2.8"/><path d="m672.8 260-1.9 1.8c-.2-1.8.5-3.6 1.7-5l1.9-1.8c-1.3 1.3-1.9 3.2-1.7 5"/></g><path d="m671 263.5 1.9-1.8c-.6.6-1.3 1.2-1.9 1.8z" fill="#b1c8df"/><g clip-path="url(#L)"><path d="m673.1 262.7-1.9 1.8c-.2-.9-.3-1.8-.3-2.8l1.9-1.8c0 1 .1 1.9.3 2.8" fill="#b1c8df"/></g><path d="m671.2 264.4c-.1-.3-.1-.6-.1-.9l1.9-1.8c0 .3.1.6.2.9z" fill="#b1c8df"/><g clip-path="url(#M)"><path d="m673.1 262.7-1.9 1.8c-.2-.9-.3-1.8-.3-2.8l1.9-1.8c0 1 .1 1.9.3 2.8" fill="#b1c8df"/></g><path d="m671.2 264.4 1.8-1.8v.1l-.1.1-1 .9-.8.8z" fill="#b1c8df"/><g clip-path="url(#N)" fill="#b1c8df"><path d="m673.7 265.3-1.9 1.8c-.3-.8-.5-1.7-.7-2.6l1.9-1.8c.2.9.5 1.8.7 2.6"/><path d="m673.1 262.7-1.9 1.8c-.2-.9-.3-1.8-.3-2.8l1.9-1.8c0 1 .1 1.9.3 2.8"/></g><path d="m671.8 266.9c-.2-.8-.4-1.6-.6-2.3l.5-.4 1.4-1.4c.2.7.4 1.5.6 2.3z" fill="#b1c8df"/><g clip-path="url(#O)"><path d="m673.7 265.3-1.9 1.8c-.3-.8-.5-1.7-.7-2.6l1.9-1.8c.2.9.5 1.8.7 2.6" fill="#b1c8df"/></g><path d="m671.8 266.9.3-.3.4-.3 1.2-1.1z" fill="#b1c8df"/><g clip-path="url(#P)"><path d="m673.7 265.3-1.9 1.8c-.3-.8-.5-1.7-.7-2.6l1.9-1.8c.2.9.5 1.8.7 2.6" fill="#b1c8df"/></g><path d="m672.2 268.1c-.2-.4-.3-.8-.4-1.2l1.9-1.8c.1.4.3.8.4 1.2z" fill="#b1c8df"/><g clip-path="url(#Q)" fill="#b1c8df"><path d="m674.7 267.8-1.9 1.8c-.4-.9-.7-1.7-.9-2.5l1.9-1.8c.2.8.5 1.7.9 2.5"/><path d="m673.7 265.3-1.9 1.8c-.3-.8-.5-1.7-.7-2.6l1.9-1.8c.2.9.5 1.8.7 2.6"/></g><path d="m672.2 268.1 1.9-1.8.1.2-1.9 1.8c-.1 0-.1-.1-.1-.2z" fill="#b1c8df"/><g clip-path="url(#R)"><path d="m674.7 267.8-1.9 1.8c-.4-.9-.7-1.7-.9-2.5l1.9-1.8c.2.8.5 1.7.9 2.5" fill="#b1c8df"/></g><path d="m704.5 303.3 1.9-1.8c4 2 7.4 2.8 10.1 2.3l-1.9 1.8c-2.6.4-6.1-.4-10.1-2.3z" fill="#b1c8df"/><g clip-path="url(#S)" fill="#b1c8df"><path d="m716.5 303.8-1.9 1.8c-.2 0-.5.1-.7.1l1.9-1.8c.3 0 .5 0 .7-.1"/><path d="m715.8 303.9-1.8 1.8c-.9.1-1.7 0-2.5-.1l1.9-1.8c.8.1 1.6.1 2.4.1"/><path d="m713.3 303.8-1.9 1.8c-.8-.1-1.5-.3-2.3-.5l1.9-1.8c.8.2 1.5.4 2.3.5"/><path d="m711 303.3-1.9 1.8c-.7-.2-1.4-.4-2.2-.8l1.9-1.8c.7.4 1.5.6 2.2.8"/><path d="m708.8 302.6-1.8 1.8c-.7-.3-1.5-.6-2.3-1l1.9-1.8c.8.3 1.5.7 2.2 1"/><path d="m706.6 301.6-1.9 1.8-.5-.3c-.6-.3-1.3-.7-2-1.1l1.9-1.8c.7.4 1.3.7 2 1.1z"/></g><path d="m704.5 303.3-.1-.1c.1-.1.2-.1.2-.2l.5-.5 1.2-1.1.1.1z" fill="#b1c8df"/><g clip-path="url(#T)"><path d="m706.6 301.6-1.9 1.8-.5-.3c-.6-.3-1.3-.7-2-1.1l1.9-1.8c.7.4 1.3.7 2 1.1z" fill="#b1c8df"/></g><path d="m673.2 270.6c-.3-.8-.7-1.6-.9-2.3l1.9-1.8c.3.7.6 1.5.9 2.3-.6.6-1.3 1.2-1.9 1.8z" fill="#b1c8df"/><g clip-path="url(#U)" fill="#b1c8df"><path d="m675.9 270.4-1.9 1.8c-.4-.9-.8-1.8-1.2-2.6l1.9-1.8c.3.9.8 1.7 1.2 2.6"/><path d="m674.7 267.8-1.9 1.8c-.4-.9-.7-1.7-.9-2.5l1.9-1.8c.2.8.5 1.7.9 2.5"/></g><path d="m673.2 270.6c.6-.6 1.3-1.2 1.9-1.8z" fill="#b1c8df"/><g clip-path="url(#V)"><path d="m675.9 270.4-1.9 1.8c-.4-.9-.8-1.8-1.2-2.6l1.9-1.8c.3.9.8 1.7 1.2 2.6" fill="#b1c8df"/></g><path d="m704.1 303.1-.3-.1 1.9-1.8.3.1.2.1-1.7 1.6c-.1.1-.1.1-.2.2z" fill="#b1c8df"/><g clip-path="url(#W)"><path d="m706.6 301.6-1.9 1.8-.5-.3c-.6-.3-1.3-.7-2-1.1l1.9-1.8c.7.4 1.3.7 2 1.1z" fill="#b1c8df"/></g><path d="m703.9 302.9-.2-.1 1.9-1.8.2.1z" fill="#b1c8df"/><g clip-path="url(#X)"><path d="m706.6 301.6-1.9 1.8-.5-.3c-.6-.3-1.3-.7-2-1.1l1.9-1.8c.7.4 1.3.7 2 1.1z" fill="#b1c8df"/></g><path d="m703.6 302.8 1.9-1.8h.1z" fill="#b1c8df"/><g clip-path="url(#Y)"><path d="m706.6 301.6-1.9 1.8-.5-.3c-.6-.3-1.3-.7-2-1.1l1.9-1.8c.7.4 1.3.7 2 1.1z" fill="#b1c8df"/></g><path d="m674 272.2c-.3-.5-.5-1-.7-1.5l1.9-1.8c.2.5.5 1 .7 1.5l-.3.3-.3.3z" fill="#b1c8df"/><g clip-path="url(#Z)"><path d="m675.9 270.4-1.9 1.8c-.4-.9-.8-1.8-1.2-2.6l1.9-1.8c.3.9.8 1.7 1.2 2.6" fill="#b1c8df"/></g><path d="m674 272.2.1-.1 1.1-1 .7-.6.2.4-1.1 1-.1.1-.1.1-.1.1-.2.2-.1.1-.1.1z" fill="#b1c8df"/><g clip-path="url(#aa)" fill="#b1c8df"><path d="m677.3 273.2-1.9 1.8c-.5-.9-1-1.9-1.5-2.8l1.9-1.8c.5.9 1 1.9 1.5 2.8"/><path d="m675.9 270.4-1.9 1.8c-.4-.9-.8-1.8-1.2-2.6l1.9-1.8c.3.9.8 1.7 1.2 2.6"/></g><path d="m676.4 276.6c-.4-.6-.7-1.2-1.1-1.8l1.9-1.8c.3.6.7 1.2 1.1 1.8z" fill="#b1c8df"/><g clip-path="url(#ab)" fill="#b1c8df"><path d="m679.2 276.2-1.9 1.8c-.7-1-1.3-2.1-1.9-3.1l1.9-1.8c.6 1 1.3 2 1.9 3.1"/><path d="m677.3 273.2-1.9 1.8c-.5-.9-1-1.9-1.5-2.8l1.9-1.8c.5.9 1 1.9 1.5 2.8"/></g><path d="m676.4 276.6 1.9-1.8.4.7-1.9 1.8z" fill="#b1c8df"/><g clip-path="url(#ac)"><path d="m679.2 276.2-1.9 1.8c-.7-1-1.3-2.1-1.9-3.1l1.9-1.8c.6 1 1.3 2 1.9 3.1" fill="#b1c8df"/></g><path d="m678 279 1.9-1.8c.3.4.6.8.9 1.2l-.6.5.6-.5c.2.3.4.5.6.8l-1.9 1.8c-.5-.6-1-1.3-1.5-2z" fill="#b1c8df"/><g clip-path="url(#ad)"><path d="m682 280.1-1.9 1.8c-1-1.3-1.9-2.6-2.7-3.8l1.9-1.8c.8 1.2 1.7 2.5 2.7 3.8" fill="#b1c8df"/></g><path d="m682.7 281.2c-2.1-2.6-3.9-5.4-5.6-8.3v-.1c1.7 2.9 3.5 5.8 5.6 8.4z" fill="#b1c8df"/><path d="m675.3 274.7c.6-.6 1.3-1.2 1.9-1.8v.1l-.8.8-.2.2-.1.1-.2.2-.2.2z" fill="#b1c8df"/><g clip-path="url(#ae)"><path d="m677.3 273.2-1.9 1.8c-.5-.9-1-1.9-1.5-2.8l1.9-1.8c.5.9 1 1.9 1.5 2.8" fill="#b1c8df"/></g><path d="m683.3 281.9-1.9 1.8-.2-.3 1.9-1.8c.1.1.2.2.2.3z" fill="#b1c8df"/><g clip-path="url(#af)"><path d="m683.3 281.9-1.9 1.8-.2-.3 1.9-1.8c.1.1.2.2.2.3" fill="#b1c8df"/></g><path d="m683.3 281.9c-9.5-12-12.9-23.1-8.8-26.9-.5.6-.9 1.2-1.2 1.9s-.4 1.5-.5 2.3c0 .9 0 1.7.1 2.6.2 1.5.6 3 1.2 4.5 1 2.7 2.2 5.3 3.7 7.7.9 1.5 2.3 3.5 3.3 5 .6.9 1.5 2.1 2.2 2.9z" fill="#b1c8df"/><g clip-path="url(#ag)" fill="#b1c8df"><path d="m683.3 281.9-1.9 1.8c-.5-.6-1-1.2-1.4-1.8l1.9-1.8c.5.6 1 1.2 1.4 1.8"/><path d="m681.9 280.1-1.9 1.8c-1-1.3-1.9-2.5-2.7-3.8l1.9-1.8c.9 1.2 1.8 2.5 2.7 3.8"/><path d="m679.2 276.3-1.9 1.8c-.7-1-1.3-2.1-1.9-3.1l1.9-1.8c.6 1 1.3 2 1.9 3.1"/><path d="m677.3 273.2-1.9 1.8c-.5-.9-1-1.9-1.5-2.8l1.9-1.8c.5 1 1 1.9 1.5 2.8"/><path d="m675.9 270.4-1.9 1.8c-.4-.9-.8-1.8-1.2-2.6l1.9-1.8c.3.9.8 1.7 1.2 2.6"/><path d="m674.7 267.8-1.9 1.8c-.4-.9-.7-1.7-.9-2.5l1.9-1.8c.2.8.5 1.7.9 2.5"/><path d="m673.7 265.3-1.9 1.8c-.3-.8-.5-1.7-.7-2.6l1.9-1.8c.2.9.5 1.8.7 2.6"/><path d="m673.1 262.7-1.9 1.8c-.2-.9-.3-1.8-.3-2.8l1.9-1.8c0 1 .1 1.9.3 2.8"/><path d="m672.8 260-1.9 1.8c-.2-1.8.5-3.7 1.7-5l1.9-1.8c-1.3 1.3-1.9 3.2-1.7 5"/></g><path d="m675.3 274.7c-.4-.7-.8-1.4-1.2-2.1l1.9-1.8c.3.7.7 1.4 1.2 2.1-.6.6-1.3 1.2-1.9 1.8z" fill="#b1c8df"/><g clip-path="url(#ah)"><path d="m677.3 273.2-1.9 1.8c-.5-.9-1-1.9-1.5-2.8l1.9-1.8c.5.9 1 1.9 1.5 2.8" fill="#b1c8df"/></g><path d="m674.7 254.8c-3.3 2.6-2.4 9.2 1.9 17.2v.1c-4.3-8.1-5.1-14.7-1.9-17.3z" fill="#b1c8df"/><path d="m677.1 272.9c-.2-.3-.3-.6-.5-.9v.1z" fill="#b1c8df"/><path d="m695.9 297.8 1.9-1.8c2.4 1.9 5 3.5 7.8 5l-1.9 1.8c-2.8-1.5-5.4-3.2-7.8-5z" fill="#b1c8df"/><g clip-path="url(#ai)" fill="#b1c8df"><path d="m706.6 301.6-1.9 1.8-.5-.3c-.6-.3-1.3-.7-2-1.1l1.9-1.8c.7.4 1.3.7 2 1.1z"/><path d="m704.1 300.2-1.9 1.8c-1-.5-2-1.2-3-1.8l1.9-1.8c1 .6 2 1.3 3 1.8"/><path d="m701.1 298.4-1.9 1.8c-1.1-.7-2.2-1.5-3.4-2.4l1.9-1.7c1.2.8 2.3 1.6 3.4 2.3"/></g><path d="m695.9 297.8 1.9-1.8z" fill="#b1c8df"/><g clip-path="url(#aj)"><path d="m701.1 298.4-1.9 1.8c-1.1-.7-2.2-1.5-3.4-2.4l1.9-1.7c1.2.8 2.3 1.6 3.4 2.3" fill="#b1c8df"/></g><path d="m697.7 296c2.6 2 5.3 3.7 8.1 5.2 4.2 2.1 7.9 3.1 10.7 2.7-2.8.5-6.4-.4-10.5-2.5-2.9-1.6-5.7-3.4-8.3-5.4z" fill="#b1c8df"/><path d="m695.8 297.8 1.9-1.8z" fill="#b1c8df"/><g clip-path="url(#ak)"><path d="m701.1 298.4-1.9 1.8c-1.1-.7-2.2-1.5-3.4-2.4l1.9-1.7c1.2.8 2.3 1.6 3.4 2.3" fill="#b1c8df"/></g><path d="m678 279c-.4-.6-.8-1.2-1.2-1.8l1.9-1.8c.4.6.8 1.2 1.2 1.8z" fill="#b1c8df"/><g clip-path="url(#al)" fill="#b1c8df"><path d="m682 280.1-1.9 1.8c-1-1.3-1.9-2.6-2.7-3.8l1.9-1.8c.8 1.2 1.7 2.5 2.7 3.8"/><path d="m679.2 276.2-1.9 1.8c-.7-1-1.3-2.1-1.9-3.1l1.9-1.8c.6 1 1.3 2 1.9 3.1"/></g><path d="m679.5 281 1.9-1.8c.5.7 1 1.4 1.5 2l-1.9 1.8c-.5-.6-1-1.3-1.5-2z" fill="#b1c8df"/><g clip-path="url(#am)" fill="#b1c8df"><path d="m683.1 281.6-1.9 1.8-1.2-1.5 1.9-1.8z"/><path d="m682 280.1-1.9 1.8c-1-1.3-1.9-2.6-2.7-3.8l1.9-1.8c.8 1.2 1.7 2.5 2.7 3.8"/></g><path d="m682.7 281.2.3.4z" fill="#b1c8df"/><path d="m681.2 283.4-.2-.3 1.9-1.8.2.3z" fill="#b1c8df"/><g clip-path="url(#an)"><path d="m683.1 281.6-1.9 1.8-1.2-1.5 1.9-1.8z" fill="#b1c8df"/></g><path d="m677 253.7 20 25 22.8 12.1c2.7 7.3 1.7 11.8-2.8 12.9l-.5.1c-2.8.5-6.5-.5-10.7-2.7-2.9-1.5-5.6-3.2-8.1-5.2-5.3-4.1-10.2-8.8-14.4-14.1-9.8-12.2-13.1-23.4-8.6-27.1.7-.4 1.5-.8 2.3-1z" fill="#e4efff"/><circle cx="297" cy="279" fill="#00b3e3" r="25"/><path clip-rule="evenodd" d="m300 265.5c.3.6.1 1.3-.4 1.6l-7.2 4.2c-.6.3-1.3.1-1.6-.5s-.1-1.2.4-1.6l7.2-4.2c.5-.2 1.3-.1 1.6.5z" fill="#fff" fill-rule="evenodd"/><path clip-rule="evenodd" d="m304.4 275.4-7.2 4.2-4.1-7.2 7.2-4.2z" fill="#fff" fill-rule="evenodd"/><path clip-rule="evenodd" d="m306.6 276.9c.3.6.1 1.3-.4 1.6l-7.2 4.2c-.6.3-1.3.1-1.6-.4s-.1-1.3.4-1.6l7.2-4.2c.5-.4 1.3-.2 1.6.4z" fill="#fff" fill-rule="evenodd"/><path clip-rule="evenodd" d="m295.6 277-12.6 8c-.9.4-2 .1-2.4-.8-.4-.8-.1-1.8.6-2.3l13.2-6.9z" fill="#fff" fill-rule="evenodd"/><path clip-rule="evenodd" d="m309 289.8v-1.2c0-.7-.5-1.2-1.2-1.2h-10.8c-.7 0-1.2.5-1.2 1.2v1.2l-1.2 1.2h15.5z" fill="#fff" fill-rule="evenodd"/><g fill="#06357a"><path d="m536.5 268.4c.1 2-.7 4-2.2 5.3-1.8 1.3-3.9 2-6.1 1.8h-2v7.6h-4.5v-21.4h6.8c2.1-.1 4.2.4 5.9 1.7 1.5 1.3 2.2 3.1 2.1 5zm-10.3 3.4h1.5c1.1.1 2.2-.2 3.1-.8.7-.6 1.1-1.5 1-2.4.1-.9-.3-1.7-.9-2.4-.8-.6-1.8-.8-2.7-.8h-2.1z"/><path d="m554.8 268.4c.1 2-.7 4-2.2 5.3-1.8 1.3-3.9 2-6.1 1.8h-2v7.6h-4.5v-21.4h6.8c2.1-.1 4.2.4 5.9 1.7 1.5 1.2 2.3 3.1 2.1 5zm-10.2 3.4h1.5c1.1.1 2.2-.2 3.1-.8.7-.6 1.1-1.5 1-2.4.1-.9-.2-1.7-.9-2.4-.8-.6-1.8-.8-2.7-.8h-2.1z"/><path d="m567.9 265.2c-1.6-.1-3.1.6-4 1.9-1 1.6-1.5 3.5-1.4 5.4 0 4.8 1.8 7.2 5.4 7.2 1.9-.1 3.7-.5 5.5-1.1v3.8c-1.9.8-3.9 1.1-5.9 1.1-3.1 0-5.5-1-7.2-2.8s-2.5-4.6-2.5-8.1c0-2 .4-4 1.2-5.9.8-1.6 2-3 3.5-3.9 1.6-.9 3.5-1.4 5.3-1.3 2.2 0 4.3.5 6.3 1.5l-1.5 3.7c-.8-.4-1.6-.7-2.4-1-.7-.4-1.5-.5-2.3-.5z"/><path d="m412 276.8c.1 1.8-.7 3.6-2.2 4.7-1.7 1.2-3.9 1.9-6 1.7-2.2 0-4.3-.4-6.3-1.3v-4.4c1.2.6 2.5 1.1 3.8 1.4.9.3 1.9.4 2.8.4.8.1 1.7-.2 2.4-.6.6-.4.9-1.1.8-1.8 0-.4-.1-.8-.4-1.2s-.7-.7-1.1-1c-.9-.6-1.9-1.1-2.9-1.5-1.1-.5-2.1-1.1-3-1.8-.7-.6-1.2-1.2-1.6-2s-.6-1.8-.6-2.7c-.1-1.8.7-3.5 2-4.6 1.6-1.2 3.5-1.8 5.5-1.7 1.1 0 2.2.1 3.3.4s2.2.7 3.3 1.1l-1.5 3.6c-1-.4-1.9-.7-2.9-1-.7-.2-1.5-.3-2.3-.3-.7 0-1.4.2-2 .6-.5.4-.7 1-.7 1.6 0 .4.1.8.3 1.1.2.4.6.7.9.9 1 .6 2 1.1 3 1.5 1.6.7 3.1 1.7 4.3 3 .8 1.4 1.2 2.6 1.1 3.9z"/><path d="m428.7 283h-12.7v-22.2h12.8v3.8h-8.1v4.9h7.5v3.9h-7.5v5.7h8.1z"/><path d="m453 271.9c0 3.7-.9 6.5-2.7 8.5s-4.4 3-7.8 3-6-1-7.8-3-2.7-4.8-2.7-8.5.9-6.5 2.7-8.4 4.4-2.9 7.8-2.9 6 1 7.8 2.9 2.7 4.7 2.7 8.4zm-16.1 0c-.1 2 .4 3.9 1.4 5.6 1 1.3 2.6 2 4.2 1.9 3.7 0 5.6-2.5 5.6-7.5s-1.9-7.5-5.6-7.5c-1.6-.1-3.2.6-4.2 1.9-1.1 1.6-1.6 3.6-1.4 5.6z"/><path d="m711.1 164.1h34.5c1.6 0 2.9 1.3 2.9 2.9v34.3c0 1.6-1.3 2.9-2.9 2.9h-34.3c-1.6 0-2.9-1.3-2.9-2.9v-34.5c.1-1.5 1.3-2.7 2.7-2.7z"/></g><path d="m728.1 198.9c-3.7.1-7.2-1.5-9.5-4.4l4-4.5c1.7 1.8 3.3 2.9 5.3 2.9 2.4 0 3.9-1.5 3.9-4.8v-18.7h6.6v19c0 7.1-4.2 10.5-10.3 10.5z" fill="#fff"/><circle cx="572.4" cy="70.3" fill="#00b3e3" r="26.6"/><path clip-rule="evenodd" d="m558.3 83.5h29.2v-1.1h-29.2zm.5-17.5h28.2c.7-.3.7-.9 0-1.4s-14.2-10.2-14.2-10.2-13.4 9.8-14.1 10.2-.6 1.1.1 1.4zm14.1-6.7c1.1 0 2 .9 2 2s-.9 2-2 2-2-.9-2-2 .9-2 2-2zm-13.4 21.9h26.8v-1.2h-26.8zm1.1-3.6v1.3h5.8v-1.3h-1.1v-9.2h1.1v-1.3h-5.8v1.2h1.1v9.3zm9.4 0v1.3h5.8v-1.3h-1.1v-9.2h1.2v-1.1h-5.9v1.1h1.2v9.3h-1.2zm9.2 0v1.3h5.8v-1.3h-1v-9.2h1.2v-1.1h-5.9v1.1h1.2v9.3h-1.3z" fill="#fff" fill-rule="evenodd"/></svg>